ChironHeiHKVF-weight1000-Master.ufo
<glyph name="cid42995" format="2">
  <advance height="1000" width="398"/>
  <unicode hex="0021"/>
  <outline>
    <contour>
      <point x="139" y="259" type="line"/>
      <point x="259" y="259" type="line"/>
      <point x="284" y="586" type="line"/>
      <point x="290" y="746" type="line"/>
      <point x="107" y="746" type="line"/>
      <point x="114" y="586" type="line"/>
    </contour>
    <contour>
      <point x="199" y="-25" type="curve" smooth="yes"/>
      <point x="261" y="-25"/>
      <point x="306" y="25"/>
      <point x="306" y="87" type="curve" smooth="yes"/>
      <point x="306" y="151"/>
      <point x="261" y="200"/>
      <point x="199" y="200" type="curve" smooth="yes"/>
      <point x="137" y="200"/>
      <point x="92" y="151"/>
      <point x="92" y="87" type="curve" smooth="yes"/>
      <point x="92" y="25"/>
      <point x="137" y="-25"/>
    </contour>
  </outline>
</glyph>
<glyph name="cid44622" format="2">
  <advance height="1000" width="605"/>
  <unicode hex="0024"/>
  <outline>
    <contour>
      <point x="278" y="-25" type="curve" smooth="yes"/>
      <point x="451" y="-25"/>
      <point x="537" y="73"/>
      <point x="537" y="205" type="curve" smooth="yes"/>
      <point x="537" y="412"/>
      <point x="243" y="415"/>
      <point x="243" y="508" type="curve" smooth="yes"/>
      <point x="243" y="553"/>
      <point x="269" y="572"/>
      <point x="315" y="572" type="curve" smooth="yes"/>
      <point x="360" y="572"/>
      <point x="401" y="554"/>
      <point x="440" y="519" type="curve"/>
      <point x="531" y="620" type="line"/>
      <point x="476" y="679"/>
      <point x="408" y="719"/>
      <point x="310" y="719" type="curve" smooth="yes"/>
      <point x="160" y="719"/>
      <point x="68" y="634"/>
      <point x="68" y="500" type="curve" smooth="yes"/>
      <point x="68" y="301"/>
      <point x="363" y="291"/>
      <point x="363" y="190" type="curve" smooth="yes"/>
      <point x="363" y="146"/>
      <point x="338" y="122"/>
      <point x="278" y="122" type="curve" smooth="yes"/>
      <point x="228" y="122"/>
      <point x="180" y="136"/>
      <point x="122" y="182" type="curve"/>
      <point x="41" y="70" type="line"/>
      <point x="106" y="4"/>
      <point x="194" y="-25"/>
    </contour>
    <contour>
      <point x="241" y="-135" type="line"/>
      <point x="360" y="-135" type="line"/>
      <point x="360" y="51" type="line"/>
      <point x="241" y="51" type="line"/>
    </contour>
    <contour>
      <point x="241" y="664" type="line"/>
      <point x="360" y="664" type="line"/>
      <point x="360" y="830" type="line"/>
      <point x="241" y="830" type="line"/>
    </contour>
  </outline>
</glyph>
<glyph name="cid41274" format="2">
  <advance height="1000" width="770"/>
  <unicode hex="0026"/>
  <outline>
    <contour>
      <point x="287" y="-25" type="curve" smooth="yes"/>
      <point x="419" y="-25"/>
      <point x="505" y="27"/>
      <point x="574" y="105" type="curve" smooth="yes"/>
      <point x="657" y="198"/>
      <point x="714" y="301"/>
      <point x="745" y="409" type="curve"/>
      <point x="579" y="409" type="line"/>
      <point x="553" y="316"/>
      <point x="506" y="242"/>
      <point x="449" y="186" type="curve" smooth="yes"/>
      <point x="401" y="143"/>
      <point x="348" y="114"/>
      <point x="299" y="114" type="curve" smooth="yes"/>
      <point x="242" y="114"/>
      <point x="199" y="140"/>
      <point x="199" y="198" type="curve" smooth="yes"/>
      <point x="199" y="327"/>
      <point x="510" y="369"/>
      <point x="510" y="566" type="curve" smooth="yes"/>
      <point x="510" y="670"/>
      <point x="436" y="738"/>
      <point x="321" y="738" type="curve" smooth="yes"/>
      <point x="193" y="738"/>
      <point x="113" y="647"/>
      <point x="113" y="542" type="curve" smooth="yes"/>
      <point x="113" y="397"/>
      <point x="277" y="196"/>
      <point x="467" y="75" type="curve" smooth="yes"/>
      <point x="545" y="24"/>
      <point x="627" y="-11"/>
      <point x="704" y="-25" type="curve"/>
      <point x="747" y="122" type="line"/>
      <point x="711" y="130"/>
      <point x="640" y="152"/>
      <point x="576" y="189" type="curve" smooth="yes"/>
      <point x="426" y="281"/>
      <point x="264" y="425"/>
      <point x="264" y="542" type="curve" smooth="yes"/>
      <point x="264" y="591"/>
      <point x="293" y="618"/>
      <point x="325" y="618" type="curve" smooth="yes"/>
      <point x="356" y="618"/>
      <point x="371" y="599"/>
      <point x="371" y="566" type="curve" smooth="yes"/>
      <point x="371" y="426"/>
      <point x="26" y="432"/>
      <point x="26" y="187" type="curve" smooth="yes"/>
      <point x="26" y="60"/>
      <point x="123" y="-25"/>
    </contour>
  </outline>
</glyph>
<glyph name="cid43202" format="2">
  <advance height="1000" width="400"/>
  <unicode hex="0028"/>
  <outline>
    <contour>
      <point x="228" y="-214" type="curve"/>
      <point x="342" y="-167" type="line"/>
      <point x="261" y="-20"/>
      <point x="226" y="145"/>
      <point x="226" y="303" type="curve" smooth="yes"/>
      <point x="226" y="461"/>
      <point x="261" y="626"/>
      <point x="342" y="773" type="curve"/>
      <point x="228" y="821" type="line"/>
      <point x="133" y="665"/>
      <point x="79" y="502"/>
      <point x="79" y="303" type="curve" smooth="yes"/>
      <point x="79" y="104"/>
      <point x="133" y="-58"/>
    </contour>
  </outline>
</glyph>
<glyph name="cid43208" format="2">
  <advance height="1000" width="400"/>
  <unicode hex="0029"/>
  <outline>
    <contour>
      <point x="172" y="-214" type="line"/>
      <point x="267" y="-58"/>
      <point x="321" y="104"/>
      <point x="321" y="303" type="curve" smooth="yes"/>
      <point x="321" y="502"/>
      <point x="267" y="665"/>
      <point x="172" y="821" type="curve"/>
      <point x="57" y="773" type="line"/>
      <point x="139" y="626"/>
      <point x="174" y="461"/>
      <point x="174" y="303" type="curve" smooth="yes"/>
      <point x="174" y="145"/>
      <point x="139" y="-20"/>
      <point x="57" y="-167" type="curve"/>
    </contour>
  </outline>
</glyph>
<glyph name="cid43227" format="2">
  <advance height="1000" width="527"/>
  <unicode hex="002A"/>
  <outline>
    <contour>
      <point x="170" y="364" type="line"/>
      <point x="263" y="467" type="line"/>
      <point x="356" y="364" type="line"/>
      <point x="432" y="420" type="line"/>
      <point x="363" y="538" type="line"/>
      <point x="489" y="596" type="line"/>
      <point x="460" y="685" type="line"/>
      <point x="325" y="657" type="line"/>
      <point x="311" y="794" type="line"/>
      <point x="216" y="794" type="line"/>
      <point x="201" y="658" type="line"/>
      <point x="67" y="685" type="line"/>
      <point x="37" y="596" type="line"/>
      <point x="162" y="538" type="line"/>
      <point x="95" y="420" type="line"/>
    </contour>
  </outline>
</glyph>
<glyph name="cid44778" format="2">
  <advance height="1000" width="605"/>
  <unicode hex="002B"/>
  <outline>
    <contour>
      <point x="236" y="93" type="line"/>
      <point x="368" y="93" type="line"/>
      <point x="368" y="297" type="line"/>
      <point x="566" y="297" type="line"/>
      <point x="566" y="426" type="line"/>
      <point x="368" y="426" type="line"/>
      <point x="368" y="631" type="line"/>
      <point x="236" y="631" type="line"/>
      <point x="236" y="426" type="line"/>
      <point x="38" y="426" type="line"/>
      <point x="38" y="297" type="line"/>
      <point x="236" y="297" type="line"/>
    </contour>
  </outline>
</glyph>
<glyph name="cid42987" format="2">
  <advance height="1000" width="353"/>
  <unicode hex="002E"/>
  <outline>
    <contour>
      <point x="176" y="-25" type="curve" smooth="yes"/>
      <point x="238" y="-25"/>
      <point x="284" y="25"/>
      <point x="284" y="87" type="curve" smooth="yes"/>
      <point x="284" y="151"/>
      <point x="238" y="200"/>
      <point x="176" y="200" type="curve" smooth="yes"/>
      <point x="114" y="200"/>
      <point x="69" y="151"/>
      <point x="69" y="87" type="curve" smooth="yes"/>
      <point x="69" y="25"/>
      <point x="114" y="-25"/>
    </contour>
  </outline>
</glyph>
<glyph name="cid43220" format="2">
  <advance height="1000" width="380"/>
  <unicode hex="002F"/>
  <outline>
    <contour>
      <point x="16" y="-192" type="line"/>
      <point x="133" y="-192" type="line"/>
      <point x="344" y="791" type="line"/>
      <point x="226" y="791" type="line"/>
    </contour>
  </outline>
</glyph>
<glyph name="cid42846" format="2">
  <advance height="1000" width="605"/>
  <unicode hex="0030"/>
  <outline>
    <contour>
      <point x="303" y="-25" type="curve" smooth="yes"/>
      <point x="459" y="-25"/>
      <point x="565" y="107"/>
      <point x="565" y="351" type="curve" smooth="yes"/>
      <point x="565" y="595"/>
      <point x="459" y="719"/>
      <point x="303" y="719" type="curve" smooth="yes"/>
      <point x="146" y="719"/>
      <point x="40" y="596"/>
      <point x="40" y="351" type="curve" smooth="yes"/>
      <point x="40" y="107"/>
      <point x="146" y="-25"/>
    </contour>
    <contour>
      <point x="303" y="117" type="curve" smooth="yes"/>
      <point x="253" y="117"/>
      <point x="212" y="159"/>
      <point x="212" y="351" type="curve" smooth="yes"/>
      <point x="212" y="543"/>
      <point x="253" y="579"/>
      <point x="303" y="579" type="curve" smooth="yes"/>
      <point x="351" y="579"/>
      <point x="392" y="543"/>
      <point x="392" y="351" type="curve" smooth="yes"/>
      <point x="392" y="159"/>
      <point x="351" y="117"/>
    </contour>
  </outline>
</glyph>
<glyph name="cid42856" format="2">
  <advance height="1000" width="605"/>
  <unicode hex="0031"/>
  <outline>
    <contour>
      <point x="232" y="-11" type="line"/>
      <point x="414" y="-11" type="line"/>
      <point x="414" y="705" type="line"/>
      <point x="280" y="705" type="line"/>
      <point x="227" y="673"/>
      <point x="175" y="653"/>
      <point x="96" y="638" type="curve"/>
      <point x="96" y="525" type="line"/>
      <point x="232" y="525" type="line"/>
    </contour>
  </outline>
</glyph>
<glyph name="cid42858" format="2">
  <advance height="1000" width="605"/>
  <unicode hex="0032"/>
  <outline>
    <contour>
      <point x="41" y="-11" type="line"/>
      <point x="555" y="-11" type="line"/>
      <point x="555" y="143" type="line"/>
      <point x="408" y="143" type="line" smooth="yes"/>
      <point x="375" y="143"/>
      <point x="324" y="138"/>
      <point x="288" y="134" type="curve"/>
      <point x="405" y="247"/>
      <point x="521" y="361"/>
      <point x="521" y="490" type="curve" smooth="yes"/>
      <point x="521" y="627"/>
      <point x="421" y="719"/>
      <point x="278" y="719" type="curve" smooth="yes"/>
      <point x="175" y="719"/>
      <point x="107" y="681"/>
      <point x="37" y="600" type="curve"/>
      <point x="131" y="507" type="line"/>
      <point x="166" y="543"/>
      <point x="203" y="577"/>
      <point x="252" y="577" type="curve" smooth="yes"/>
      <point x="308" y="577"/>
      <point x="346" y="543"/>
      <point x="346" y="476" type="curve" smooth="yes"/>
      <point x="346" y="379"/>
      <point x="214" y="252"/>
      <point x="41" y="102" type="curve"/>
    </contour>
  </outline>
</glyph>
<glyph name="cid42867" format="2">
  <advance height="1000" width="605"/>
  <unicode hex="0034"/>
  <outline>
    <contour>
      <point x="330" y="-11" type="line"/>
      <point x="499" y="-11" type="line"/>
      <point x="499" y="705" type="line"/>
      <point x="273" y="705" type="line"/>
      <point x="23" y="281" type="line"/>
      <point x="23" y="154" type="line"/>
      <point x="579" y="154" type="line"/>
      <point x="579" y="293" type="line"/>
      <point x="195" y="293" type="line"/>
      <point x="272" y="429" type="line" smooth="yes"/>
      <point x="293" y="470"/>
      <point x="313" y="512"/>
      <point x="331" y="554" type="curve"/>
      <point x="336" y="554" type="line"/>
      <point x="333" y="507"/>
      <point x="330" y="435"/>
      <point x="330" y="389" type="curve" smooth="yes"/>
    </contour>
  </outline>
</glyph>
<glyph name="cid42873" format="2">
  <advance height="1000" width="605"/>
  <unicode hex="0036"/>
  <outline>
    <contour>
      <point x="321" y="-25" type="curve" smooth="yes"/>
      <point x="454" y="-25"/>
      <point x="565" y="66"/>
      <point x="565" y="218" type="curve" smooth="yes"/>
      <point x="565" y="371"/>
      <point x="472" y="440"/>
      <point x="350" y="440" type="curve" smooth="yes"/>
      <point x="306" y="440"/>
      <point x="240" y="409"/>
      <point x="203" y="356" type="curve"/>
      <point x="212" y="240" type="line"/>
      <point x="241" y="292"/>
      <point x="279" y="311"/>
      <point x="314" y="311" type="curve" smooth="yes"/>
      <point x="360" y="311"/>
      <point x="399" y="290"/>
      <point x="399" y="218" type="curve" smooth="yes"/>
      <point x="399" y="140"/>
      <point x="360" y="112"/>
      <point x="316" y="112" type="curve" smooth="yes"/>
      <point x="266" y="112"/>
      <point x="210" y="155"/>
      <point x="210" y="334" type="curve" smooth="yes"/>
      <point x="210" y="513"/>
      <point x="271" y="572"/>
      <point x="350" y="572" type="curve" smooth="yes"/>
      <point x="391" y="572"/>
      <point x="436" y="548"/>
      <point x="460" y="522" type="curve"/>
      <point x="556" y="631" type="line"/>
      <point x="510" y="677"/>
      <point x="437" y="719"/>
      <point x="338" y="719" type="curve" smooth="yes"/>
      <point x="185" y="719"/>
      <point x="44" y="597"/>
      <point x="44" y="334" type="curve" smooth="yes"/>
      <point x="44" y="77"/>
      <point x="183" y="-25"/>
    </contour>
  </outline>
</glyph>
<glyph name="cid42875" format="2">
  <advance height="1000" width="605"/>
  <unicode hex="0037"/>
  <outline>
    <contour>
      <point x="164" y="-11" type="curve"/>
      <point x="347" y="-11" type="line"/>
      <point x="360" y="268"/>
      <point x="388" y="394"/>
      <point x="557" y="594" type="curve"/>
      <point x="557" y="705" type="line"/>
      <point x="50" y="705" type="line"/>
      <point x="50" y="553" type="line"/>
      <point x="363" y="553" type="line"/>
      <point x="224" y="364"/>
      <point x="177" y="221"/>
    </contour>
  </outline>
</glyph>
<glyph name="cid42877" format="2">
  <advance height="1000" width="605"/>
  <unicode hex="0039"/>
  <outline>
    <contour>
      <point x="264" y="-25" type="curve" smooth="yes"/>
      <point x="417" y="-25"/>
      <point x="558" y="99"/>
      <point x="558" y="362" type="curve" smooth="yes"/>
      <point x="558" y="618"/>
      <point x="420" y="719"/>
      <point x="281" y="719" type="curve" smooth="yes"/>
      <point x="148" y="719"/>
      <point x="37" y="629"/>
      <point x="37" y="477" type="curve" smooth="yes"/>
      <point x="37" y="323"/>
      <point x="130" y="256"/>
      <point x="253" y="256" type="curve" smooth="yes"/>
      <point x="297" y="256"/>
      <point x="364" y="285"/>
      <point x="399" y="338" type="curve"/>
      <point x="390" y="455" type="line"/>
      <point x="362" y="403"/>
      <point x="324" y="383"/>
      <point x="288" y="383" type="curve" smooth="yes"/>
      <point x="243" y="383"/>
      <point x="203" y="405"/>
      <point x="203" y="477" type="curve" smooth="yes"/>
      <point x="203" y="555"/>
      <point x="242" y="583"/>
      <point x="286" y="583" type="curve" smooth="yes"/>
      <point x="337" y="583"/>
      <point x="392" y="540"/>
      <point x="392" y="362" type="curve" smooth="yes"/>
      <point x="392" y="182"/>
      <point x="332" y="122"/>
      <point x="252" y="122" type="curve" smooth="yes"/>
      <point x="211" y="122"/>
      <point x="166" y="147"/>
      <point x="142" y="173" type="curve"/>
      <point x="46" y="65" type="line"/>
      <point x="94" y="17"/>
      <point x="166" y="-25"/>
    </contour>
  </outline>
</glyph>
<glyph name="cid44800" format="2">
  <advance height="1000" width="605"/>
  <unicode hex="003C"/>
  <outline>
    <contour>
      <point x="566" y="100" type="line"/>
      <point x="566" y="249" type="line"/>
      <point x="376" y="310" type="line"/>
      <point x="224" y="362" type="line"/>
      <point x="224" y="366" type="line"/>
      <point x="376" y="418" type="line"/>
      <point x="566" y="479" type="line"/>
      <point x="566" y="629" type="line"/>
      <point x="38" y="426" type="line"/>
      <point x="38" y="302" type="line"/>
    </contour>
  </outline>
</glyph>
<glyph name="cid44796" format="2">
  <advance height="1000" width="605"/>
  <unicode hex="003D"/>
  <outline>
    <contour>
      <point x="38" y="432" type="line"/>
      <point x="566" y="432" type="line"/>
      <point x="566" y="561" type="line"/>
      <point x="38" y="561" type="line"/>
    </contour>
    <contour>
      <point x="38" y="163" type="line"/>
      <point x="566" y="163" type="line"/>
      <point x="566" y="292" type="line"/>
      <point x="38" y="292" type="line"/>
    </contour>
  </outline>
</glyph>
<glyph name="cid44805" format="2">
  <advance height="1000" width="605"/>
  <unicode hex="003E"/>
  <outline>
    <contour>
      <point x="38" y="100" type="line"/>
      <point x="566" y="302" type="line"/>
      <point x="566" y="426" type="line"/>
      <point x="38" y="629" type="line"/>
      <point x="38" y="479" type="line"/>
      <point x="228" y="418" type="line"/>
      <point x="381" y="366" type="line"/>
      <point x="381" y="362" type="line"/>
      <point x="228" y="310" type="line"/>
      <point x="38" y="249" type="line"/>
    </contour>
  </outline>
</glyph>
<glyph name="cid43311" format="2">
  <advance height="1000" width="1034"/>
  <unicode hex="0040"/>
  <outline>
    <contour>
      <point x="490" y="-209" type="curve" smooth="yes"/>
      <point x="572" y="-209"/>
      <point x="643" y="-193"/>
      <point x="713" y="-157" type="curve"/>
      <point x="673" y="-56" type="line"/>
      <point x="627" y="-80"/>
      <point x="560" y="-97"/>
      <point x="505" y="-97" type="curve" smooth="yes"/>
      <point x="334" y="-97"/>
      <point x="179" y="4"/>
      <point x="179" y="226" type="curve" smooth="yes"/>
      <point x="179" y="476"/>
      <point x="368" y="639"/>
      <point x="558" y="639" type="curve" smooth="yes"/>
      <point x="782" y="639"/>
      <point x="863" y="493"/>
      <point x="863" y="337" type="curve" smooth="yes"/>
      <point x="863" y="220"/>
      <point x="802" y="142"/>
      <point x="735" y="142" type="curve" smooth="yes"/>
      <point x="688" y="142"/>
      <point x="671" y="169"/>
      <point x="686" y="230" type="curve" smooth="yes"/>
      <point x="739" y="484" type="line"/>
      <point x="627" y="484" type="line"/>
      <point x="610" y="436" type="line"/>
      <point x="608" y="436" type="line"/>
      <point x="589" y="477"/>
      <point x="559" y="494"/>
      <point x="523" y="494" type="curve" smooth="yes"/>
      <point x="393" y="494"/>
      <point x="292" y="355"/>
      <point x="292" y="213" type="curve" smooth="yes"/>
      <point x="292" y="109"/>
      <point x="353" y="40"/>
      <point x="444" y="40" type="curve" smooth="yes"/>
      <point x="489" y="40"/>
      <point x="550" y="69"/>
      <point x="580" y="116" type="curve"/>
      <point x="582" y="116" type="line"/>
      <point x="594" y="60"/>
      <point x="649" y="29"/>
      <point x="715" y="29" type="curve" smooth="yes"/>
      <point x="838" y="29"/>
      <point x="980" y="133"/>
      <point x="980" y="342" type="curve" smooth="yes"/>
      <point x="980" y="581"/>
      <point x="822" y="751"/>
      <point x="573" y="751" type="curve" smooth="yes"/>
      <point x="289" y="751"/>
      <point x="54" y="540"/>
      <point x="54" y="222" type="curve" smooth="yes"/>
      <point x="54" y="-73"/>
      <point x="263" y="-209"/>
    </contour>
    <contour>
      <point x="484" y="154" type="curve" smooth="yes"/>
      <point x="450" y="154"/>
      <point x="429" y="179"/>
      <point x="429" y="223" type="curve" smooth="yes"/>
      <point x="429" y="287"/>
      <point x="468" y="377"/>
      <point x="530" y="377" type="curve" smooth="yes"/>
      <point x="550" y="377"/>
      <point x="568" y="365"/>
      <point x="577" y="348" type="curve"/>
      <point x="553" y="201" type="line"/>
      <point x="525" y="166"/>
      <point x="506" y="154"/>
    </contour>
  </outline>
</glyph>
<glyph name="cid40010" format="2">
  <advance height="1000" width="688"/>
  <unicode hex="0042"/>
  <outline>
    <contour>
      <point x="84" y="-11" type="line"/>
      <point x="365" y="-11" type="line" smooth="yes"/>
      <point x="524" y="-11"/>
      <point x="653" y="57"/>
      <point x="653" y="214" type="curve" smooth="yes"/>
      <point x="653" y="308"/>
      <point x="605" y="359"/>
      <point x="524" y="379" type="curve"/>
      <point x="524" y="383" type="line"/>
      <point x="584" y="406"/>
      <point x="618" y="468"/>
      <point x="618" y="542" type="curve" smooth="yes"/>
      <point x="618" y="684"/>
      <point x="496" y="725"/>
      <point x="344" y="725" type="curve" smooth="yes"/>
      <point x="84" y="725" type="line"/>
    </contour>
    <contour>
      <point x="267" y="434" type="line"/>
      <point x="267" y="583" type="line"/>
      <point x="338" y="583" type="line" smooth="yes"/>
      <point x="407" y="583"/>
      <point x="440" y="564"/>
      <point x="440" y="514" type="curve" smooth="yes"/>
      <point x="440" y="466"/>
      <point x="408" y="434"/>
      <point x="337" y="434" type="curve" smooth="yes"/>
    </contour>
    <contour>
      <point x="267" y="130" type="line"/>
      <point x="267" y="300" type="line"/>
      <point x="351" y="300" type="line" smooth="yes"/>
      <point x="434" y="300"/>
      <point x="475" y="277"/>
      <point x="475" y="218" type="curve" smooth="yes"/>
      <point x="475" y="159"/>
      <point x="434" y="130"/>
      <point x="351" y="130" type="curve" smooth="yes"/>
    </contour>
  </outline>
</glyph>
<glyph name="cid40020" format="2">
  <advance height="1000" width="600"/>
  <unicode hex="0046"/>
  <outline>
    <contour>
      <point x="84" y="-11" type="line"/>
      <point x="267" y="-11" type="line"/>
      <point x="267" y="265" type="line"/>
      <point x="515" y="265" type="line"/>
      <point x="515" y="418" type="line"/>
      <point x="267" y="418" type="line"/>
      <point x="267" y="571" type="line"/>
      <point x="557" y="571" type="line"/>
      <point x="557" y="725" type="line"/>
      <point x="84" y="725" type="line"/>
    </contour>
  </outline>
</glyph>
<glyph name="cid40026" format="2">
  <advance height="1000" width="582"/>
  <unicode hex="004A"/>
  <outline>
    <contour>
      <point x="247" y="-25" type="curve" smooth="yes"/>
      <point x="423" y="-25"/>
      <point x="503" y="97"/>
      <point x="503" y="247" type="curve" smooth="yes"/>
      <point x="503" y="725" type="line"/>
      <point x="320" y="725" type="line"/>
      <point x="320" y="261" type="line" smooth="yes"/>
      <point x="320" y="162"/>
      <point x="289" y="134"/>
      <point x="228" y="134" type="curve" smooth="yes"/>
      <point x="190" y="134"/>
      <point x="154" y="156"/>
      <point x="133" y="195" type="curve"/>
      <point x="18" y="116" type="line"/>
      <point x="67" y="18"/>
      <point x="140" y="-25"/>
    </contour>
  </outline>
</glyph>
<glyph name="cid40032" format="2">
  <advance height="1000" width="703"/>
  <unicode hex="004B"/>
  <outline>
    <contour>
      <point x="84" y="-11" type="line"/>
      <point x="267" y="-11" type="line"/>
      <point x="267" y="178" type="line"/>
      <point x="344" y="283" type="line"/>
      <point x="513" y="-11" type="line"/>
      <point x="713" y="-11" type="line"/>
      <point x="450" y="427" type="line"/>
      <point x="671" y="725" type="line"/>
      <point x="470" y="725" type="line"/>
      <point x="271" y="440" type="line"/>
      <point x="267" y="440" type="line"/>
      <point x="267" y="725" type="line"/>
      <point x="84" y="725" type="line"/>
    </contour>
  </outline>
</glyph>
<glyph name="cid40033" format="2">
  <advance height="1000" width="593"/>
  <unicode hex="004C"/>
  <outline>
    <contour>
      <point x="84" y="-11" type="line"/>
      <point x="550" y="-11" type="line"/>
      <point x="550" y="143" type="line"/>
      <point x="267" y="143" type="line"/>
      <point x="267" y="725" type="line"/>
      <point x="84" y="725" type="line"/>
    </contour>
  </outline>
</glyph>
<glyph name="cid40041" format="2">
  <advance height="1000" width="779"/>
  <unicode hex="0051"/>
  <outline>
    <contour>
      <point x="389" y="-25" type="curve" smooth="yes"/>
      <point x="591" y="-25"/>
      <point x="728" y="119"/>
      <point x="728" y="360" type="curve" smooth="yes"/>
      <point x="728" y="600"/>
      <point x="591" y="738"/>
      <point x="389" y="738" type="curve" smooth="yes"/>
      <point x="188" y="738"/>
      <point x="51" y="601"/>
      <point x="51" y="360" type="curve" smooth="yes"/>
      <point x="51" y="119"/>
      <point x="188" y="-25"/>
    </contour>
    <contour>
      <point x="389" y="125" type="curve" smooth="yes"/>
      <point x="296" y="125"/>
      <point x="238" y="210"/>
      <point x="238" y="360" type="curve" smooth="yes"/>
      <point x="238" y="499"/>
      <point x="296" y="580"/>
      <point x="389" y="580" type="curve" smooth="yes"/>
      <point x="483" y="580"/>
      <point x="540" y="499"/>
      <point x="540" y="360" type="curve" smooth="yes"/>
      <point x="540" y="210"/>
      <point x="483" y="125"/>
    </contour>
    <contour>
      <point x="635" y="-220" type="curve" smooth="yes"/>
      <point x="695" y="-220"/>
      <point x="744" y="-210"/>
      <point x="772" y="-194" type="curve"/>
      <point x="739" y="-64" type="line"/>
      <point x="718" y="-71"/>
      <point x="688" y="-75"/>
      <point x="657" y="-75" type="curve" smooth="yes"/>
      <point x="591" y="-75"/>
      <point x="514" y="-53"/>
      <point x="487" y="14" type="curve"/>
      <point x="302" y="-4" type="line"/>
      <point x="354" y="-130"/>
      <point x="469" y="-220"/>
    </contour>
  </outline>
</glyph>
<glyph name="cid40046" format="2">
  <advance height="1000" width="634"/>
  <unicode hex="0054"/>
  <outline>
    <contour>
      <point x="225" y="-11" type="line"/>
      <point x="408" y="-11" type="line"/>
      <point x="408" y="571" type="line"/>
      <point x="606" y="571" type="line"/>
      <point x="606" y="725" type="line"/>
      <point x="27" y="725" type="line"/>
      <point x="27" y="571" type="line"/>
      <point x="225" y="571" type="line"/>
    </contour>
  </outline>
</glyph>
<glyph name="cid40047" format="2">
  <advance height="1000" width="756"/>
  <unicode hex="0055"/>
  <outline>
    <contour>
      <point x="380" y="-25" type="curve" smooth="yes"/>
      <point x="580" y="-25"/>
      <point x="677" y="86"/>
      <point x="677" y="328" type="curve" smooth="yes"/>
      <point x="677" y="725" type="line"/>
      <point x="501" y="725" type="line"/>
      <point x="501" y="308" type="line" smooth="yes"/>
      <point x="501" y="179"/>
      <point x="459" y="134"/>
      <point x="380" y="134" type="curve" smooth="yes"/>
      <point x="301" y="134"/>
      <point x="262" y="179"/>
      <point x="262" y="308" type="curve" smooth="yes"/>
      <point x="262" y="725" type="line"/>
      <point x="79" y="725" type="line"/>
      <point x="79" y="328" type="line" smooth="yes"/>
      <point x="79" y="86"/>
      <point x="181" y="-25"/>
    </contour>
  </outline>
</glyph>
<glyph name="cid40050" format="2">
  <advance height="1000" width="640"/>
  <unicode hex="0056"/>
  <outline>
    <contour>
      <point x="205" y="-11" type="line"/>
      <point x="425" y="-11" type="line"/>
      <point x="649" y="725" type="line"/>
      <point x="462" y="725" type="line"/>
      <point x="377" y="395" type="line" smooth="yes"/>
      <point x="357" y="316"/>
      <point x="342" y="240"/>
      <point x="322" y="161" type="curve"/>
      <point x="318" y="161" type="line"/>
      <point x="296" y="240"/>
      <point x="280" y="316"/>
      <point x="261" y="395" type="curve" smooth="yes"/>
      <point x="183" y="725" type="line"/>
      <point x="-10" y="725" type="line"/>
    </contour>
  </outline>
</glyph>
<glyph name="cid40051" format="2">
  <advance height="1000" width="927"/>
  <unicode hex="0057"/>
  <outline>
    <contour>
      <point x="142" y="-11" type="line"/>
      <point x="372" y="-11" type="line"/>
      <point x="432" y="297" type="line" smooth="yes"/>
      <point x="443" y="354"/>
      <point x="451" y="414"/>
      <point x="459" y="472" type="curve"/>
      <point x="463" y="472" type="line"/>
      <point x="471" y="414"/>
      <point x="480" y="354"/>
      <point x="492" y="297" type="curve" smooth="yes"/>
      <point x="553" y="-11" type="line"/>
      <point x="785" y="-11" type="line"/>
      <point x="913" y="725" type="line"/>
      <point x="738" y="725" type="line"/>
      <point x="690" y="394" type="line"/>
      <point x="683" y="319"/>
      <point x="672" y="241"/>
      <point x="664" y="162" type="curve"/>
      <point x="660" y="162" type="line"/>
      <point x="646" y="241"/>
      <point x="633" y="320"/>
      <point x="618" y="394" type="curve" smooth="yes"/>
      <point x="548" y="725" type="line"/>
      <point x="391" y="725" type="line"/>
      <point x="316" y="394" type="line" smooth="yes"/>
      <point x="302" y="318"/>
      <point x="288" y="240"/>
      <point x="275" y="162" type="curve"/>
      <point x="270" y="162" type="line"/>
      <point x="262" y="240"/>
      <point x="253" y="317"/>
      <point x="244" y="394" type="curve" smooth="yes"/>
      <point x="201" y="725" type="line"/>
      <point x="12" y="725" type="line"/>
    </contour>
  </outline>
</glyph>
<glyph name="cid43222" format="2">
  <advance height="1000" width="380"/>
  <unicode hex="005C"/>
  <outline>
    <contour>
      <point x="246" y="-192" type="line"/>
      <point x="364" y="-192" type="line"/>
      <point x="154" y="791" type="line"/>
      <point x="36" y="791" type="line"/>
    </contour>
  </outline>
</glyph>
<glyph name="cid43212" format="2">
  <advance height="1000" width="400"/>
  <unicode hex="005D"/>
  <outline>
    <contour>
      <point x="57" y="-183" type="line"/>
      <point x="303" y="-183" type="line"/>
      <point x="303" y="789" type="line"/>
      <point x="57" y="789" type="line"/>
      <point x="57" y="693" type="line"/>
      <point x="167" y="693" type="line"/>
      <point x="167" y="-87" type="line"/>
      <point x="57" y="-87" type="line"/>
    </contour>
  </outline>
</glyph>
<glyph name="cid44816" format="2">
  <advance height="1000" width="605"/>
  <unicode hex="005E"/>
  <outline>
    <contour>
      <point x="54" y="296" type="line"/>
      <point x="203" y="296" type="line"/>
      <point x="250" y="429" type="line"/>
      <point x="301" y="582" type="line"/>
      <point x="305" y="582" type="line"/>
      <point x="355" y="429" type="line"/>
      <point x="401" y="296" type="line"/>
      <point x="551" y="296" type="line"/>
      <point x="375" y="746" type="line"/>
      <point x="229" y="746" type="line"/>
    </contour>
  </outline>
</glyph>
<glyph name="cid45017" format="2">
  <advance height="1000" width="631"/>
  <unicode hex="0060"/>
  <outline>
    <contour>
      <point x="277" y="633" type="line"/>
      <point x="416" y="633" type="line"/>
      <point x="288" y="844" type="line"/>
      <point x="97" y="844" type="line"/>
      <point x="86" y="825" type="line"/>
    </contour>
  </outline>
</glyph>
<glyph name="cid40066" format="2">
  <advance height="1000" width="398"/>
  <unicode hex="0066"/>
  <outline>
    <contour>
      <point x="101" y="-11" type="line"/>
      <point x="284" y="-11" type="line"/>
      <point x="284" y="574" type="line" smooth="yes"/>
      <point x="284" y="629"/>
      <point x="306" y="649"/>
      <point x="345" y="649" type="curve" smooth="yes"/>
      <point x="363" y="649"/>
      <point x="381" y="646"/>
      <point x="399" y="641" type="curve"/>
      <point x="434" y="771" type="line"/>
      <point x="409" y="780"/>
      <point x="367" y="791"/>
      <point x="318" y="791" type="curve" smooth="yes"/>
      <point x="156" y="791"/>
      <point x="101" y="688"/>
      <point x="101" y="568" type="curve" smooth="yes"/>
    </contour>
    <contour>
      <point x="17" y="409" type="line"/>
      <point x="381" y="409" type="line"/>
      <point x="381" y="552" type="line"/>
      <point x="113" y="552" type="line"/>
      <point x="17" y="546" type="line"/>
    </contour>
  </outline>
</glyph>
<glyph name="cid40070" format="2">
  <advance height="1000" width="320"/>
  <unicode hex="0069"/>
  <outline>
    <contour>
      <point x="69" y="-11" type="line"/>
      <point x="252" y="-11" type="line"/>
      <point x="252" y="552" type="line"/>
      <point x="69" y="552" type="line"/>
    </contour>
    <contour>
      <point x="160" y="627" type="curve" smooth="yes"/>
      <point x="220" y="627"/>
      <point x="262" y="664"/>
      <point x="262" y="720" type="curve" smooth="yes"/>
      <point x="262" y="777"/>
      <point x="220" y="813"/>
      <point x="160" y="813" type="curve" smooth="yes"/>
      <point x="101" y="813"/>
      <point x="59" y="777"/>
      <point x="59" y="720" type="curve" smooth="yes"/>
      <point x="59" y="664"/>
      <point x="101" y="627"/>
    </contour>
  </outline>
</glyph>
<glyph name="cid40073" format="2">
  <advance height="1000" width="633"/>
  <unicode hex="006B"/>
  <outline>
    <contour>
      <point x="69" y="-11" type="line"/>
      <point x="250" y="-11" type="line"/>
      <point x="250" y="128" type="line"/>
      <point x="311" y="197" type="line"/>
      <point x="429" y="-11" type="line"/>
      <point x="627" y="-11" type="line"/>
      <point x="417" y="317" type="line"/>
      <point x="615" y="552" type="line"/>
      <point x="415" y="552" type="line"/>
      <point x="254" y="347" type="line"/>
      <point x="250" y="347" type="line"/>
      <point x="250" y="778" type="line"/>
      <point x="69" y="778" type="line"/>
    </contour>
  </outline>
</glyph>
<glyph name="cid40092" format="2">
  <advance height="1000" width="605"/>
  <unicode hex="0076"/>
  <outline>
    <contour>
      <point x="200" y="-11" type="line"/>
      <point x="411" y="-11" type="line"/>
      <point x="591" y="552" type="line"/>
      <point x="417" y="552" type="line"/>
      <point x="350" y="299" type="line" smooth="yes"/>
      <point x="337" y="242"/>
      <point x="323" y="183"/>
      <point x="308" y="123" type="curve"/>
      <point x="304" y="123" type="line"/>
      <point x="290" y="183"/>
      <point x="277" y="242"/>
      <point x="262" y="299" type="curve" smooth="yes"/>
      <point x="197" y="552" type="line"/>
      <point x="14" y="552" type="line"/>
    </contour>
  </outline>
</glyph>
<glyph name="cid40099" format="2">
  <advance height="1000" width="529"/>
  <unicode hex="007A"/>
  <outline>
    <contour>
      <point x="44" y="-11" type="line"/>
      <point x="502" y="-11" type="line"/>
      <point x="502" y="131" type="line"/>
      <point x="271" y="131" type="line"/>
      <point x="495" y="455" type="line"/>
      <point x="495" y="552" type="line"/>
      <point x="70" y="552" type="line"/>
      <point x="70" y="409" type="line"/>
      <point x="267" y="409" type="line"/>
      <point x="44" y="87" type="line"/>
    </contour>
  </outline>
</glyph>
<glyph name="cid43215" format="2">
  <advance height="1000" width="400"/>
  <unicode hex="007B"/>
  <outline>
    <contour>
      <point x="268" y="-183" type="curve" smooth="yes"/>
      <point x="344" y="-183" type="line"/>
      <point x="344" y="-87" type="line"/>
      <point x="324" y="-87" type="line" smooth="yes"/>
      <point x="280" y="-87"/>
      <point x="268" y="-73"/>
      <point x="268" y="-13" type="curve" smooth="yes"/>
      <point x="268" y="46"/>
      <point x="272" y="100"/>
      <point x="272" y="166" type="curve" smooth="yes"/>
      <point x="272" y="255"/>
      <point x="243" y="287"/>
      <point x="184" y="301" type="curve"/>
      <point x="184" y="305" type="line"/>
      <point x="243" y="319"/>
      <point x="272" y="351"/>
      <point x="272" y="440" type="curve" smooth="yes"/>
      <point x="272" y="507"/>
      <point x="268" y="561"/>
      <point x="268" y="620" type="curve" smooth="yes"/>
      <point x="268" y="679"/>
      <point x="280" y="693"/>
      <point x="324" y="693" type="curve" smooth="yes"/>
      <point x="344" y="693" type="line"/>
      <point x="344" y="789" type="line"/>
      <point x="268" y="789" type="line" smooth="yes"/>
      <point x="165" y="789"/>
      <point x="121" y="749"/>
      <point x="121" y="625" type="curve" smooth="yes"/>
      <point x="121" y="546"/>
      <point x="131" y="510"/>
      <point x="131" y="439" type="curve" smooth="yes"/>
      <point x="131" y="399"/>
      <point x="107" y="359"/>
      <point x="34" y="356" type="curve"/>
      <point x="34" y="250" type="line"/>
      <point x="107" y="248"/>
      <point x="131" y="207"/>
      <point x="131" y="168" type="curve" smooth="yes"/>
      <point x="131" y="96"/>
      <point x="121" y="60"/>
      <point x="121" y="-19" type="curve" smooth="yes"/>
      <point x="121" y="-143"/>
      <point x="165" y="-183"/>
    </contour>
  </outline>
</glyph>
<glyph name="cid43216" format="2">
  <advance height="1000" width="400"/>
  <unicode hex="007D"/>
  <outline>
    <contour>
      <point x="57" y="-183" type="line"/>
      <point x="132" y="-183" type="line" smooth="yes"/>
      <point x="234" y="-183"/>
      <point x="279" y="-143"/>
      <point x="279" y="-19" type="curve" smooth="yes"/>
      <point x="279" y="60"/>
      <point x="268" y="96"/>
      <point x="268" y="168" type="curve" smooth="yes"/>
      <point x="268" y="207"/>
      <point x="293" y="248"/>
      <point x="365" y="250" type="curve"/>
      <point x="365" y="356" type="line"/>
      <point x="293" y="359"/>
      <point x="268" y="399"/>
      <point x="268" y="439" type="curve" smooth="yes"/>
      <point x="268" y="510"/>
      <point x="279" y="546"/>
      <point x="279" y="625" type="curve" smooth="yes"/>
      <point x="279" y="749"/>
      <point x="234" y="789"/>
      <point x="132" y="789" type="curve" smooth="yes"/>
      <point x="57" y="789" type="line"/>
      <point x="57" y="693" type="line"/>
      <point x="76" y="693" type="line" smooth="yes"/>
      <point x="120" y="693"/>
      <point x="132" y="679"/>
      <point x="132" y="620" type="curve" smooth="yes"/>
      <point x="132" y="561"/>
      <point x="128" y="507"/>
      <point x="128" y="440" type="curve" smooth="yes"/>
      <point x="128" y="351"/>
      <point x="157" y="319"/>
      <point x="216" y="305" type="curve"/>
      <point x="216" y="301" type="line"/>
      <point x="157" y="287"/>
      <point x="128" y="255"/>
      <point x="128" y="166" type="curve" smooth="yes"/>
      <point x="128" y="100"/>
      <point x="132" y="46"/>
      <point x="132" y="-13" type="curve" smooth="yes"/>
      <point x="132" y="-73"/>
      <point x="120" y="-87"/>
      <point x="76" y="-87" type="curve" smooth="yes"/>
      <point x="57" y="-87" type="line"/>
    </contour>
  </outline>
</glyph>
<glyph name="cid44830" format="2">
  <advance height="1000" width="605"/>
  <unicode hex="007E"/>
  <outline>
    <contour>
      <point x="398" y="257" type="curve" smooth="yes"/>
      <point x="455" y="257"/>
      <point x="515" y="287"/>
      <point x="574" y="375" type="curve"/>
      <point x="480" y="449" type="line"/>
      <point x="457" y="409"/>
      <point x="431" y="385"/>
      <point x="400" y="385" type="curve" smooth="yes"/>
      <point x="339" y="385"/>
      <point x="302" y="467"/>
      <point x="207" y="467" type="curve" smooth="yes"/>
      <point x="149" y="467"/>
      <point x="89" y="436"/>
      <point x="31" y="347" type="curve"/>
      <point x="124" y="275" type="line"/>
      <point x="148" y="314"/>
      <point x="175" y="339"/>
      <point x="205" y="339" type="curve" smooth="yes"/>
      <point x="266" y="339"/>
      <point x="304" y="257"/>
    </contour>
  </outline>
</glyph>
<glyph name="cid42998" format="2">
  <advance height="1000" width="398"/>
  <unicode hex="00A1"/>
  <outline>
    <contour>
      <point x="107" y="-205" type="line"/>
      <point x="290" y="-205" type="line"/>
      <point x="284" y="-45" type="line"/>
      <point x="259" y="283" type="line"/>
      <point x="139" y="283" type="line"/>
      <point x="114" y="-45" type="line"/>
    </contour>
    <contour>
      <point x="199" y="342" type="curve" smooth="yes"/>
      <point x="261" y="342"/>
      <point x="306" y="390"/>
      <point x="306" y="453" type="curve" smooth="yes"/>
      <point x="306" y="517"/>
      <point x="261" y="565"/>
      <point x="199" y="565" type="curve" smooth="yes"/>
      <point x="137" y="565"/>
      <point x="92" y="517"/>
      <point x="92" y="453" type="curve" smooth="yes"/>
      <point x="92" y="390"/>
      <point x="137" y="342"/>
    </contour>
  </outline>
</glyph>
<glyph name="cid44632" format="2">
  <advance height="1000" width="605"/>
  <unicode hex="00A2"/>
  <outline>
    <contour>
      <point x="371" y="42" type="curve" smooth="yes"/>
      <point x="431" y="42"/>
      <point x="504" y="64"/>
      <point x="559" y="112" type="curve"/>
      <point x="486" y="227" type="line"/>
      <point x="461" y="208"/>
      <point x="429" y="189"/>
      <point x="392" y="189" type="curve" smooth="yes"/>
      <point x="297" y="189"/>
      <point x="244" y="246"/>
      <point x="244" y="335" type="curve" smooth="yes"/>
      <point x="244" y="425"/>
      <point x="293" y="482"/>
      <point x="398" y="482" type="curve" smooth="yes"/>
      <point x="420" y="482"/>
      <point x="443" y="474"/>
      <point x="469" y="452" type="curve"/>
      <point x="551" y="565" type="line"/>
      <point x="514" y="603"/>
      <point x="455" y="629"/>
      <point x="388" y="629" type="curve" smooth="yes"/>
      <point x="208" y="629"/>
      <point x="68" y="521"/>
      <point x="68" y="335" type="curve" smooth="yes"/>
      <point x="68" y="149"/>
      <point x="189" y="42"/>
    </contour>
    <contour>
      <point x="314" y="-60" type="line"/>
      <point x="412" y="-60" type="line"/>
      <point x="412" y="730" type="line"/>
      <point x="314" y="730" type="line"/>
    </contour>
  </outline>
</glyph>
<glyph name="cid44625" format="2">
  <advance height="1000" width="605"/>
  <unicode hex="00A3"/>
  <outline>
    <contour>
      <point x="53" y="-11" type="line"/>
      <point x="573" y="-11" type="line"/>
      <point x="573" y="143" type="line"/>
      <point x="286" y="143" type="line"/>
      <point x="286" y="147" type="line"/>
      <point x="320" y="187"/>
      <point x="332" y="218"/>
      <point x="332" y="267" type="curve" smooth="yes"/>
      <point x="332" y="340"/>
      <point x="299" y="406"/>
      <point x="299" y="472" type="curve" smooth="yes"/>
      <point x="299" y="538"/>
      <point x="337" y="572"/>
      <point x="393" y="572" type="curve" smooth="yes"/>
      <point x="427" y="572"/>
      <point x="453" y="560"/>
      <point x="479" y="530" type="curve"/>
      <point x="573" y="622" type="line"/>
      <point x="529" y="679"/>
      <point x="464" y="719"/>
      <point x="371" y="719" type="curve" smooth="yes"/>
      <point x="231" y="719"/>
      <point x="124" y="629"/>
      <point x="124" y="482" type="curve" smooth="yes"/>
      <point x="124" y="416"/>
      <point x="173" y="338"/>
      <point x="173" y="269" type="curve" smooth="yes"/>
      <point x="173" y="189"/>
      <point x="118" y="130"/>
      <point x="53" y="102" type="curve"/>
    </contour>
    <contour>
      <point x="59" y="292" type="line"/>
      <point x="472" y="292" type="line"/>
      <point x="472" y="404" type="line"/>
      <point x="136" y="404" type="line"/>
      <point x="59" y="397" type="line"/>
    </contour>
  </outline>
</glyph>
<glyph name="cid44628" format="2">
  <advance height="1000" width="605"/>
  <unicode hex="00A5"/>
  <outline>
    <contour>
      <point x="211" y="-11" type="line"/>
      <point x="393" y="-11" type="line"/>
      <point x="393" y="148" type="line"/>
      <point x="565" y="148" type="line"/>
      <point x="565" y="240" type="line"/>
      <point x="393" y="240" type="line"/>
      <point x="393" y="292" type="line"/>
      <point x="565" y="292" type="line"/>
      <point x="565" y="383" type="line"/>
      <point x="433" y="383" type="line"/>
      <point x="593" y="705" type="line"/>
      <point x="410" y="705" type="line"/>
      <point x="360" y="565" type="line" smooth="yes"/>
      <point x="344" y="517"/>
      <point x="324" y="467"/>
      <point x="306" y="418" type="curve"/>
      <point x="302" y="418" type="line"/>
      <point x="284" y="466"/>
      <point x="266" y="516"/>
      <point x="249" y="565" type="curve" smooth="yes"/>
      <point x="199" y="705" type="line"/>
      <point x="11" y="705" type="line"/>
      <point x="172" y="383" type="line"/>
      <point x="40" y="383" type="line"/>
      <point x="40" y="292" type="line"/>
      <point x="211" y="292" type="line"/>
      <point x="211" y="240" type="line"/>
      <point x="40" y="240" type="line"/>
      <point x="40" y="148" type="line"/>
      <point x="211" y="148" type="line"/>
    </contour>
  </outline>
</glyph>
<glyph name="cid43224" format="2">
  <advance height="1000" width="310"/>
  <unicode hex="00A6"/>
  <outline>
    <contour>
      <point x="96" y="347" type="line"/>
      <point x="214" y="347" type="line"/>
      <point x="214" y="837" type="line"/>
      <point x="96" y="837" type="line"/>
    </contour>
    <contour>
      <point x="96" y="-293" type="line"/>
      <point x="214" y="-293" type="line"/>
      <point x="214" y="217" type="line"/>
      <point x="96" y="217" type="line"/>
    </contour>
  </outline>
</glyph>
<glyph name="cid45029" format="2">
  <advance height="1000" width="631"/>
  <unicode hex="00A8"/>
  <outline>
    <contour>
      <point x="189" y="627" type="curve" smooth="yes"/>
      <point x="240" y="627"/>
      <point x="276" y="665"/>
      <point x="276" y="713" type="curve" smooth="yes"/>
      <point x="276" y="762"/>
      <point x="240" y="800"/>
      <point x="189" y="800" type="curve" smooth="yes"/>
      <point x="138" y="800"/>
      <point x="102" y="762"/>
      <point x="102" y="713" type="curve" smooth="yes"/>
      <point x="102" y="665"/>
      <point x="138" y="627"/>
    </contour>
    <contour>
      <point x="442" y="627" type="curve" smooth="yes"/>
      <point x="493" y="627"/>
      <point x="529" y="665"/>
      <point x="529" y="713" type="curve" smooth="yes"/>
      <point x="529" y="762"/>
      <point x="493" y="800"/>
      <point x="442" y="800" type="curve" smooth="yes"/>
      <point x="391" y="800"/>
      <point x="355" y="762"/>
      <point x="355" y="713" type="curve" smooth="yes"/>
      <point x="355" y="665"/>
      <point x="391" y="627"/>
    </contour>
  </outline>
</glyph>
<glyph name="cid43128" format="2">
  <advance height="1000" width="556"/>
  <unicode hex="00AB"/>
  <outline>
    <contour>
      <point x="208" y="50" type="line"/>
      <point x="275" y="103" type="line"/>
      <point x="151" y="274" type="line"/>
      <point x="275" y="444" type="line"/>
      <point x="208" y="498" type="line"/>
      <point x="55" y="338" type="line"/>
      <point x="55" y="209" type="line"/>
    </contour>
    <contour>
      <point x="428" y="50" type="line"/>
      <point x="495" y="103" type="line"/>
      <point x="372" y="274" type="line"/>
      <point x="495" y="444" type="line"/>
      <point x="428" y="498" type="line"/>
      <point x="276" y="338" type="line"/>
      <point x="276" y="209" type="line"/>
    </contour>
  </outline>
</glyph>
<glyph name="cid44836" format="2">
  <advance height="1000" width="605"/>
  <unicode hex="00AC"/>
  <outline>
    <contour>
      <point x="434" y="93" type="line"/>
      <point x="566" y="93" type="line"/>
      <point x="566" y="426" type="line"/>
      <point x="38" y="426" type="line"/>
      <point x="38" y="297" type="line"/>
      <point x="434" y="297" type="line"/>
    </contour>
  </outline>
</glyph>
<glyph name="cid43283" format="2">
  <advance height="1000" width="532"/>
  <unicode hex="00AE"/>
  <outline>
    <contour>
      <point x="266" y="338" type="curve" smooth="yes"/>
      <point x="391" y="338"/>
      <point x="492" y="435"/>
      <point x="492" y="568" type="curve" smooth="yes"/>
      <point x="492" y="701"/>
      <point x="391" y="798"/>
      <point x="266" y="798" type="curve" smooth="yes"/>
      <point x="140" y="798"/>
      <point x="40" y="701"/>
      <point x="40" y="568" type="curve" smooth="yes"/>
      <point x="40" y="435"/>
      <point x="140" y="338"/>
    </contour>
    <contour>
      <point x="266" y="397" type="curve" smooth="yes"/>
      <point x="171" y="397"/>
      <point x="104" y="464"/>
      <point x="104" y="568" type="curve" smooth="yes"/>
      <point x="104" y="673"/>
      <point x="171" y="739"/>
      <point x="266" y="739" type="curve" smooth="yes"/>
      <point x="360" y="739"/>
      <point x="427" y="673"/>
      <point x="427" y="568" type="curve" smooth="yes"/>
      <point x="427" y="464"/>
      <point x="360" y="397"/>
    </contour>
    <contour>
      <point x="172" y="459" type="line"/>
      <point x="242" y="459" type="line"/>
      <point x="242" y="525" type="line"/>
      <point x="271" y="525" type="line"/>
      <point x="303" y="459" type="line"/>
      <point x="375" y="459" type="line"/>
      <point x="329" y="544" type="line"/>
      <point x="356" y="557"/>
      <point x="368" y="580"/>
      <point x="368" y="605" type="curve" smooth="yes"/>
      <point x="368" y="656"/>
      <point x="330" y="679"/>
      <point x="276" y="679" type="curve" smooth="yes"/>
      <point x="172" y="679" type="line"/>
    </contour>
    <contour>
      <point x="242" y="572" type="line"/>
      <point x="242" y="629" type="line"/>
      <point x="263" y="629" type="line" smooth="yes"/>
      <point x="283" y="629"/>
      <point x="295" y="616"/>
      <point x="295" y="600" type="curve" smooth="yes"/>
      <point x="295" y="586"/>
      <point x="285" y="572"/>
      <point x="263" y="572" type="curve" smooth="yes"/>
    </contour>
  </outline>
</glyph>
<glyph name="cid45031" format="2">
  <advance height="1000" width="631"/>
  <unicode hex="00AF"/>
  <outline>
    <contour>
      <point x="144" y="655" type="line"/>
      <point x="487" y="655" type="line"/>
      <point x="487" y="771" type="line"/>
      <point x="144" y="771" type="line"/>
    </contour>
  </outline>
</glyph>
<glyph name="cid44853" format="2">
  <advance height="1000" width="421"/>
  <unicode hex="00B0"/>
  <outline>
    <contour>
      <point x="211" y="431" type="curve" smooth="yes"/>
      <point x="306" y="431"/>
      <point x="380" y="501"/>
      <point x="380" y="597" type="curve" smooth="yes"/>
      <point x="380" y="693"/>
      <point x="306" y="764"/>
      <point x="211" y="764" type="curve" smooth="yes"/>
      <point x="116" y="764"/>
      <point x="43" y="693"/>
      <point x="43" y="597" type="curve" smooth="yes"/>
      <point x="43" y="501"/>
      <point x="116" y="431"/>
    </contour>
    <contour>
      <point x="211" y="517" type="curve" smooth="yes"/>
      <point x="168" y="517"/>
      <point x="138" y="549"/>
      <point x="138" y="597" type="curve" smooth="yes"/>
      <point x="138" y="646"/>
      <point x="168" y="678"/>
      <point x="211" y="678" type="curve" smooth="yes"/>
      <point x="255" y="678"/>
      <point x="286" y="646"/>
      <point x="286" y="597" type="curve" smooth="yes"/>
      <point x="286" y="549"/>
      <point x="255" y="517"/>
    </contour>
  </outline>
</glyph>
<glyph name="cid44814" format="2">
  <advance height="1000" width="605"/>
  <unicode hex="00B1"/>
  <outline>
    <contour>
      <point x="236" y="177" type="line"/>
      <point x="368" y="177" type="line"/>
      <point x="368" y="319" type="line"/>
      <point x="566" y="319" type="line"/>
      <point x="566" y="447" type="line"/>
      <point x="368" y="447" type="line"/>
      <point x="368" y="631" type="line"/>
      <point x="236" y="631" type="line"/>
      <point x="236" y="447" type="line"/>
      <point x="38" y="447" type="line"/>
      <point x="38" y="319" type="line"/>
      <point x="236" y="319" type="line"/>
    </contour>
    <contour>
      <point x="38" y="-11" type="line"/>
      <point x="566" y="-11" type="line"/>
      <point x="566" y="117" type="line"/>
      <point x="38" y="117" type="line"/>
    </contour>
  </outline>
</glyph>
<glyph name="cid44404" format="2">
  <advance height="1000" width="428"/>
  <unicode hex="00B2"/>
  <outline>
    <contour>
      <point x="49" y="408" type="line"/>
      <point x="382" y="408" type="line"/>
      <point x="382" y="519" type="line"/>
      <point x="260" y="519" type="line"/>
      <point x="315" y="582"/>
      <point x="367" y="643"/>
      <point x="367" y="712" type="curve" smooth="yes"/>
      <point x="367" y="807"/>
      <point x="301" y="862"/>
      <point x="200" y="862" type="curve" smooth="yes"/>
      <point x="131" y="862"/>
      <point x="75" y="832"/>
      <point x="27" y="771" type="curve"/>
      <point x="102" y="702" type="line"/>
      <point x="127" y="734"/>
      <point x="150" y="753"/>
      <point x="179" y="753" type="curve" smooth="yes"/>
      <point x="217" y="753"/>
      <point x="238" y="729"/>
      <point x="238" y="688" type="curve" smooth="yes"/>
      <point x="238" y="638"/>
      <point x="156" y="565"/>
      <point x="49" y="479" type="curve"/>
    </contour>
  </outline>
</glyph>
<glyph name="cid45020" format="2">
  <advance height="1000" width="631"/>
  <unicode hex="00B4"/>
  <outline>
    <contour>
      <point x="215" y="633" type="line"/>
      <point x="354" y="633" type="line"/>
      <point x="545" y="825" type="line"/>
      <point x="533" y="844" type="line"/>
      <point x="342" y="844" type="line"/>
    </contour>
  </outline>
</glyph>
<glyph name="cid43234" format="2">
  <advance height="1000" width="739"/>
  <unicode hex="00B6"/>
  <outline>
    <contour>
      <point x="447" y="-101" type="line"/>
      <point x="631" y="-101" type="line"/>
      <point x="631" y="725" type="line"/>
      <point x="447" y="725" type="line"/>
    </contour>
    <contour>
      <point x="336" y="205" type="curve" smooth="yes"/>
      <point x="384" y="205" type="line"/>
      <point x="384" y="725" type="line"/>
      <point x="334" y="725" type="line" smooth="yes"/>
      <point x="176" y="725"/>
      <point x="43" y="662"/>
      <point x="43" y="470" type="curve" smooth="yes"/>
      <point x="43" y="296"/>
      <point x="177" y="205"/>
    </contour>
  </outline>
</glyph>
<glyph name="cid43152" format="2">
  <advance height="1000" width="353"/>
  <unicode hex="00B7"/>
  <outline>
    <contour>
      <point x="176" y="239" type="curve" smooth="yes"/>
      <point x="238" y="239"/>
      <point x="284" y="288"/>
      <point x="284" y="351" type="curve" smooth="yes"/>
      <point x="284" y="414"/>
      <point x="238" y="464"/>
      <point x="176" y="464" type="curve" smooth="yes"/>
      <point x="114" y="464"/>
      <point x="69" y="414"/>
      <point x="69" y="351" type="curve" smooth="yes"/>
      <point x="69" y="288"/>
      <point x="114" y="239"/>
    </contour>
  </outline>
</glyph>
<glyph name="cid45045" format="2">
  <advance height="1000" width="631"/>
  <unicode hex="00B8"/>
  <outline>
    <contour>
      <point x="197" y="-284" type="line"/>
      <point x="342" y="-280"/>
      <point x="428" y="-244"/>
      <point x="428" y="-165" type="curve" smooth="yes"/>
      <point x="428" y="-117"/>
      <point x="399" y="-92"/>
      <point x="341" y="-79" type="curve"/>
      <point x="373" y="-6" type="line"/>
      <point x="268" y="-6" type="line"/>
      <point x="212" y="-118" type="line"/>
      <point x="281" y="-127"/>
      <point x="298" y="-143"/>
      <point x="298" y="-165" type="curve" smooth="yes"/>
      <point x="298" y="-196"/>
      <point x="271" y="-209"/>
      <point x="184" y="-213" type="curve"/>
    </contour>
  </outline>
</glyph>
<glyph name="cid44403" format="2">
  <advance height="1000" width="428"/>
  <unicode hex="00B9"/>
  <outline>
    <contour>
      <point x="184" y="408" type="line"/>
      <point x="319" y="408" type="line"/>
      <point x="319" y="849" type="line"/>
      <point x="214" y="849" type="line"/>
      <point x="174" y="822"/>
      <point x="147" y="808"/>
      <point x="84" y="799" type="curve"/>
      <point x="84" y="718" type="line"/>
      <point x="184" y="718" type="line"/>
    </contour>
  </outline>
</glyph>
<glyph name="cid43129" format="2">
  <advance height="1000" width="556"/>
  <unicode hex="00BB"/>
  <outline>
    <contour>
      <point x="128" y="50" type="line"/>
      <point x="279" y="209" type="line"/>
      <point x="279" y="338" type="line"/>
      <point x="128" y="498" type="line"/>
      <point x="61" y="444" type="line"/>
      <point x="184" y="274" type="line"/>
      <point x="61" y="103" type="line"/>
    </contour>
    <contour>
      <point x="348" y="50" type="line"/>
      <point x="499" y="209" type="line"/>
      <point x="499" y="338" type="line"/>
      <point x="348" y="498" type="line"/>
      <point x="281" y="444" type="line"/>
      <point x="405" y="274" type="line"/>
      <point x="281" y="103" type="line"/>
    </contour>
  </outline>
</glyph>
<glyph name="cid44730" format="2">
  <advance height="1000" width="922"/>
  <unicode hex="00BC"/>
  <outline>
    <contour>
      <point x="149" y="284" type="line"/>
      <point x="284" y="284" type="line"/>
      <point x="284" y="725" type="line"/>
      <point x="179" y="725" type="line"/>
      <point x="139" y="698"/>
      <point x="112" y="684"/>
      <point x="49" y="675" type="curve"/>
      <point x="49" y="594" type="line"/>
      <point x="149" y="594" type="line"/>
    </contour>
    <contour>
      <point x="212" y="-25" type="line"/>
      <point x="315" y="-25" type="line"/>
      <point x="711" y="738" type="line"/>
      <point x="607" y="738" type="line"/>
    </contour>
    <contour>
      <point x="735" y="-11" type="line"/>
      <point x="852" y="-11" type="line"/>
      <point x="852" y="430" type="line"/>
      <point x="685" y="430" type="line"/>
      <point x="531" y="148" type="line"/>
      <point x="531" y="83" type="line"/>
      <point x="918" y="83" type="line"/>
      <point x="918" y="169" type="line"/>
      <point x="652" y="169" type="line"/>
      <point x="694" y="256" type="line"/>
      <point x="737" y="342" type="line"/>
      <point x="741" y="342" type="line"/>
      <point x="735" y="207" type="line"/>
    </contour>
  </outline>
</glyph>
<glyph name="cid44732" format="2">
  <advance height="1000" width="930"/>
  <unicode hex="00BE"/>
  <outline>
    <contour>
      <point x="207" y="270" type="curve" smooth="yes"/>
      <point x="298" y="270"/>
      <point x="381" y="326"/>
      <point x="381" y="407" type="curve" smooth="yes"/>
      <point x="381" y="458"/>
      <point x="348" y="494"/>
      <point x="304" y="514" type="curve"/>
      <point x="344" y="538"/>
      <point x="365" y="569"/>
      <point x="365" y="615" type="curve" smooth="yes"/>
      <point x="365" y="691"/>
      <point x="292" y="738"/>
      <point x="209" y="738" type="curve" smooth="yes"/>
      <point x="138" y="738"/>
      <point x="93" y="714"/>
      <point x="42" y="661" type="curve"/>
      <point x="118" y="596" type="line"/>
      <point x="136" y="618"/>
      <point x="158" y="638"/>
      <point x="185" y="638" type="curve" smooth="yes"/>
      <point x="215" y="638"/>
      <point x="235" y="622"/>
      <point x="235" y="596" type="curve" smooth="yes"/>
      <point x="235" y="561"/>
      <point x="202" y="546"/>
      <point x="153" y="546" type="curve"/>
      <point x="153" y="472" type="line"/>
      <point x="220" y="472"/>
      <point x="251" y="453"/>
      <point x="251" y="418" type="curve" smooth="yes"/>
      <point x="251" y="388"/>
      <point x="225" y="371"/>
      <point x="192" y="371" type="curve" smooth="yes"/>
      <point x="157" y="371"/>
      <point x="131" y="386"/>
      <point x="104" y="423" type="curve"/>
      <point x="24" y="361" type="line"/>
      <point x="64" y="301"/>
      <point x="129" y="270"/>
    </contour>
    <contour>
      <point x="233" y="-25" type="line"/>
      <point x="336" y="-25" type="line"/>
      <point x="731" y="738" type="line"/>
      <point x="627" y="738" type="line"/>
    </contour>
    <contour>
      <point x="742" y="-11" type="line"/>
      <point x="860" y="-11" type="line"/>
      <point x="860" y="430" type="line"/>
      <point x="693" y="430" type="line"/>
      <point x="539" y="148" type="line"/>
      <point x="539" y="83" type="line"/>
      <point x="925" y="83" type="line"/>
      <point x="925" y="169" type="line"/>
      <point x="660" y="169" type="line"/>
      <point x="702" y="256" type="line"/>
      <point x="745" y="342" type="line"/>
      <point x="749" y="342" type="line"/>
      <point x="742" y="207" type="line"/>
    </contour>
  </outline>
</glyph>
<glyph name="cid43005" format="2">
  <advance height="1000" width="533"/>
  <unicode hex="00BF"/>
  <outline>
    <contour>
      <point x="266" y="-219" type="curve" smooth="yes"/>
      <point x="356" y="-219"/>
      <point x="431" y="-176"/>
      <point x="486" y="-114" type="curve"/>
      <point x="386" y="-22" type="line"/>
      <point x="356" y="-51"/>
      <point x="329" y="-72"/>
      <point x="289" y="-72" type="curve" smooth="yes"/>
      <point x="251" y="-72"/>
      <point x="220" y="-52"/>
      <point x="220" y="-9" type="curve" smooth="yes"/>
      <point x="220" y="69"/>
      <point x="383" y="133"/>
      <point x="360" y="283" type="curve"/>
      <point x="201" y="283" type="line"/>
      <point x="214" y="154"/>
      <point x="46" y="116"/>
      <point x="46" y="-21" type="curve" smooth="yes"/>
      <point x="46" y="-160"/>
      <point x="142" y="-219"/>
    </contour>
    <contour>
      <point x="281" y="342" type="curve" smooth="yes"/>
      <point x="344" y="342"/>
      <point x="390" y="390"/>
      <point x="390" y="453" type="curve" smooth="yes"/>
      <point x="390" y="517"/>
      <point x="344" y="565"/>
      <point x="281" y="565" type="curve" smooth="yes"/>
      <point x="219" y="565"/>
      <point x="174" y="517"/>
      <point x="174" y="453" type="curve" smooth="yes"/>
      <point x="174" y="390"/>
      <point x="219" y="342"/>
    </contour>
  </outline>
</glyph>
<glyph name="cid40105" format="2">
  <advance height="1000" width="654"/>
  <unicode hex="00C3"/>
  <outline>
    <contour>
      <point x="-10" y="-11" type="line"/>
      <point x="177" y="-11" type="line"/>
      <point x="267" y="353" type="line" smooth="yes"/>
      <point x="286" y="424"/>
      <point x="304" y="511"/>
      <point x="321" y="587" type="curve"/>
      <point x="325" y="587" type="line"/>
      <point x="345" y="512"/>
      <point x="363" y="424"/>
      <point x="382" y="353" type="curve" smooth="yes"/>
      <point x="471" y="-11" type="line"/>
      <point x="664" y="-11" type="line"/>
      <point x="437" y="725" type="line"/>
      <point x="217" y="725" type="line"/>
    </contour>
    <contour>
      <point x="148" y="153" type="line"/>
      <point x="505" y="153" type="line"/>
      <point x="505" y="294" type="line"/>
      <point x="148" y="294" type="line"/>
    </contour>
    <contour>
      <point x="406" y="768" type="curve" smooth="yes"/>
      <point x="486" y="768"/>
      <point x="548" y="815"/>
      <point x="555" y="935" type="curve"/>
      <point x="437" y="944" type="line"/>
      <point x="433" y="904"/>
      <point x="418" y="893"/>
      <point x="399" y="893" type="curve" smooth="yes"/>
      <point x="365" y="893"/>
      <point x="325" y="954"/>
      <point x="245" y="954" type="curve" smooth="yes"/>
      <point x="165" y="954"/>
      <point x="103" y="907"/>
      <point x="96" y="787" type="curve"/>
      <point x="214" y="778" type="line"/>
      <point x="218" y="817"/>
      <point x="233" y="829"/>
      <point x="252" y="829" type="curve" smooth="yes"/>
      <point x="286" y="829"/>
      <point x="325" y="768"/>
    </contour>
  </outline>
</glyph>
<glyph name="cid40106" format="2">
  <advance height="1000" width="654"/>
  <unicode hex="00C4"/>
  <outline>
    <contour>
      <point x="-10" y="-11" type="line"/>
      <point x="177" y="-11" type="line"/>
      <point x="267" y="353" type="line" smooth="yes"/>
      <point x="286" y="424"/>
      <point x="304" y="511"/>
      <point x="321" y="587" type="curve"/>
      <point x="325" y="587" type="line"/>
      <point x="345" y="512"/>
      <point x="363" y="424"/>
      <point x="382" y="353" type="curve" smooth="yes"/>
      <point x="471" y="-11" type="line"/>
      <point x="664" y="-11" type="line"/>
      <point x="437" y="725" type="line"/>
      <point x="217" y="725" type="line"/>
    </contour>
    <contour>
      <point x="148" y="153" type="line"/>
      <point x="505" y="153" type="line"/>
      <point x="505" y="294" type="line"/>
      <point x="148" y="294" type="line"/>
    </contour>
    <contour>
      <point x="198" y="775" type="curve" smooth="yes"/>
      <point x="247" y="775"/>
      <point x="283" y="813"/>
      <point x="283" y="860" type="curve" smooth="yes"/>
      <point x="283" y="908"/>
      <point x="247" y="945"/>
      <point x="198" y="945" type="curve" smooth="yes"/>
      <point x="148" y="945"/>
      <point x="114" y="908"/>
      <point x="114" y="860" type="curve" smooth="yes"/>
      <point x="114" y="813"/>
      <point x="148" y="775"/>
    </contour>
    <contour>
      <point x="453" y="775" type="curve" smooth="yes"/>
      <point x="503" y="775"/>
      <point x="537" y="813"/>
      <point x="537" y="860" type="curve" smooth="yes"/>
      <point x="537" y="908"/>
      <point x="503" y="945"/>
      <point x="453" y="945" type="curve" smooth="yes"/>
      <point x="403" y="945"/>
      <point x="368" y="908"/>
      <point x="368" y="860" type="curve" smooth="yes"/>
      <point x="368" y="813"/>
      <point x="403" y="775"/>
    </contour>
  </outline>
</glyph>
<glyph name="cid40160" format="2">
  <advance height="1000" width="660"/>
  <unicode hex="00C7"/>
  <outline>
    <contour>
      <point x="402" y="-25" type="curve" smooth="yes"/>
      <point x="493" y="-25"/>
      <point x="571" y="9"/>
      <point x="636" y="82" type="curve"/>
      <point x="545" y="190" type="line"/>
      <point x="513" y="159"/>
      <point x="469" y="134"/>
      <point x="415" y="134" type="curve" smooth="yes"/>
      <point x="310" y="134"/>
      <point x="238" y="215"/>
      <point x="238" y="357" type="curve" smooth="yes"/>
      <point x="238" y="495"/>
      <point x="316" y="580"/>
      <point x="407" y="580" type="curve" smooth="yes"/>
      <point x="458" y="580"/>
      <point x="496" y="563"/>
      <point x="532" y="530" type="curve"/>
      <point x="628" y="641" type="line"/>
      <point x="577" y="695"/>
      <point x="498" y="738"/>
      <point x="402" y="738" type="curve" smooth="yes"/>
      <point x="217" y="738"/>
      <point x="51" y="597"/>
      <point x="51" y="352" type="curve" smooth="yes"/>
      <point x="51" y="102"/>
      <point x="212" y="-25"/>
    </contour>
    <contour>
      <point x="275" y="-284" type="line"/>
      <point x="420" y="-280"/>
      <point x="506" y="-244"/>
      <point x="506" y="-165" type="curve" smooth="yes"/>
      <point x="506" y="-117"/>
      <point x="477" y="-92"/>
      <point x="419" y="-79" type="curve"/>
      <point x="451" y="-6" type="line"/>
      <point x="346" y="-6" type="line"/>
      <point x="290" y="-118" type="line"/>
      <point x="359" y="-127"/>
      <point x="376" y="-143"/>
      <point x="376" y="-165" type="curve" smooth="yes"/>
      <point x="376" y="-196"/>
      <point x="349" y="-209"/>
      <point x="262" y="-213" type="curve"/>
    </contour>
  </outline>
</glyph>
<glyph name="cid40185" format="2">
  <advance height="1000" width="625"/>
  <unicode hex="00CA"/>
  <outline>
    <contour>
      <point x="84" y="-11" type="line"/>
      <point x="564" y="-11" type="line"/>
      <point x="564" y="143" type="line"/>
      <point x="267" y="143" type="line"/>
      <point x="267" y="290" type="line"/>
      <point x="511" y="290" type="line"/>
      <point x="511" y="442" type="line"/>
      <point x="267" y="442" type="line"/>
      <point x="267" y="571" type="line"/>
      <point x="553" y="571" type="line"/>
      <point x="553" y="725" type="line"/>
      <point x="84" y="725" type="line"/>
    </contour>
    <contour>
      <point x="85" y="781" type="line"/>
      <point x="224" y="781" type="line"/>
      <point x="325" y="857" type="line"/>
      <point x="330" y="857" type="line"/>
      <point x="432" y="781" type="line"/>
      <point x="571" y="781" type="line"/>
      <point x="423" y="959" type="line"/>
      <point x="233" y="959" type="line"/>
    </contour>
  </outline>
</glyph>
<glyph name="cid40248" format="2">
  <advance height="1000" width="350"/>
  <unicode hex="00CC"/>
  <outline>
    <contour>
      <point x="84" y="-11" type="line"/>
      <point x="267" y="-11" type="line"/>
      <point x="267" y="725" type="line"/>
      <point x="84" y="725" type="line"/>
    </contour>
    <contour>
      <point x="128" y="781" type="line"/>
      <point x="278" y="781" type="line"/>
      <point x="140" y="959" type="line"/>
      <point x="-63" y="959" type="line"/>
      <point x="-73" y="939" type="line"/>
    </contour>
  </outline>
</glyph>
<glyph name="cid40251" format="2">
  <advance height="1000" width="350"/>
  <unicode hex="00CE"/>
  <outline>
    <contour>
      <point x="84" y="-11" type="line"/>
      <point x="267" y="-11" type="line"/>
      <point x="267" y="725" type="line"/>
      <point x="84" y="725" type="line"/>
    </contour>
    <contour>
      <point x="-66" y="781" type="line"/>
      <point x="73" y="781" type="line"/>
      <point x="175" y="857" type="line"/>
      <point x="180" y="857" type="line"/>
      <point x="281" y="781" type="line"/>
      <point x="420" y="781" type="line"/>
      <point x="272" y="959" type="line"/>
      <point x="82" y="959" type="line"/>
    </contour>
  </outline>
</glyph>
<glyph name="cid40254" format="2">
  <advance height="1000" width="350"/>
  <unicode hex="00CF"/>
  <outline>
    <contour>
      <point x="84" y="-11" type="line"/>
      <point x="267" y="-11" type="line"/>
      <point x="267" y="725" type="line"/>
      <point x="84" y="725" type="line"/>
    </contour>
    <contour>
      <point x="50" y="775" type="curve" smooth="yes"/>
      <point x="99" y="775"/>
      <point x="134" y="813"/>
      <point x="134" y="860" type="curve" smooth="yes"/>
      <point x="134" y="908"/>
      <point x="99" y="945"/>
      <point x="50" y="945" type="curve" smooth="yes"/>
      <point x="0" y="945"/>
      <point x="-34" y="908"/>
      <point x="-34" y="860" type="curve" smooth="yes"/>
      <point x="-34" y="813"/>
      <point x="0" y="775"/>
    </contour>
    <contour>
      <point x="305" y="775" type="curve" smooth="yes"/>
      <point x="355" y="775"/>
      <point x="389" y="813"/>
      <point x="389" y="860" type="curve" smooth="yes"/>
      <point x="389" y="908"/>
      <point x="355" y="945"/>
      <point x="305" y="945" type="curve" smooth="yes"/>
      <point x="255" y="945"/>
      <point x="220" y="908"/>
      <point x="220" y="860" type="curve" smooth="yes"/>
      <point x="220" y="813"/>
      <point x="255" y="775"/>
    </contour>
  </outline>
</glyph>
<glyph name="cid40307" format="2">
  <advance height="1000" width="756"/>
  <unicode hex="00D1"/>
  <outline>
    <contour>
      <point x="84" y="-11" type="line"/>
      <point x="258" y="-11" type="line"/>
      <point x="258" y="222" type="line" smooth="yes"/>
      <point x="258" y="311"/>
      <point x="244" y="414"/>
      <point x="235" y="496" type="curve"/>
      <point x="240" y="496" type="line"/>
      <point x="262" y="440"/>
      <point x="285" y="381"/>
      <point x="311" y="331" type="curve" smooth="yes"/>
      <point x="484" y="-11" type="line"/>
      <point x="672" y="-11" type="line"/>
      <point x="672" y="725" type="line"/>
      <point x="498" y="725" type="line"/>
      <point x="498" y="492" type="line" smooth="yes"/>
      <point x="498" y="404"/>
      <point x="513" y="296"/>
      <point x="521" y="217" type="curve"/>
      <point x="516" y="217" type="line"/>
      <point x="494" y="274"/>
      <point x="471" y="333"/>
      <point x="446" y="382" type="curve" smooth="yes"/>
      <point x="272" y="725" type="line"/>
      <point x="84" y="725" type="line"/>
    </contour>
    <contour>
      <point x="463" y="768" type="curve" smooth="yes"/>
      <point x="544" y="768"/>
      <point x="606" y="815"/>
      <point x="612" y="935" type="curve"/>
      <point x="495" y="944" type="line"/>
      <point x="490" y="904"/>
      <point x="476" y="893"/>
      <point x="457" y="893" type="curve" smooth="yes"/>
      <point x="423" y="893"/>
      <point x="383" y="954"/>
      <point x="303" y="954" type="curve" smooth="yes"/>
      <point x="223" y="954"/>
      <point x="160" y="907"/>
      <point x="154" y="787" type="curve"/>
      <point x="271" y="778" type="line"/>
      <point x="276" y="817"/>
      <point x="290" y="829"/>
      <point x="310" y="829" type="curve" smooth="yes"/>
      <point x="344" y="829"/>
      <point x="383" y="768"/>
    </contour>
  </outline>
</glyph>
<glyph name="cid40317" format="2">
  <advance height="1000" width="779"/>
  <unicode hex="00D2"/>
  <outline>
    <contour>
      <point x="389" y="-25" type="curve" smooth="yes"/>
      <point x="591" y="-25"/>
      <point x="728" y="119"/>
      <point x="728" y="360" type="curve" smooth="yes"/>
      <point x="728" y="600"/>
      <point x="591" y="738"/>
      <point x="389" y="738" type="curve" smooth="yes"/>
      <point x="188" y="738"/>
      <point x="51" y="601"/>
      <point x="51" y="360" type="curve" smooth="yes"/>
      <point x="51" y="119"/>
      <point x="188" y="-25"/>
    </contour>
    <contour>
      <point x="389" y="134" type="curve" smooth="yes"/>
      <point x="296" y="134"/>
      <point x="238" y="221"/>
      <point x="238" y="360" type="curve" smooth="yes"/>
      <point x="238" y="499"/>
      <point x="296" y="580"/>
      <point x="389" y="580" type="curve" smooth="yes"/>
      <point x="483" y="580"/>
      <point x="540" y="499"/>
      <point x="540" y="360" type="curve" smooth="yes"/>
      <point x="540" y="221"/>
      <point x="483" y="134"/>
    </contour>
    <contour>
      <point x="339" y="781" type="line"/>
      <point x="489" y="781" type="line"/>
      <point x="351" y="959" type="line"/>
      <point x="148" y="959" type="line"/>
      <point x="138" y="939" type="line"/>
    </contour>
  </outline>
</glyph>
<glyph name="cid40318" format="2">
  <advance height="1000" width="779"/>
  <unicode hex="00D3"/>
  <outline>
    <contour>
      <point x="389" y="-25" type="curve" smooth="yes"/>
      <point x="591" y="-25"/>
      <point x="728" y="119"/>
      <point x="728" y="360" type="curve" smooth="yes"/>
      <point x="728" y="600"/>
      <point x="591" y="738"/>
      <point x="389" y="738" type="curve" smooth="yes"/>
      <point x="188" y="738"/>
      <point x="51" y="601"/>
      <point x="51" y="360" type="curve" smooth="yes"/>
      <point x="51" y="119"/>
      <point x="188" y="-25"/>
    </contour>
    <contour>
      <point x="389" y="134" type="curve" smooth="yes"/>
      <point x="296" y="134"/>
      <point x="238" y="221"/>
      <point x="238" y="360" type="curve" smooth="yes"/>
      <point x="238" y="499"/>
      <point x="296" y="580"/>
      <point x="389" y="580" type="curve" smooth="yes"/>
      <point x="483" y="580"/>
      <point x="540" y="499"/>
      <point x="540" y="360" type="curve" smooth="yes"/>
      <point x="540" y="221"/>
      <point x="483" y="134"/>
    </contour>
    <contour>
      <point x="288" y="781" type="line"/>
      <point x="438" y="781" type="line"/>
      <point x="640" y="939" type="line"/>
      <point x="629" y="959" type="line"/>
      <point x="426" y="959" type="line"/>
    </contour>
  </outline>
</glyph>
<glyph name="cid40320" format="2">
  <advance height="1000" width="779"/>
  <unicode hex="00D4"/>
  <outline>
    <contour>
      <point x="389" y="-25" type="curve" smooth="yes"/>
      <point x="591" y="-25"/>
      <point x="728" y="119"/>
      <point x="728" y="360" type="curve" smooth="yes"/>
      <point x="728" y="600"/>
      <point x="591" y="738"/>
      <point x="389" y="738" type="curve" smooth="yes"/>
      <point x="188" y="738"/>
      <point x="51" y="601"/>
      <point x="51" y="360" type="curve" smooth="yes"/>
      <point x="51" y="119"/>
      <point x="188" y="-25"/>
    </contour>
    <contour>
      <point x="389" y="134" type="curve" smooth="yes"/>
      <point x="296" y="134"/>
      <point x="238" y="221"/>
      <point x="238" y="360" type="curve" smooth="yes"/>
      <point x="238" y="499"/>
      <point x="296" y="580"/>
      <point x="389" y="580" type="curve" smooth="yes"/>
      <point x="483" y="580"/>
      <point x="540" y="499"/>
      <point x="540" y="360" type="curve" smooth="yes"/>
      <point x="540" y="221"/>
      <point x="483" y="134"/>
    </contour>
    <contour>
      <point x="146" y="781" type="line"/>
      <point x="285" y="781" type="line"/>
      <point x="386" y="857" type="line"/>
      <point x="391" y="857" type="line"/>
      <point x="493" y="781" type="line"/>
      <point x="632" y="781" type="line"/>
      <point x="484" y="959" type="line"/>
      <point x="294" y="959" type="line"/>
    </contour>
  </outline>
</glyph>
<glyph name="cid40321" format="2">
  <advance height="1000" width="779"/>
  <unicode hex="00D5"/>
  <outline>
    <contour>
      <point x="389" y="-25" type="curve" smooth="yes"/>
      <point x="591" y="-25"/>
      <point x="728" y="119"/>
      <point x="728" y="360" type="curve" smooth="yes"/>
      <point x="728" y="600"/>
      <point x="591" y="738"/>
      <point x="389" y="738" type="curve" smooth="yes"/>
      <point x="188" y="738"/>
      <point x="51" y="601"/>
      <point x="51" y="360" type="curve" smooth="yes"/>
      <point x="51" y="119"/>
      <point x="188" y="-25"/>
    </contour>
    <contour>
      <point x="389" y="134" type="curve" smooth="yes"/>
      <point x="296" y="134"/>
      <point x="238" y="221"/>
      <point x="238" y="360" type="curve" smooth="yes"/>
      <point x="238" y="499"/>
      <point x="296" y="580"/>
      <point x="389" y="580" type="curve" smooth="yes"/>
      <point x="483" y="580"/>
      <point x="540" y="499"/>
      <point x="540" y="360" type="curve" smooth="yes"/>
      <point x="540" y="221"/>
      <point x="483" y="134"/>
    </contour>
    <contour>
      <point x="469" y="768" type="curve" smooth="yes"/>
      <point x="549" y="768"/>
      <point x="611" y="815"/>
      <point x="618" y="935" type="curve"/>
      <point x="501" y="944" type="line"/>
      <point x="496" y="904"/>
      <point x="481" y="893"/>
      <point x="462" y="893" type="curve" smooth="yes"/>
      <point x="428" y="893"/>
      <point x="389" y="954"/>
      <point x="308" y="954" type="curve" smooth="yes"/>
      <point x="228" y="954"/>
      <point x="166" y="907"/>
      <point x="159" y="787" type="curve"/>
      <point x="277" y="778" type="line"/>
      <point x="281" y="817"/>
      <point x="296" y="829"/>
      <point x="315" y="829" type="curve" smooth="yes"/>
      <point x="349" y="829"/>
      <point x="389" y="768"/>
    </contour>
  </outline>
</glyph>
<glyph name="cid40325" format="2">
  <advance height="1000" width="779"/>
  <unicode hex="00D6"/>
  <outline>
    <contour>
      <point x="389" y="-25" type="curve" smooth="yes"/>
      <point x="591" y="-25"/>
      <point x="728" y="119"/>
      <point x="728" y="360" type="curve" smooth="yes"/>
      <point x="728" y="600"/>
      <point x="591" y="738"/>
      <point x="389" y="738" type="curve" smooth="yes"/>
      <point x="188" y="738"/>
      <point x="51" y="601"/>
      <point x="51" y="360" type="curve" smooth="yes"/>
      <point x="51" y="119"/>
      <point x="188" y="-25"/>
    </contour>
    <contour>
      <point x="389" y="134" type="curve" smooth="yes"/>
      <point x="296" y="134"/>
      <point x="238" y="221"/>
      <point x="238" y="360" type="curve" smooth="yes"/>
      <point x="238" y="499"/>
      <point x="296" y="580"/>
      <point x="389" y="580" type="curve" smooth="yes"/>
      <point x="483" y="580"/>
      <point x="540" y="499"/>
      <point x="540" y="360" type="curve" smooth="yes"/>
      <point x="540" y="221"/>
      <point x="483" y="134"/>
    </contour>
    <contour>
      <point x="261" y="775" type="curve" smooth="yes"/>
      <point x="311" y="775"/>
      <point x="346" y="813"/>
      <point x="346" y="860" type="curve" smooth="yes"/>
      <point x="346" y="908"/>
      <point x="311" y="945"/>
      <point x="261" y="945" type="curve" smooth="yes"/>
      <point x="211" y="945"/>
      <point x="177" y="908"/>
      <point x="177" y="860" type="curve" smooth="yes"/>
      <point x="177" y="813"/>
      <point x="211" y="775"/>
    </contour>
    <contour>
      <point x="516" y="775" type="curve" smooth="yes"/>
      <point x="566" y="775"/>
      <point x="600" y="813"/>
      <point x="600" y="860" type="curve" smooth="yes"/>
      <point x="600" y="908"/>
      <point x="566" y="945"/>
      <point x="516" y="945" type="curve" smooth="yes"/>
      <point x="467" y="945"/>
      <point x="432" y="908"/>
      <point x="432" y="860" type="curve" smooth="yes"/>
      <point x="432" y="813"/>
      <point x="467" y="775"/>
    </contour>
  </outline>
</glyph>
<glyph name="cid44788" format="2">
  <advance height="1000" width="605"/>
  <unicode hex="00D7"/>
  <outline>
    <contour>
      <point x="145" y="111" type="line"/>
      <point x="303" y="270" type="line"/>
      <point x="460" y="111" type="line"/>
      <point x="551" y="203" type="line"/>
      <point x="393" y="361" type="line"/>
      <point x="551" y="519" type="line"/>
      <point x="460" y="611" type="line"/>
      <point x="303" y="451" type="line"/>
      <point x="145" y="611" type="line"/>
      <point x="53" y="519" type="line"/>
      <point x="211" y="361" type="line"/>
      <point x="53" y="203" type="line"/>
    </contour>
  </outline>
</glyph>
<glyph name="cid40418" format="2">
  <advance height="1000" width="756"/>
  <unicode hex="00DA"/>
  <outline>
    <contour>
      <point x="380" y="-25" type="curve" smooth="yes"/>
      <point x="580" y="-25"/>
      <point x="677" y="86"/>
      <point x="677" y="328" type="curve" smooth="yes"/>
      <point x="677" y="725" type="line"/>
      <point x="501" y="725" type="line"/>
      <point x="501" y="308" type="line" smooth="yes"/>
      <point x="501" y="179"/>
      <point x="459" y="134"/>
      <point x="380" y="134" type="curve" smooth="yes"/>
      <point x="301" y="134"/>
      <point x="262" y="179"/>
      <point x="262" y="308" type="curve" smooth="yes"/>
      <point x="262" y="725" type="line"/>
      <point x="79" y="725" type="line"/>
      <point x="79" y="328" type="line" smooth="yes"/>
      <point x="79" y="86"/>
      <point x="181" y="-25"/>
    </contour>
    <contour>
      <point x="277" y="781" type="line"/>
      <point x="427" y="781" type="line"/>
      <point x="628" y="939" type="line"/>
      <point x="618" y="959" type="line"/>
      <point x="415" y="959" type="line"/>
    </contour>
  </outline>
</glyph>
<glyph name="cid40423" format="2">
  <advance height="1000" width="756"/>
  <unicode hex="00DC"/>
  <outline>
    <contour>
      <point x="380" y="-25" type="curve" smooth="yes"/>
      <point x="580" y="-25"/>
      <point x="677" y="86"/>
      <point x="677" y="328" type="curve" smooth="yes"/>
      <point x="677" y="725" type="line"/>
      <point x="501" y="725" type="line"/>
      <point x="501" y="308" type="line" smooth="yes"/>
      <point x="501" y="179"/>
      <point x="459" y="134"/>
      <point x="380" y="134" type="curve" smooth="yes"/>
      <point x="301" y="134"/>
      <point x="262" y="179"/>
      <point x="262" y="308" type="curve" smooth="yes"/>
      <point x="262" y="725" type="line"/>
      <point x="79" y="725" type="line"/>
      <point x="79" y="328" type="line" smooth="yes"/>
      <point x="79" y="86"/>
      <point x="181" y="-25"/>
    </contour>
    <contour>
      <point x="250" y="775" type="curve" smooth="yes"/>
      <point x="299" y="775"/>
      <point x="334" y="813"/>
      <point x="334" y="860" type="curve" smooth="yes"/>
      <point x="334" y="908"/>
      <point x="299" y="945"/>
      <point x="250" y="945" type="curve" smooth="yes"/>
      <point x="200" y="945"/>
      <point x="166" y="908"/>
      <point x="166" y="860" type="curve" smooth="yes"/>
      <point x="166" y="813"/>
      <point x="200" y="775"/>
    </contour>
    <contour>
      <point x="505" y="775" type="curve" smooth="yes"/>
      <point x="555" y="775"/>
      <point x="589" y="813"/>
      <point x="589" y="860" type="curve" smooth="yes"/>
      <point x="589" y="908"/>
      <point x="555" y="945"/>
      <point x="505" y="945" type="curve" smooth="yes"/>
      <point x="455" y="945"/>
      <point x="420" y="908"/>
      <point x="420" y="860" type="curve" smooth="yes"/>
      <point x="420" y="813"/>
      <point x="455" y="775"/>
    </contour>
  </outline>
</glyph>
<glyph name="cid40463" format="2">
  <advance height="1000" width="606"/>
  <unicode hex="00DD"/>
  <outline>
    <contour>
      <point x="211" y="-11" type="line"/>
      <point x="394" y="-11" type="line"/>
      <point x="394" y="246" type="line"/>
      <point x="616" y="725" type="line"/>
      <point x="425" y="725" type="line"/>
      <point x="366" y="564" type="line" smooth="yes"/>
      <point x="346" y="509"/>
      <point x="327" y="458"/>
      <point x="306" y="400" type="curve"/>
      <point x="302" y="400" type="line"/>
      <point x="281" y="458"/>
      <point x="263" y="509"/>
      <point x="244" y="564" type="curve" smooth="yes"/>
      <point x="185" y="725" type="line"/>
      <point x="-10" y="725" type="line"/>
      <point x="211" y="246" type="line"/>
    </contour>
    <contour>
      <point x="200" y="781" type="line"/>
      <point x="350" y="781" type="line"/>
      <point x="551" y="939" type="line"/>
      <point x="541" y="959" type="line"/>
      <point x="338" y="959" type="line"/>
    </contour>
  </outline>
</glyph>
<glyph name="cid40483" format="2">
  <advance height="1000" width="706"/>
  <unicode hex="00DE"/>
  <outline>
    <contour>
      <point x="84" y="-11" type="line"/>
      <point x="267" y="-11" type="line"/>
      <point x="267" y="120" type="line"/>
      <point x="362" y="120" type="line" smooth="yes"/>
      <point x="516" y="120"/>
      <point x="653" y="198"/>
      <point x="653" y="374" type="curve" smooth="yes"/>
      <point x="653" y="557"/>
      <point x="521" y="616"/>
      <point x="362" y="616" type="curve" smooth="yes"/>
      <point x="267" y="616" type="line"/>
      <point x="267" y="725" type="line"/>
      <point x="84" y="725" type="line"/>
    </contour>
    <contour>
      <point x="267" y="266" type="line"/>
      <point x="267" y="472" type="line"/>
      <point x="353" y="472" type="line" smooth="yes"/>
      <point x="432" y="472"/>
      <point x="475" y="446"/>
      <point x="475" y="374" type="curve" smooth="yes"/>
      <point x="475" y="304"/>
      <point x="435" y="266"/>
      <point x="353" y="266" type="curve" smooth="yes"/>
    </contour>
  </outline>
</glyph>
<glyph name="cid40945" format="2">
  <advance height="1000" width="729"/>
  <unicode hex="00DF"/>
  <outline>
    <contour>
      <point x="485" y="-25" type="curve" smooth="yes"/>
      <point x="627" y="-25"/>
      <point x="699" y="60"/>
      <point x="699" y="165" type="curve" smooth="yes"/>
      <point x="699" y="336"/>
      <point x="521" y="337"/>
      <point x="521" y="404" type="curve" smooth="yes"/>
      <point x="521" y="457"/>
      <point x="612" y="488"/>
      <point x="612" y="596" type="curve" smooth="yes"/>
      <point x="612" y="694"/>
      <point x="522" y="789"/>
      <point x="359" y="789" type="curve" smooth="yes"/>
      <point x="166" y="789"/>
      <point x="69" y="676"/>
      <point x="69" y="528" type="curve" smooth="yes"/>
      <point x="69" y="-11" type="line"/>
      <point x="250" y="-11" type="line"/>
      <point x="250" y="508" type="line" smooth="yes"/>
      <point x="250" y="594"/>
      <point x="292" y="648"/>
      <point x="359" y="648" type="curve" smooth="yes"/>
      <point x="403" y="648"/>
      <point x="437" y="617"/>
      <point x="437" y="574" type="curve" smooth="yes"/>
      <point x="437" y="494"/>
      <point x="355" y="464"/>
      <point x="355" y="380" type="curve" smooth="yes"/>
      <point x="355" y="234"/>
      <point x="533" y="231"/>
      <point x="533" y="156" type="curve" smooth="yes"/>
      <point x="533" y="129"/>
      <point x="511" y="110"/>
      <point x="478" y="110" type="curve" smooth="yes"/>
      <point x="445" y="110"/>
      <point x="409" y="117"/>
      <point x="372" y="140" type="curve"/>
      <point x="314" y="30" type="line"/>
      <point x="370" y="-11"/>
      <point x="423" y="-25"/>
    </contour>
  </outline>
</glyph>
<glyph name="cid40535" format="2">
  <advance height="1000" width="601"/>
  <unicode hex="00E1"/>
  <outline>
    <contour>
      <point x="214" y="-25" type="curve" smooth="yes"/>
      <point x="275" y="-25"/>
      <point x="325" y="4"/>
      <point x="372" y="44" type="curve"/>
      <point x="376" y="44" type="line"/>
      <point x="390" y="-11" type="line"/>
      <point x="538" y="-11" type="line"/>
      <point x="538" y="305" type="line" smooth="yes"/>
      <point x="538" y="485"/>
      <point x="453" y="565"/>
      <point x="308" y="565" type="curve" smooth="yes"/>
      <point x="220" y="565"/>
      <point x="139" y="537"/>
      <point x="63" y="492" type="curve"/>
      <point x="128" y="374" type="line"/>
      <point x="184" y="405"/>
      <point x="229" y="421"/>
      <point x="272" y="421" type="curve" smooth="yes"/>
      <point x="327" y="421"/>
      <point x="351" y="397"/>
      <point x="356" y="354" type="curve"/>
      <point x="137" y="330"/>
      <point x="44" y="266"/>
      <point x="44" y="147" type="curve" smooth="yes"/>
      <point x="44" y="53"/>
      <point x="108" y="-25"/>
    </contour>
    <contour>
      <point x="276" y="117" type="curve" smooth="yes"/>
      <point x="241" y="117"/>
      <point x="219" y="133"/>
      <point x="219" y="162" type="curve" smooth="yes"/>
      <point x="219" y="198"/>
      <point x="252" y="229"/>
      <point x="356" y="243" type="curve"/>
      <point x="356" y="159" type="line"/>
      <point x="331" y="134"/>
      <point x="311" y="117"/>
    </contour>
    <contour>
      <point x="215" y="633" type="line"/>
      <point x="354" y="633" type="line"/>
      <point x="545" y="825" type="line"/>
      <point x="533" y="844" type="line"/>
      <point x="342" y="844" type="line"/>
    </contour>
  </outline>
</glyph>
<glyph name="cid40541" format="2">
  <advance height="1000" width="601"/>
  <unicode hex="00E5"/>
  <outline>
    <contour>
      <point x="214" y="-25" type="curve" smooth="yes"/>
      <point x="275" y="-25"/>
      <point x="325" y="4"/>
      <point x="372" y="44" type="curve"/>
      <point x="376" y="44" type="line"/>
      <point x="390" y="-11" type="line"/>
      <point x="538" y="-11" type="line"/>
      <point x="538" y="305" type="line" smooth="yes"/>
      <point x="538" y="485"/>
      <point x="453" y="565"/>
      <point x="308" y="565" type="curve" smooth="yes"/>
      <point x="220" y="565"/>
      <point x="139" y="537"/>
      <point x="63" y="492" type="curve"/>
      <point x="128" y="374" type="line"/>
      <point x="184" y="405"/>
      <point x="229" y="421"/>
      <point x="272" y="421" type="curve" smooth="yes"/>
      <point x="327" y="421"/>
      <point x="351" y="397"/>
      <point x="356" y="354" type="curve"/>
      <point x="137" y="330"/>
      <point x="44" y="266"/>
      <point x="44" y="147" type="curve" smooth="yes"/>
      <point x="44" y="53"/>
      <point x="108" y="-25"/>
    </contour>
    <contour>
      <point x="276" y="117" type="curve" smooth="yes"/>
      <point x="241" y="117"/>
      <point x="219" y="133"/>
      <point x="219" y="162" type="curve" smooth="yes"/>
      <point x="219" y="198"/>
      <point x="252" y="229"/>
      <point x="356" y="243" type="curve"/>
      <point x="356" y="159" type="line"/>
      <point x="331" y="134"/>
      <point x="311" y="117"/>
    </contour>
    <contour>
      <point x="315" y="629" type="curve" smooth="yes"/>
      <point x="418" y="629"/>
      <point x="470" y="683"/>
      <point x="470" y="748" type="curve" smooth="yes"/>
      <point x="470" y="813"/>
      <point x="418" y="867"/>
      <point x="315" y="867" type="curve" smooth="yes"/>
      <point x="212" y="867"/>
      <point x="160" y="813"/>
      <point x="160" y="748" type="curve" smooth="yes"/>
      <point x="160" y="683"/>
      <point x="212" y="629"/>
    </contour>
    <contour>
      <point x="315" y="696" type="curve" smooth="yes"/>
      <point x="290" y="696"/>
      <point x="270" y="717"/>
      <point x="270" y="748" type="curve" smooth="yes"/>
      <point x="270" y="779"/>
      <point x="290" y="800"/>
      <point x="315" y="800" type="curve" smooth="yes"/>
      <point x="340" y="800"/>
      <point x="360" y="779"/>
      <point x="360" y="748" type="curve" smooth="yes"/>
      <point x="360" y="717"/>
      <point x="340" y="696"/>
    </contour>
  </outline>
</glyph>
<glyph name="cid40585" format="2">
  <advance height="1000" width="531"/>
  <unicode hex="00E7"/>
  <outline>
    <contour>
      <point x="324" y="-25" type="curve" smooth="yes"/>
      <point x="392" y="-25"/>
      <point x="460" y="0"/>
      <point x="506" y="43" type="curve"/>
      <point x="435" y="156" type="line"/>
      <point x="408" y="135"/>
      <point x="376" y="122"/>
      <point x="342" y="122" type="curve" smooth="yes"/>
      <point x="275" y="122"/>
      <point x="225" y="180"/>
      <point x="225" y="270" type="curve" smooth="yes"/>
      <point x="225" y="361"/>
      <point x="273" y="418"/>
      <point x="347" y="418" type="curve" smooth="yes"/>
      <point x="376" y="418"/>
      <point x="397" y="408"/>
      <point x="416" y="394" type="curve"/>
      <point x="501" y="507" type="line"/>
      <point x="461" y="543"/>
      <point x="405" y="565"/>
      <point x="337" y="565" type="curve" smooth="yes"/>
      <point x="179" y="565"/>
      <point x="38" y="458"/>
      <point x="38" y="270" type="curve" smooth="yes"/>
      <point x="38" y="84"/>
      <point x="160" y="-25"/>
    </contour>
    <contour>
      <point x="175" y="-284" type="line"/>
      <point x="321" y="-280"/>
      <point x="407" y="-244"/>
      <point x="407" y="-165" type="curve" smooth="yes"/>
      <point x="407" y="-117"/>
      <point x="377" y="-92"/>
      <point x="320" y="-79" type="curve"/>
      <point x="351" y="-6" type="line"/>
      <point x="246" y="-6" type="line"/>
      <point x="191" y="-118" type="line"/>
      <point x="260" y="-127"/>
      <point x="277" y="-143"/>
      <point x="277" y="-165" type="curve" smooth="yes"/>
      <point x="277" y="-196"/>
      <point x="250" y="-209"/>
      <point x="163" y="-213" type="curve"/>
    </contour>
  </outline>
</glyph>
<glyph name="cid40611" format="2">
  <advance height="1000" width="591"/>
  <unicode hex="00EB"/>
  <outline>
    <contour>
      <point x="327" y="-25" type="curve" smooth="yes"/>
      <point x="391" y="-25"/>
      <point x="470" y="-2"/>
      <point x="529" y="40" type="curve"/>
      <point x="471" y="149" type="line"/>
      <point x="431" y="127"/>
      <point x="392" y="114"/>
      <point x="351" y="114" type="curve" smooth="yes"/>
      <point x="283" y="114"/>
      <point x="211" y="145"/>
      <point x="208" y="270" type="curve" smooth="yes"/>
      <point x="203" y="391"/>
      <point x="260" y="426"/>
      <point x="311" y="426" type="curve" smooth="yes"/>
      <point x="372" y="426"/>
      <point x="393" y="387"/>
      <point x="393" y="337" type="curve"/>
      <point x="180" y="337" type="line"/>
      <point x="181" y="215" type="line"/>
      <point x="542" y="215" type="line"/>
      <point x="546" y="230"/>
      <point x="549" y="261"/>
      <point x="549" y="294" type="curve" smooth="yes"/>
      <point x="549" y="446"/>
      <point x="471" y="565"/>
      <point x="306" y="565" type="curve" smooth="yes"/>
      <point x="170" y="565"/>
      <point x="37" y="453"/>
      <point x="37" y="270" type="curve" smooth="yes"/>
      <point x="37" y="84"/>
      <point x="163" y="-25"/>
    </contour>
    <contour>
      <point x="177" y="627" type="curve" smooth="yes"/>
      <point x="228" y="627"/>
      <point x="264" y="665"/>
      <point x="264" y="713" type="curve" smooth="yes"/>
      <point x="264" y="762"/>
      <point x="228" y="800"/>
      <point x="177" y="800" type="curve" smooth="yes"/>
      <point x="127" y="800"/>
      <point x="90" y="762"/>
      <point x="90" y="713" type="curve" smooth="yes"/>
      <point x="90" y="665"/>
      <point x="127" y="627"/>
    </contour>
    <contour>
      <point x="431" y="627" type="curve" smooth="yes"/>
      <point x="481" y="627"/>
      <point x="518" y="665"/>
      <point x="518" y="713" type="curve" smooth="yes"/>
      <point x="518" y="762"/>
      <point x="481" y="800"/>
      <point x="431" y="800" type="curve" smooth="yes"/>
      <point x="380" y="800"/>
      <point x="344" y="762"/>
      <point x="344" y="713" type="curve" smooth="yes"/>
      <point x="344" y="665"/>
      <point x="380" y="627"/>
    </contour>
  </outline>
</glyph>
<glyph name="cid40726" format="2">
  <advance height="1000" width="320"/>
  <unicode hex="00EC"/>
  <outline>
    <contour>
      <point x="69" y="-11" type="line"/>
      <point x="252" y="-11" type="line"/>
      <point x="252" y="552" type="line"/>
      <point x="69" y="552" type="line"/>
    </contour>
    <contour>
      <point x="122" y="633" type="line"/>
      <point x="261" y="633" type="line"/>
      <point x="133" y="844" type="line"/>
      <point x="-58" y="844" type="line"/>
      <point x="-69" y="825" type="line"/>
    </contour>
  </outline>
</glyph>
<glyph name="cid40729" format="2">
  <advance height="1000" width="320"/>
  <unicode hex="00ED"/>
  <outline>
    <contour>
      <point x="69" y="-11" type="line"/>
      <point x="252" y="-11" type="line"/>
      <point x="252" y="552" type="line"/>
      <point x="69" y="552" type="line"/>
    </contour>
    <contour>
      <point x="60" y="633" type="line"/>
      <point x="199" y="633" type="line"/>
      <point x="390" y="825" type="line"/>
      <point x="379" y="844" type="line"/>
      <point x="188" y="844" type="line"/>
    </contour>
  </outline>
</glyph>
<glyph name="cid40736" format="2">
  <advance height="1000" width="320"/>
  <unicode hex="00EE"/>
  <outline>
    <contour>
      <point x="69" y="-11" type="line"/>
      <point x="252" y="-11" type="line"/>
      <point x="252" y="552" type="line"/>
      <point x="69" y="552" type="line"/>
    </contour>
    <contour>
      <point x="-72" y="633" type="line"/>
      <point x="67" y="633" type="line"/>
      <point x="158" y="727" type="line"/>
      <point x="163" y="727" type="line"/>
      <point x="254" y="633" type="line"/>
      <point x="393" y="633" type="line"/>
      <point x="245" y="844" type="line"/>
      <point x="76" y="844" type="line"/>
    </contour>
  </outline>
</glyph>
<glyph name="cid41046" format="2">
  <advance height="1000" width="633"/>
  <unicode hex="00F0"/>
  <outline>
    <contour>
      <point x="308" y="-25" type="curve" smooth="yes"/>
      <point x="480" y="-25"/>
      <point x="583" y="110"/>
      <point x="583" y="293" type="curve" smooth="yes"/>
      <point x="583" y="594"/>
      <point x="379" y="738"/>
      <point x="175" y="829" type="curve"/>
      <point x="97" y="717" type="line"/>
      <point x="312" y="621"/>
      <point x="412" y="504"/>
      <point x="412" y="282" type="curve" smooth="yes"/>
      <point x="412" y="169"/>
      <point x="371" y="122"/>
      <point x="315" y="122" type="curve" smooth="yes"/>
      <point x="260" y="122"/>
      <point x="211" y="165"/>
      <point x="211" y="248" type="curve" smooth="yes"/>
      <point x="211" y="335"/>
      <point x="254" y="371"/>
      <point x="311" y="371" type="curve" smooth="yes"/>
      <point x="351" y="371"/>
      <point x="388" y="357"/>
      <point x="419" y="320" type="curve"/>
      <point x="417" y="414" type="line"/>
      <point x="392" y="482"/>
      <point x="333" y="505"/>
      <point x="278" y="505" type="curve" smooth="yes"/>
      <point x="160" y="505"/>
      <point x="45" y="412"/>
      <point x="45" y="248" type="curve" smooth="yes"/>
      <point x="45" y="81"/>
      <point x="166" y="-25"/>
    </contour>
    <contour>
      <point x="123" y="518" type="line"/>
      <point x="554" y="733" type="line"/>
      <point x="505" y="818" type="line"/>
      <point x="77" y="604" type="line"/>
    </contour>
  </outline>
</glyph>
<glyph name="cid40830" format="2">
  <advance height="1000" width="653"/>
  <unicode hex="00F1"/>
  <outline>
    <contour>
      <point x="69" y="-11" type="line"/>
      <point x="252" y="-11" type="line"/>
      <point x="252" y="363" type="line"/>
      <point x="284" y="394"/>
      <point x="306" y="410"/>
      <point x="345" y="410" type="curve" smooth="yes"/>
      <point x="386" y="410"/>
      <point x="407" y="389"/>
      <point x="407" y="313" type="curve" smooth="yes"/>
      <point x="407" y="-11" type="line"/>
      <point x="590" y="-11" type="line"/>
      <point x="590" y="337" type="line" smooth="yes"/>
      <point x="590" y="477"/>
      <point x="538" y="565"/>
      <point x="414" y="565" type="curve" smooth="yes"/>
      <point x="338" y="565"/>
      <point x="281" y="527"/>
      <point x="235" y="483" type="curve"/>
      <point x="231" y="483" type="line"/>
      <point x="218" y="552" type="line"/>
      <point x="69" y="552" type="line"/>
    </contour>
    <contour>
      <point x="432" y="636" type="curve" smooth="yes"/>
      <point x="521" y="636"/>
      <point x="574" y="688"/>
      <point x="576" y="812" type="curve"/>
      <point x="463" y="818" type="line"/>
      <point x="459" y="777"/>
      <point x="447" y="762"/>
      <point x="427" y="762" type="curve" smooth="yes"/>
      <point x="396" y="762"/>
      <point x="354" y="829"/>
      <point x="285" y="829" type="curve" smooth="yes"/>
      <point x="195" y="829"/>
      <point x="142" y="777"/>
      <point x="140" y="653" type="curve"/>
      <point x="253" y="647" type="line"/>
      <point x="258" y="688"/>
      <point x="269" y="703"/>
      <point x="289" y="703" type="curve" smooth="yes"/>
      <point x="321" y="703"/>
      <point x="363" y="636"/>
    </contour>
  </outline>
</glyph>
<glyph name="cid40849" format="2">
  <advance height="1000" width="631"/>
  <unicode hex="00F3"/>
  <outline>
    <contour>
      <point x="315" y="-25" type="curve" smooth="yes"/>
      <point x="459" y="-25"/>
      <point x="592" y="84"/>
      <point x="592" y="270" type="curve" smooth="yes"/>
      <point x="592" y="458"/>
      <point x="459" y="565"/>
      <point x="315" y="565" type="curve" smooth="yes"/>
      <point x="172" y="565"/>
      <point x="38" y="458"/>
      <point x="38" y="270" type="curve" smooth="yes"/>
      <point x="38" y="84"/>
      <point x="172" y="-25"/>
    </contour>
    <contour>
      <point x="315" y="122" type="curve" smooth="yes"/>
      <point x="252" y="122"/>
      <point x="225" y="180"/>
      <point x="225" y="270" type="curve" smooth="yes"/>
      <point x="225" y="361"/>
      <point x="252" y="418"/>
      <point x="315" y="418" type="curve" smooth="yes"/>
      <point x="379" y="418"/>
      <point x="406" y="361"/>
      <point x="406" y="270" type="curve" smooth="yes"/>
      <point x="406" y="180"/>
      <point x="379" y="122"/>
    </contour>
    <contour>
      <point x="215" y="633" type="line"/>
      <point x="354" y="633" type="line"/>
      <point x="545" y="825" type="line"/>
      <point x="533" y="844" type="line"/>
      <point x="342" y="844" type="line"/>
    </contour>
  </outline>
</glyph>
<glyph name="cid40854" format="2">
  <advance height="1000" width="631"/>
  <unicode hex="00F5"/>
  <outline>
    <contour>
      <point x="315" y="-25" type="curve" smooth="yes"/>
      <point x="459" y="-25"/>
      <point x="592" y="84"/>
      <point x="592" y="270" type="curve" smooth="yes"/>
      <point x="592" y="458"/>
      <point x="459" y="565"/>
      <point x="315" y="565" type="curve" smooth="yes"/>
      <point x="172" y="565"/>
      <point x="38" y="458"/>
      <point x="38" y="270" type="curve" smooth="yes"/>
      <point x="38" y="84"/>
      <point x="172" y="-25"/>
    </contour>
    <contour>
      <point x="315" y="122" type="curve" smooth="yes"/>
      <point x="252" y="122"/>
      <point x="225" y="180"/>
      <point x="225" y="270" type="curve" smooth="yes"/>
      <point x="225" y="361"/>
      <point x="252" y="418"/>
      <point x="315" y="418" type="curve" smooth="yes"/>
      <point x="379" y="418"/>
      <point x="406" y="361"/>
      <point x="406" y="270" type="curve" smooth="yes"/>
      <point x="406" y="180"/>
      <point x="379" y="122"/>
    </contour>
    <contour>
      <point x="389" y="636" type="curve" smooth="yes"/>
      <point x="478" y="636"/>
      <point x="531" y="688"/>
      <point x="533" y="812" type="curve"/>
      <point x="420" y="818" type="line"/>
      <point x="416" y="777"/>
      <point x="405" y="762"/>
      <point x="384" y="762" type="curve" smooth="yes"/>
      <point x="353" y="762"/>
      <point x="311" y="829"/>
      <point x="242" y="829" type="curve" smooth="yes"/>
      <point x="153" y="829"/>
      <point x="99" y="777"/>
      <point x="97" y="653" type="curve"/>
      <point x="210" y="647" type="line"/>
      <point x="215" y="688"/>
      <point x="226" y="703"/>
      <point x="246" y="703" type="curve" smooth="yes"/>
      <point x="278" y="703"/>
      <point x="320" y="636"/>
    </contour>
  </outline>
</glyph>
<glyph name="cid44792" format="2">
  <advance height="1000" width="605"/>
  <unicode hex="00F7"/>
  <outline>
    <contour>
      <point x="38" y="297" type="line"/>
      <point x="566" y="297" type="line"/>
      <point x="566" y="426" type="line"/>
      <point x="38" y="426" type="line"/>
    </contour>
    <contour>
      <point x="303" y="66" type="curve" smooth="yes"/>
      <point x="358" y="66"/>
      <point x="401" y="104"/>
      <point x="401" y="159" type="curve" smooth="yes"/>
      <point x="401" y="213"/>
      <point x="358" y="251"/>
      <point x="303" y="251" type="curve" smooth="yes"/>
      <point x="246" y="251"/>
      <point x="203" y="213"/>
      <point x="203" y="159" type="curve" smooth="yes"/>
      <point x="203" y="104"/>
      <point x="246" y="66"/>
    </contour>
    <contour>
      <point x="303" y="473" type="curve" smooth="yes"/>
      <point x="358" y="473"/>
      <point x="401" y="511"/>
      <point x="401" y="565" type="curve" smooth="yes"/>
      <point x="401" y="620"/>
      <point x="358" y="658"/>
      <point x="303" y="658" type="curve" smooth="yes"/>
      <point x="246" y="658"/>
      <point x="203" y="620"/>
      <point x="203" y="565" type="curve" smooth="yes"/>
      <point x="203" y="511"/>
      <point x="246" y="473"/>
    </contour>
  </outline>
</glyph>
<glyph name="cid40966" format="2">
  <advance height="1000" width="649"/>
  <unicode hex="00FB"/>
  <outline>
    <contour>
      <point x="240" y="-25" type="curve" smooth="yes"/>
      <point x="315" y="-25"/>
      <point x="368" y="10"/>
      <point x="414" y="65" type="curve"/>
      <point x="418" y="65" type="line"/>
      <point x="432" y="-11" type="line"/>
      <point x="580" y="-11" type="line"/>
      <point x="580" y="552" type="line"/>
      <point x="398" y="552" type="line"/>
      <point x="398" y="186" type="line"/>
      <point x="370" y="146"/>
      <point x="347" y="131"/>
      <point x="308" y="131" type="curve" smooth="yes"/>
      <point x="267" y="131"/>
      <point x="246" y="152"/>
      <point x="246" y="227" type="curve" smooth="yes"/>
      <point x="246" y="552" type="line"/>
      <point x="63" y="552" type="line"/>
      <point x="63" y="204" type="line" smooth="yes"/>
      <point x="63" y="64"/>
      <point x="115" y="-25"/>
    </contour>
    <contour>
      <point x="93" y="633" type="line"/>
      <point x="232" y="633" type="line"/>
      <point x="323" y="727" type="line"/>
      <point x="328" y="727" type="line"/>
      <point x="419" y="633" type="line"/>
      <point x="558" y="633" type="line"/>
      <point x="410" y="844" type="line"/>
      <point x="241" y="844" type="line"/>
    </contour>
  </outline>
</glyph>
<glyph name="cid40971" format="2">
  <advance height="1000" width="649"/>
  <unicode hex="00FC"/>
  <outline>
    <contour>
      <point x="240" y="-25" type="curve" smooth="yes"/>
      <point x="315" y="-25"/>
      <point x="368" y="10"/>
      <point x="414" y="65" type="curve"/>
      <point x="418" y="65" type="line"/>
      <point x="432" y="-11" type="line"/>
      <point x="580" y="-11" type="line"/>
      <point x="580" y="552" type="line"/>
      <point x="398" y="552" type="line"/>
      <point x="398" y="186" type="line"/>
      <point x="370" y="146"/>
      <point x="347" y="131"/>
      <point x="308" y="131" type="curve" smooth="yes"/>
      <point x="267" y="131"/>
      <point x="246" y="152"/>
      <point x="246" y="227" type="curve" smooth="yes"/>
      <point x="246" y="552" type="line"/>
      <point x="63" y="552" type="line"/>
      <point x="63" y="204" type="line" smooth="yes"/>
      <point x="63" y="64"/>
      <point x="115" y="-25"/>
    </contour>
    <contour>
      <point x="199" y="627" type="curve" smooth="yes"/>
      <point x="250" y="627"/>
      <point x="286" y="665"/>
      <point x="286" y="713" type="curve" smooth="yes"/>
      <point x="286" y="762"/>
      <point x="250" y="800"/>
      <point x="199" y="800" type="curve" smooth="yes"/>
      <point x="148" y="800"/>
      <point x="112" y="762"/>
      <point x="112" y="713" type="curve" smooth="yes"/>
      <point x="112" y="665"/>
      <point x="148" y="627"/>
    </contour>
    <contour>
      <point x="452" y="627" type="curve" smooth="yes"/>
      <point x="503" y="627"/>
      <point x="539" y="665"/>
      <point x="539" y="713" type="curve" smooth="yes"/>
      <point x="539" y="762"/>
      <point x="503" y="800"/>
      <point x="452" y="800" type="curve" smooth="yes"/>
      <point x="401" y="800"/>
      <point x="365" y="762"/>
      <point x="365" y="713" type="curve" smooth="yes"/>
      <point x="365" y="665"/>
      <point x="401" y="627"/>
    </contour>
  </outline>
</glyph>
<glyph name="cid41048" format="2">
  <advance height="1000" width="652"/>
  <unicode hex="00FE"/>
  <outline>
    <contour>
      <point x="69" y="-213" type="line"/>
      <point x="252" y="-213" type="line"/>
      <point x="252" y="-54" type="line"/>
      <point x="247" y="26" type="line"/>
      <point x="283" y="-6"/>
      <point x="321" y="-25"/>
      <point x="375" y="-25" type="curve" smooth="yes"/>
      <point x="495" y="-25"/>
      <point x="610" y="86"/>
      <point x="610" y="279" type="curve" smooth="yes"/>
      <point x="610" y="453"/>
      <point x="521" y="565"/>
      <point x="381" y="565" type="curve" smooth="yes"/>
      <point x="331" y="565"/>
      <point x="284" y="546"/>
      <point x="247" y="513" type="curve"/>
      <point x="252" y="590" type="line"/>
      <point x="252" y="778" type="line"/>
      <point x="69" y="778" type="line"/>
    </contour>
    <contour>
      <point x="331" y="125" type="curve" smooth="yes"/>
      <point x="305" y="125"/>
      <point x="277" y="133"/>
      <point x="252" y="155" type="curve"/>
      <point x="252" y="372" type="line"/>
      <point x="279" y="404"/>
      <point x="305" y="416"/>
      <point x="337" y="416" type="curve" smooth="yes"/>
      <point x="394" y="416"/>
      <point x="423" y="373"/>
      <point x="423" y="277" type="curve" smooth="yes"/>
      <point x="423" y="166"/>
      <point x="381" y="125"/>
    </contour>
  </outline>
</glyph>
<glyph name="cid41026" format="2">
  <advance height="1000" width="603"/>
  <unicode hex="00FF"/>
  <outline>
    <contour>
      <point x="144" y="-226" type="curve" smooth="yes"/>
      <point x="280" y="-226"/>
      <point x="341" y="-156"/>
      <point x="398" y="-8" type="curve" smooth="yes"/>
      <point x="590" y="552" type="line"/>
      <point x="415" y="552" type="line"/>
      <point x="354" y="326" type="line" smooth="yes"/>
      <point x="340" y="272"/>
      <point x="328" y="220"/>
      <point x="316" y="165" type="curve"/>
      <point x="312" y="165" type="line"/>
      <point x="297" y="222"/>
      <point x="286" y="274"/>
      <point x="270" y="326" type="curve" smooth="yes"/>
      <point x="197" y="552" type="line"/>
      <point x="14" y="552" type="line"/>
      <point x="229" y="7" type="line"/>
      <point x="221" y="-20" type="line" smooth="yes"/>
      <point x="209" y="-57"/>
      <point x="182" y="-83"/>
      <point x="129" y="-83" type="curve" smooth="yes"/>
      <point x="118" y="-83"/>
      <point x="111" y="-83"/>
      <point x="93" y="-79" type="curve"/>
      <point x="60" y="-213" type="line"/>
      <point x="85" y="-221"/>
      <point x="107" y="-226"/>
    </contour>
    <contour>
      <point x="181" y="627" type="curve" smooth="yes"/>
      <point x="232" y="627"/>
      <point x="268" y="665"/>
      <point x="268" y="713" type="curve" smooth="yes"/>
      <point x="268" y="762"/>
      <point x="232" y="800"/>
      <point x="181" y="800" type="curve" smooth="yes"/>
      <point x="130" y="800"/>
      <point x="94" y="762"/>
      <point x="94" y="713" type="curve" smooth="yes"/>
      <point x="94" y="665"/>
      <point x="130" y="627"/>
    </contour>
    <contour>
      <point x="434" y="627" type="curve" smooth="yes"/>
      <point x="485" y="627"/>
      <point x="521" y="665"/>
      <point x="521" y="713" type="curve" smooth="yes"/>
      <point x="521" y="762"/>
      <point x="485" y="800"/>
      <point x="434" y="800" type="curve" smooth="yes"/>
      <point x="383" y="800"/>
      <point x="347" y="762"/>
      <point x="347" y="713" type="curve" smooth="yes"/>
      <point x="347" y="665"/>
      <point x="383" y="627"/>
    </contour>
  </outline>
</glyph>
<glyph name="cid40110" format="2">
  <advance height="1000" width="654"/>
  <unicode hex="0102"/>
  <outline>
    <contour>
      <point x="-10" y="-11" type="line"/>
      <point x="177" y="-11" type="line"/>
      <point x="267" y="353" type="line" smooth="yes"/>
      <point x="286" y="424"/>
      <point x="304" y="511"/>
      <point x="321" y="587" type="curve"/>
      <point x="325" y="587" type="line"/>
      <point x="345" y="512"/>
      <point x="363" y="424"/>
      <point x="382" y="353" type="curve" smooth="yes"/>
      <point x="471" y="-11" type="line"/>
      <point x="664" y="-11" type="line"/>
      <point x="437" y="725" type="line"/>
      <point x="217" y="725" type="line"/>
    </contour>
    <contour>
      <point x="148" y="153" type="line"/>
      <point x="505" y="153" type="line"/>
      <point x="505" y="294" type="line"/>
      <point x="148" y="294" type="line"/>
    </contour>
    <contour>
      <point x="325" y="777" type="curve" smooth="yes"/>
      <point x="440" y="777"/>
      <point x="503" y="829"/>
      <point x="514" y="934" type="curve"/>
      <point x="416" y="951" type="line"/>
      <point x="406" y="905"/>
      <point x="373" y="882"/>
      <point x="325" y="882" type="curve" smooth="yes"/>
      <point x="278" y="882"/>
      <point x="245" y="905"/>
      <point x="235" y="951" type="curve"/>
      <point x="137" y="934" type="line"/>
      <point x="148" y="829"/>
      <point x="211" y="777"/>
    </contour>
  </outline>
</glyph>
<glyph name="cid40116" format="2">
  <advance height="1000" width="654"/>
  <unicode hex="0104"/>
  <outline>
    <contour>
      <point x="568" y="-268" type="curve" smooth="yes"/>
      <point x="612" y="-268"/>
      <point x="667" y="-249"/>
      <point x="699" y="-226" type="curve"/>
      <point x="659" y="-123" type="line"/>
      <point x="647" y="-131"/>
      <point x="629" y="-140"/>
      <point x="610" y="-140" type="curve" smooth="yes"/>
      <point x="581" y="-140"/>
      <point x="562" y="-127"/>
      <point x="562" y="-99" type="curve" smooth="yes"/>
      <point x="562" y="-58"/>
      <point x="602" y="-13"/>
      <point x="664" y="-11" type="curve"/>
      <point x="437" y="725" type="line"/>
      <point x="217" y="725" type="line"/>
      <point x="-10" y="-11" type="line"/>
      <point x="177" y="-11" type="line"/>
      <point x="267" y="353" type="line" smooth="yes"/>
      <point x="286" y="424"/>
      <point x="304" y="511"/>
      <point x="321" y="587" type="curve"/>
      <point x="325" y="587" type="line"/>
      <point x="345" y="512"/>
      <point x="363" y="424"/>
      <point x="382" y="353" type="curve" smooth="yes"/>
      <point x="471" y="-11" type="line"/>
      <point x="511" y="-11" type="line"/>
      <point x="475" y="-30"/>
      <point x="418" y="-82"/>
      <point x="418" y="-153" type="curve" smooth="yes"/>
      <point x="418" y="-227"/>
      <point x="485" y="-268"/>
    </contour>
    <contour>
      <point x="148" y="153" type="line"/>
      <point x="505" y="153" type="line"/>
      <point x="505" y="294" type="line"/>
      <point x="148" y="294" type="line"/>
    </contour>
  </outline>
</glyph>
<glyph name="cid40550" format="2">
  <advance height="1000" width="601"/>
  <unicode hex="0105"/>
  <outline>
    <contour>
      <point x="457" y="-258" type="curve" smooth="yes"/>
      <point x="498" y="-258"/>
      <point x="551" y="-243"/>
      <point x="584" y="-219" type="curve"/>
      <point x="547" y="-125" type="line"/>
      <point x="533" y="-132"/>
      <point x="515" y="-139"/>
      <point x="495" y="-139" type="curve" smooth="yes"/>
      <point x="473" y="-139"/>
      <point x="450" y="-127"/>
      <point x="450" y="-100" type="curve" smooth="yes"/>
      <point x="450" y="-69"/>
      <point x="472" y="-28"/>
      <point x="538" y="-11" type="curve"/>
      <point x="538" y="305" type="line" smooth="yes"/>
      <point x="538" y="485"/>
      <point x="453" y="565"/>
      <point x="308" y="565" type="curve" smooth="yes"/>
      <point x="220" y="565"/>
      <point x="139" y="537"/>
      <point x="63" y="492" type="curve"/>
      <point x="128" y="374" type="line"/>
      <point x="184" y="405"/>
      <point x="229" y="421"/>
      <point x="272" y="421" type="curve" smooth="yes"/>
      <point x="327" y="421"/>
      <point x="351" y="397"/>
      <point x="356" y="354" type="curve"/>
      <point x="137" y="330"/>
      <point x="44" y="266"/>
      <point x="44" y="147" type="curve" smooth="yes"/>
      <point x="44" y="53"/>
      <point x="108" y="-25"/>
      <point x="214" y="-25" type="curve" smooth="yes"/>
      <point x="275" y="-25"/>
      <point x="325" y="4"/>
      <point x="372" y="44" type="curve"/>
      <point x="376" y="44" type="line"/>
      <point x="391" y="-14" type="line"/>
      <point x="363" y="-31"/>
      <point x="318" y="-78"/>
      <point x="318" y="-143" type="curve" smooth="yes"/>
      <point x="318" y="-221"/>
      <point x="380" y="-258"/>
    </contour>
    <contour>
      <point x="276" y="117" type="curve" smooth="yes"/>
      <point x="241" y="117"/>
      <point x="219" y="133"/>
      <point x="219" y="162" type="curve" smooth="yes"/>
      <point x="219" y="198"/>
      <point x="252" y="229"/>
      <point x="356" y="243" type="curve"/>
      <point x="356" y="159" type="line"/>
      <point x="331" y="134"/>
      <point x="311" y="117"/>
    </contour>
  </outline>
</glyph>
<glyph name="cid40165" format="2">
  <advance height="1000" width="660"/>
  <unicode hex="010A"/>
  <outline>
    <contour>
      <point x="402" y="-25" type="curve" smooth="yes"/>
      <point x="493" y="-25"/>
      <point x="571" y="9"/>
      <point x="636" y="82" type="curve"/>
      <point x="545" y="190" type="line"/>
      <point x="513" y="159"/>
      <point x="469" y="134"/>
      <point x="415" y="134" type="curve" smooth="yes"/>
      <point x="310" y="134"/>
      <point x="238" y="215"/>
      <point x="238" y="357" type="curve" smooth="yes"/>
      <point x="238" y="495"/>
      <point x="316" y="580"/>
      <point x="407" y="580" type="curve" smooth="yes"/>
      <point x="458" y="580"/>
      <point x="496" y="563"/>
      <point x="532" y="530" type="curve"/>
      <point x="628" y="641" type="line"/>
      <point x="577" y="695"/>
      <point x="498" y="738"/>
      <point x="402" y="738" type="curve" smooth="yes"/>
      <point x="217" y="738"/>
      <point x="51" y="597"/>
      <point x="51" y="352" type="curve" smooth="yes"/>
      <point x="51" y="102"/>
      <point x="212" y="-25"/>
    </contour>
    <contour>
      <point x="393" y="778" type="curve" smooth="yes"/>
      <point x="453" y="778"/>
      <point x="497" y="816"/>
      <point x="497" y="870" type="curve" smooth="yes"/>
      <point x="497" y="925"/>
      <point x="453" y="964"/>
      <point x="393" y="964" type="curve" smooth="yes"/>
      <point x="333" y="964"/>
      <point x="289" y="925"/>
      <point x="289" y="870" type="curve" smooth="yes"/>
      <point x="289" y="816"/>
      <point x="333" y="778"/>
    </contour>
  </outline>
</glyph>
<glyph name="cid40596" format="2">
  <advance height="1000" width="705"/>
  <unicode hex="010F"/>
  <outline>
    <contour>
      <point x="272" y="-25" type="curve" smooth="yes"/>
      <point x="323" y="-25"/>
      <point x="379" y="4"/>
      <point x="417" y="42" type="curve"/>
      <point x="421" y="42" type="line"/>
      <point x="435" y="-11" type="line"/>
      <point x="583" y="-11" type="line"/>
      <point x="583" y="778" type="line"/>
      <point x="401" y="778" type="line"/>
      <point x="401" y="591" type="line"/>
      <point x="407" y="509" type="line"/>
      <point x="372" y="543"/>
      <point x="334" y="565"/>
      <point x="273" y="565" type="curve" smooth="yes"/>
      <point x="157" y="565"/>
      <point x="42" y="455"/>
      <point x="42" y="270" type="curve" smooth="yes"/>
      <point x="42" y="87"/>
      <point x="132" y="-25"/>
    </contour>
    <contour>
      <point x="321" y="125" type="curve" smooth="yes"/>
      <point x="263" y="125"/>
      <point x="229" y="168"/>
      <point x="229" y="273" type="curve" smooth="yes"/>
      <point x="229" y="375"/>
      <point x="271" y="416"/>
      <point x="318" y="416" type="curve" smooth="yes"/>
      <point x="345" y="416"/>
      <point x="375" y="409"/>
      <point x="401" y="386" type="curve"/>
      <point x="401" y="169" type="line"/>
      <point x="377" y="136"/>
      <point x="353" y="125"/>
    </contour>
    <contour>
      <point x="628" y="608" type="line"/>
      <point x="706" y="608" type="line"/>
      <point x="736" y="780" type="line"/>
      <point x="738" y="861" type="line"/>
      <point x="623" y="861" type="line"/>
    </contour>
  </outline>
</glyph>
<glyph name="cid40178" format="2">
  <advance height="1000" width="745"/>
  <unicode hex="0110"/>
  <outline>
    <contour>
      <point x="26" y="308" type="line"/>
      <point x="426" y="308" type="line"/>
      <point x="426" y="429" type="line"/>
      <point x="110" y="429" type="line"/>
      <point x="26" y="422" type="line"/>
    </contour>
    <contour>
      <point x="107" y="-11" type="line"/>
      <point x="331" y="-11" type="line" smooth="yes"/>
      <point x="545" y="-11"/>
      <point x="695" y="103"/>
      <point x="695" y="360" type="curve" smooth="yes"/>
      <point x="695" y="617"/>
      <point x="545" y="725"/>
      <point x="321" y="725" type="curve" smooth="yes"/>
      <point x="107" y="725" type="line"/>
    </contour>
    <contour>
      <point x="290" y="136" type="line"/>
      <point x="290" y="578" type="line"/>
      <point x="310" y="578" type="line" smooth="yes"/>
      <point x="424" y="578"/>
      <point x="507" y="534"/>
      <point x="507" y="360" type="curve" smooth="yes"/>
      <point x="507" y="187"/>
      <point x="424" y="136"/>
      <point x="310" y="136" type="curve" smooth="yes"/>
    </contour>
  </outline>
</glyph>
<glyph name="cid40601" format="2">
  <advance height="1000" width="652"/>
  <unicode hex="0111"/>
  <outline>
    <contour>
      <point x="272" y="-25" type="curve" smooth="yes"/>
      <point x="327" y="-25"/>
      <point x="377" y="-1"/>
      <point x="415" y="36" type="curve"/>
      <point x="419" y="36" type="line"/>
      <point x="431" y="-11" type="line"/>
      <point x="583" y="-11" type="line"/>
      <point x="583" y="778" type="line"/>
      <point x="401" y="778" type="line"/>
      <point x="401" y="536" type="line"/>
      <point x="407" y="453" type="line"/>
      <point x="372" y="488"/>
      <point x="334" y="511"/>
      <point x="273" y="511" type="curve" smooth="yes"/>
      <point x="157" y="511"/>
      <point x="42" y="405"/>
      <point x="42" y="244" type="curve" smooth="yes"/>
      <point x="42" y="83"/>
      <point x="132" y="-25"/>
    </contour>
    <contour>
      <point x="321" y="125" type="curve" smooth="yes"/>
      <point x="263" y="125"/>
      <point x="229" y="165"/>
      <point x="229" y="247" type="curve" smooth="yes"/>
      <point x="229" y="325"/>
      <point x="271" y="362"/>
      <point x="318" y="362" type="curve" smooth="yes"/>
      <point x="345" y="362"/>
      <point x="374" y="353"/>
      <point x="401" y="329" type="curve"/>
      <point x="401" y="169" type="line"/>
      <point x="377" y="136"/>
      <point x="353" y="125"/>
    </contour>
    <contour>
      <point x="214" y="579" type="line"/>
      <point x="573" y="579" type="line"/>
      <point x="659" y="586" type="line"/>
      <point x="659" y="701" type="line"/>
      <point x="214" y="701" type="line"/>
    </contour>
  </outline>
</glyph>
<glyph name="cid40189" format="2">
  <advance height="1000" width="625"/>
  <unicode hex="0112"/>
  <outline>
    <contour>
      <point x="84" y="-11" type="line"/>
      <point x="564" y="-11" type="line"/>
      <point x="564" y="143" type="line"/>
      <point x="267" y="143" type="line"/>
      <point x="267" y="290" type="line"/>
      <point x="511" y="290" type="line"/>
      <point x="511" y="442" type="line"/>
      <point x="267" y="442" type="line"/>
      <point x="267" y="571" type="line"/>
      <point x="553" y="571" type="line"/>
      <point x="553" y="725" type="line"/>
      <point x="84" y="725" type="line"/>
    </contour>
    <contour>
      <point x="150" y="800" type="line"/>
      <point x="505" y="800" type="line"/>
      <point x="505" y="916" type="line"/>
      <point x="150" y="916" type="line"/>
    </contour>
  </outline>
</glyph>
<glyph name="cid40191" format="2">
  <advance height="1000" width="625"/>
  <unicode hex="0114"/>
  <outline>
    <contour>
      <point x="84" y="-11" type="line"/>
      <point x="564" y="-11" type="line"/>
      <point x="564" y="143" type="line"/>
      <point x="267" y="143" type="line"/>
      <point x="267" y="290" type="line"/>
      <point x="511" y="290" type="line"/>
      <point x="511" y="442" type="line"/>
      <point x="267" y="442" type="line"/>
      <point x="267" y="571" type="line"/>
      <point x="553" y="571" type="line"/>
      <point x="553" y="725" type="line"/>
      <point x="84" y="725" type="line"/>
    </contour>
    <contour>
      <point x="328" y="777" type="curve" smooth="yes"/>
      <point x="442" y="777"/>
      <point x="505" y="829"/>
      <point x="516" y="934" type="curve"/>
      <point x="418" y="951" type="line"/>
      <point x="408" y="905"/>
      <point x="375" y="882"/>
      <point x="328" y="882" type="curve" smooth="yes"/>
      <point x="280" y="882"/>
      <point x="247" y="905"/>
      <point x="237" y="951" type="curve"/>
      <point x="139" y="934" type="line"/>
      <point x="150" y="829"/>
      <point x="214" y="777"/>
    </contour>
  </outline>
</glyph>
<glyph name="cid40614" format="2">
  <advance height="1000" width="591"/>
  <unicode hex="0115"/>
  <outline>
    <contour>
      <point x="327" y="-25" type="curve" smooth="yes"/>
      <point x="391" y="-25"/>
      <point x="470" y="-2"/>
      <point x="529" y="40" type="curve"/>
      <point x="471" y="149" type="line"/>
      <point x="431" y="127"/>
      <point x="392" y="114"/>
      <point x="351" y="114" type="curve" smooth="yes"/>
      <point x="283" y="114"/>
      <point x="211" y="145"/>
      <point x="208" y="270" type="curve" smooth="yes"/>
      <point x="203" y="391"/>
      <point x="260" y="426"/>
      <point x="311" y="426" type="curve" smooth="yes"/>
      <point x="372" y="426"/>
      <point x="393" y="387"/>
      <point x="393" y="337" type="curve"/>
      <point x="180" y="337" type="line"/>
      <point x="181" y="215" type="line"/>
      <point x="542" y="215" type="line"/>
      <point x="546" y="230"/>
      <point x="549" y="261"/>
      <point x="549" y="294" type="curve" smooth="yes"/>
      <point x="549" y="446"/>
      <point x="471" y="565"/>
      <point x="306" y="565" type="curve" smooth="yes"/>
      <point x="170" y="565"/>
      <point x="37" y="453"/>
      <point x="37" y="270" type="curve" smooth="yes"/>
      <point x="37" y="84"/>
      <point x="163" y="-25"/>
    </contour>
    <contour>
      <point x="304" y="631" type="curve" smooth="yes"/>
      <point x="436" y="631"/>
      <point x="496" y="707"/>
      <point x="498" y="811" type="curve"/>
      <point x="396" y="827" type="line"/>
      <point x="389" y="781"/>
      <point x="360" y="744"/>
      <point x="304" y="744" type="curve" smooth="yes"/>
      <point x="247" y="744"/>
      <point x="219" y="781"/>
      <point x="212" y="827" type="curve"/>
      <point x="110" y="811" type="line"/>
      <point x="112" y="707"/>
      <point x="173" y="631"/>
    </contour>
  </outline>
</glyph>
<glyph name="cid40192" format="2">
  <advance height="1000" width="625"/>
  <unicode hex="0116"/>
  <outline>
    <contour>
      <point x="84" y="-11" type="line"/>
      <point x="564" y="-11" type="line"/>
      <point x="564" y="143" type="line"/>
      <point x="267" y="143" type="line"/>
      <point x="267" y="290" type="line"/>
      <point x="511" y="290" type="line"/>
      <point x="511" y="442" type="line"/>
      <point x="267" y="442" type="line"/>
      <point x="267" y="571" type="line"/>
      <point x="553" y="571" type="line"/>
      <point x="553" y="725" type="line"/>
      <point x="84" y="725" type="line"/>
    </contour>
    <contour>
      <point x="328" y="778" type="curve" smooth="yes"/>
      <point x="388" y="778"/>
      <point x="432" y="816"/>
      <point x="432" y="870" type="curve" smooth="yes"/>
      <point x="432" y="925"/>
      <point x="388" y="964"/>
      <point x="328" y="964" type="curve" smooth="yes"/>
      <point x="268" y="964"/>
      <point x="224" y="925"/>
      <point x="224" y="870" type="curve" smooth="yes"/>
      <point x="224" y="816"/>
      <point x="268" y="778"/>
    </contour>
  </outline>
</glyph>
<glyph name="cid40196" format="2">
  <advance height="1000" width="625"/>
  <unicode hex="0118"/>
  <outline>
    <contour>
      <point x="460" y="-268" type="curve" smooth="yes"/>
      <point x="504" y="-268"/>
      <point x="558" y="-249"/>
      <point x="591" y="-226" type="curve"/>
      <point x="550" y="-123" type="line"/>
      <point x="538" y="-131"/>
      <point x="520" y="-140"/>
      <point x="502" y="-140" type="curve" smooth="yes"/>
      <point x="472" y="-140"/>
      <point x="453" y="-127"/>
      <point x="453" y="-99" type="curve" smooth="yes"/>
      <point x="453" y="-60"/>
      <point x="498" y="-11"/>
      <point x="549" y="-11" type="curve" smooth="yes"/>
      <point x="564" y="-11" type="line"/>
      <point x="564" y="143" type="line"/>
      <point x="267" y="143" type="line"/>
      <point x="267" y="290" type="line"/>
      <point x="511" y="290" type="line"/>
      <point x="511" y="442" type="line"/>
      <point x="267" y="442" type="line"/>
      <point x="267" y="571" type="line"/>
      <point x="553" y="571" type="line"/>
      <point x="553" y="725" type="line"/>
      <point x="84" y="725" type="line"/>
      <point x="84" y="-11" type="line"/>
      <point x="400" y="-11" type="line"/>
      <point x="359" y="-35"/>
      <point x="310" y="-87"/>
      <point x="310" y="-153" type="curve" smooth="yes"/>
      <point x="310" y="-226"/>
      <point x="376" y="-268"/>
    </contour>
  </outline>
</glyph>
<glyph name="cid40628" format="2">
  <advance height="1000" width="591"/>
  <unicode hex="0119"/>
  <outline>
    <contour>
      <point x="415" y="-258" type="curve" smooth="yes"/>
      <point x="458" y="-258"/>
      <point x="510" y="-244"/>
      <point x="542" y="-219" type="curve"/>
      <point x="505" y="-125" type="line"/>
      <point x="492" y="-132"/>
      <point x="473" y="-139"/>
      <point x="453" y="-139" type="curve" smooth="yes"/>
      <point x="432" y="-139"/>
      <point x="408" y="-127"/>
      <point x="408" y="-100" type="curve" smooth="yes"/>
      <point x="408" y="-58"/>
      <point x="431" y="-27"/>
      <point x="529" y="40" type="curve"/>
      <point x="471" y="149" type="line"/>
      <point x="431" y="127"/>
      <point x="392" y="114"/>
      <point x="351" y="114" type="curve" smooth="yes"/>
      <point x="283" y="114"/>
      <point x="211" y="145"/>
      <point x="208" y="270" type="curve" smooth="yes"/>
      <point x="203" y="391"/>
      <point x="260" y="426"/>
      <point x="311" y="426" type="curve" smooth="yes"/>
      <point x="372" y="426"/>
      <point x="393" y="387"/>
      <point x="393" y="337" type="curve"/>
      <point x="180" y="337" type="line"/>
      <point x="181" y="215" type="line"/>
      <point x="542" y="215" type="line"/>
      <point x="546" y="230"/>
      <point x="549" y="261"/>
      <point x="549" y="294" type="curve" smooth="yes"/>
      <point x="549" y="446"/>
      <point x="471" y="565"/>
      <point x="306" y="565" type="curve" smooth="yes"/>
      <point x="170" y="565"/>
      <point x="37" y="453"/>
      <point x="37" y="270" type="curve" smooth="yes"/>
      <point x="37" y="84"/>
      <point x="163" y="-25"/>
      <point x="327" y="-25" type="curve" smooth="yes"/>
      <point x="339" y="-25"/>
      <point x="356" y="-20"/>
      <point x="365" y="-17" type="curve"/>
      <point x="363" y="-12" type="line"/>
      <point x="304" y="-51"/>
      <point x="276" y="-91"/>
      <point x="276" y="-143" type="curve" smooth="yes"/>
      <point x="276" y="-221"/>
      <point x="338" y="-258"/>
    </contour>
  </outline>
</glyph>
<glyph name="cid40221" format="2">
  <advance height="1000" width="727"/>
  <unicode hex="011E"/>
  <outline>
    <contour>
      <point x="417" y="-25" type="curve" smooth="yes"/>
      <point x="521" y="-25"/>
      <point x="612" y="16"/>
      <point x="663" y="66" type="curve"/>
      <point x="663" y="412" type="line"/>
      <point x="388" y="412" type="line"/>
      <point x="388" y="262" type="line"/>
      <point x="502" y="262" type="line"/>
      <point x="502" y="151" type="line"/>
      <point x="486" y="139"/>
      <point x="460" y="134"/>
      <point x="436" y="134" type="curve" smooth="yes"/>
      <point x="302" y="134"/>
      <point x="238" y="215"/>
      <point x="238" y="357" type="curve" smooth="yes"/>
      <point x="238" y="498"/>
      <point x="315" y="580"/>
      <point x="420" y="580" type="curve" smooth="yes"/>
      <point x="480" y="580"/>
      <point x="519" y="563"/>
      <point x="555" y="530" type="curve"/>
      <point x="651" y="641" type="line"/>
      <point x="600" y="694"/>
      <point x="522" y="738"/>
      <point x="414" y="738" type="curve" smooth="yes"/>
      <point x="217" y="738"/>
      <point x="51" y="597"/>
      <point x="51" y="352" type="curve" smooth="yes"/>
      <point x="51" y="102"/>
      <point x="212" y="-25"/>
    </contour>
    <contour>
      <point x="416" y="777" type="curve" smooth="yes"/>
      <point x="530" y="777"/>
      <point x="593" y="829"/>
      <point x="605" y="934" type="curve"/>
      <point x="506" y="951" type="line"/>
      <point x="496" y="905"/>
      <point x="463" y="882"/>
      <point x="416" y="882" type="curve" smooth="yes"/>
      <point x="368" y="882"/>
      <point x="336" y="905"/>
      <point x="325" y="951" type="curve"/>
      <point x="227" y="934" type="line"/>
      <point x="238" y="829"/>
      <point x="302" y="777"/>
    </contour>
  </outline>
</glyph>
<glyph name="cid40223" format="2">
  <advance height="1000" width="727"/>
  <unicode hex="0120"/>
  <outline>
    <contour>
      <point x="417" y="-25" type="curve" smooth="yes"/>
      <point x="521" y="-25"/>
      <point x="612" y="16"/>
      <point x="663" y="66" type="curve"/>
      <point x="663" y="412" type="line"/>
      <point x="388" y="412" type="line"/>
      <point x="388" y="262" type="line"/>
      <point x="502" y="262" type="line"/>
      <point x="502" y="151" type="line"/>
      <point x="486" y="139"/>
      <point x="460" y="134"/>
      <point x="436" y="134" type="curve" smooth="yes"/>
      <point x="302" y="134"/>
      <point x="238" y="215"/>
      <point x="238" y="357" type="curve" smooth="yes"/>
      <point x="238" y="498"/>
      <point x="315" y="580"/>
      <point x="420" y="580" type="curve" smooth="yes"/>
      <point x="480" y="580"/>
      <point x="519" y="563"/>
      <point x="555" y="530" type="curve"/>
      <point x="651" y="641" type="line"/>
      <point x="600" y="694"/>
      <point x="522" y="738"/>
      <point x="414" y="738" type="curve" smooth="yes"/>
      <point x="217" y="738"/>
      <point x="51" y="597"/>
      <point x="51" y="352" type="curve" smooth="yes"/>
      <point x="51" y="102"/>
      <point x="212" y="-25"/>
    </contour>
    <contour>
      <point x="416" y="778" type="curve" smooth="yes"/>
      <point x="476" y="778"/>
      <point x="520" y="816"/>
      <point x="520" y="870" type="curve" smooth="yes"/>
      <point x="520" y="925"/>
      <point x="476" y="964"/>
      <point x="416" y="964" type="curve" smooth="yes"/>
      <point x="356" y="964"/>
      <point x="312" y="925"/>
      <point x="312" y="870" type="curve" smooth="yes"/>
      <point x="312" y="816"/>
      <point x="356" y="778"/>
    </contour>
  </outline>
</glyph>
<glyph name="cid40226" format="2">
  <advance height="1000" width="727"/>
  <unicode hex="0122"/>
  <outline>
    <contour>
      <point x="417" y="-25" type="curve" smooth="yes"/>
      <point x="521" y="-25"/>
      <point x="612" y="16"/>
      <point x="663" y="66" type="curve"/>
      <point x="663" y="412" type="line"/>
      <point x="388" y="412" type="line"/>
      <point x="388" y="262" type="line"/>
      <point x="502" y="262" type="line"/>
      <point x="502" y="151" type="line"/>
      <point x="486" y="139"/>
      <point x="460" y="134"/>
      <point x="436" y="134" type="curve" smooth="yes"/>
      <point x="302" y="134"/>
      <point x="238" y="215"/>
      <point x="238" y="357" type="curve" smooth="yes"/>
      <point x="238" y="498"/>
      <point x="315" y="580"/>
      <point x="420" y="580" type="curve" smooth="yes"/>
      <point x="480" y="580"/>
      <point x="519" y="563"/>
      <point x="555" y="530" type="curve"/>
      <point x="651" y="641" type="line"/>
      <point x="600" y="694"/>
      <point x="522" y="738"/>
      <point x="414" y="738" type="curve" smooth="yes"/>
      <point x="217" y="738"/>
      <point x="51" y="597"/>
      <point x="51" y="352" type="curve" smooth="yes"/>
      <point x="51" y="102"/>
      <point x="212" y="-25"/>
    </contour>
    <contour>
      <point x="296" y="-284" type="line"/>
      <point x="442" y="-280"/>
      <point x="528" y="-244"/>
      <point x="528" y="-165" type="curve" smooth="yes"/>
      <point x="528" y="-108"/>
      <point x="488" y="-78"/>
      <point x="363" y="-69" type="curve"/>
      <point x="329" y="-133" type="line"/>
      <point x="379" y="-138"/>
      <point x="398" y="-151"/>
      <point x="398" y="-171" type="curve" smooth="yes"/>
      <point x="398" y="-196"/>
      <point x="371" y="-209"/>
      <point x="284" y="-213" type="curve"/>
    </contour>
  </outline>
</glyph>
<glyph name="cid40232" format="2">
  <advance height="1000" width="767"/>
  <unicode hex="0124"/>
  <outline>
    <contour>
      <point x="84" y="-11" type="line"/>
      <point x="267" y="-11" type="line"/>
      <point x="267" y="287" type="line"/>
      <point x="501" y="287" type="line"/>
      <point x="501" y="-11" type="line"/>
      <point x="684" y="-11" type="line"/>
      <point x="684" y="725" type="line"/>
      <point x="501" y="725" type="line"/>
      <point x="501" y="447" type="line"/>
      <point x="267" y="447" type="line"/>
      <point x="267" y="725" type="line"/>
      <point x="84" y="725" type="line"/>
    </contour>
    <contour>
      <point x="139" y="781" type="line"/>
      <point x="278" y="781" type="line"/>
      <point x="380" y="857" type="line"/>
      <point x="384" y="857" type="line"/>
      <point x="486" y="781" type="line"/>
      <point x="625" y="781" type="line"/>
      <point x="477" y="959" type="line"/>
      <point x="287" y="959" type="line"/>
    </contour>
  </outline>
</glyph>
<glyph name="cid40247" format="2">
  <advance height="1000" width="812"/>
  <unicode hex="0126"/>
  <outline>
    <contour>
      <point x="25" y="521" type="line"/>
      <point x="786" y="521" type="line"/>
      <point x="786" y="643" type="line"/>
      <point x="113" y="643" type="line"/>
      <point x="25" y="636" type="line"/>
    </contour>
    <contour>
      <point x="106" y="-11" type="line"/>
      <point x="289" y="-11" type="line"/>
      <point x="289" y="287" type="line"/>
      <point x="523" y="287" type="line"/>
      <point x="523" y="-11" type="line"/>
      <point x="706" y="-11" type="line"/>
      <point x="706" y="725" type="line"/>
      <point x="523" y="725" type="line"/>
      <point x="523" y="447" type="line"/>
      <point x="289" y="447" type="line"/>
      <point x="289" y="725" type="line"/>
      <point x="106" y="725" type="line"/>
    </contour>
  </outline>
</glyph>
<glyph name="cid40252" format="2">
  <advance height="1000" width="350"/>
  <unicode hex="0128"/>
  <outline>
    <contour>
      <point x="84" y="-11" type="line"/>
      <point x="267" y="-11" type="line"/>
      <point x="267" y="725" type="line"/>
      <point x="84" y="725" type="line"/>
    </contour>
    <contour>
      <point x="258" y="768" type="curve" smooth="yes"/>
      <point x="338" y="768"/>
      <point x="400" y="815"/>
      <point x="407" y="935" type="curve"/>
      <point x="289" y="944" type="line"/>
      <point x="285" y="904"/>
      <point x="270" y="893"/>
      <point x="251" y="893" type="curve" smooth="yes"/>
      <point x="217" y="893"/>
      <point x="177" y="954"/>
      <point x="97" y="954" type="curve" smooth="yes"/>
      <point x="17" y="954"/>
      <point x="-45" y="907"/>
      <point x="-52" y="787" type="curve"/>
      <point x="66" y="778" type="line"/>
      <point x="70" y="817"/>
      <point x="85" y="829"/>
      <point x="104" y="829" type="curve" smooth="yes"/>
      <point x="138" y="829"/>
      <point x="177" y="768"/>
    </contour>
  </outline>
</glyph>
<glyph name="cid40738" format="2">
  <advance height="1000" width="320"/>
  <unicode hex="0129"/>
  <outline>
    <contour>
      <point x="69" y="-11" type="line"/>
      <point x="252" y="-11" type="line"/>
      <point x="252" y="552" type="line"/>
      <point x="69" y="552" type="line"/>
    </contour>
    <contour>
      <point x="234" y="636" type="curve" smooth="yes"/>
      <point x="323" y="636"/>
      <point x="376" y="688"/>
      <point x="379" y="812" type="curve"/>
      <point x="266" y="818" type="line"/>
      <point x="261" y="777"/>
      <point x="250" y="762"/>
      <point x="229" y="762" type="curve" smooth="yes"/>
      <point x="198" y="762"/>
      <point x="156" y="829"/>
      <point x="87" y="829" type="curve" smooth="yes"/>
      <point x="-2" y="829"/>
      <point x="-55" y="777"/>
      <point x="-58" y="653" type="curve"/>
      <point x="55" y="647" type="line"/>
      <point x="60" y="688"/>
      <point x="71" y="703"/>
      <point x="92" y="703" type="curve" smooth="yes"/>
      <point x="123" y="703"/>
      <point x="165" y="636"/>
    </contour>
  </outline>
</glyph>
<glyph name="cid40256" format="2">
  <advance height="1000" width="350"/>
  <unicode hex="012A"/>
  <outline>
    <contour>
      <point x="84" y="-11" type="line"/>
      <point x="267" y="-11" type="line"/>
      <point x="267" y="725" type="line"/>
      <point x="84" y="725" type="line"/>
    </contour>
    <contour>
      <point x="0" y="800" type="line"/>
      <point x="355" y="800" type="line"/>
      <point x="355" y="916" type="line"/>
      <point x="0" y="916" type="line"/>
    </contour>
  </outline>
</glyph>
<glyph name="cid40746" format="2">
  <advance height="1000" width="320"/>
  <unicode hex="012B"/>
  <outline>
    <contour>
      <point x="69" y="-11" type="line"/>
      <point x="252" y="-11" type="line"/>
      <point x="252" y="552" type="line"/>
      <point x="69" y="552" type="line"/>
    </contour>
    <contour>
      <point x="-11" y="655" type="line"/>
      <point x="332" y="655" type="line"/>
      <point x="332" y="771" type="line"/>
      <point x="-11" y="771" type="line"/>
    </contour>
  </outline>
</glyph>
<glyph name="cid40747" format="2">
  <advance height="1000" width="320"/>
  <unicode hex="012D"/>
  <outline>
    <contour>
      <point x="69" y="-11" type="line"/>
      <point x="252" y="-11" type="line"/>
      <point x="252" y="552" type="line"/>
      <point x="69" y="552" type="line"/>
    </contour>
    <contour>
      <point x="160" y="631" type="curve" smooth="yes"/>
      <point x="293" y="631"/>
      <point x="353" y="707"/>
      <point x="355" y="811" type="curve"/>
      <point x="252" y="827" type="line"/>
      <point x="245" y="781"/>
      <point x="217" y="744"/>
      <point x="160" y="744" type="curve" smooth="yes"/>
      <point x="104" y="744"/>
      <point x="76" y="781"/>
      <point x="69" y="827" type="curve"/>
      <point x="-34" y="811" type="line"/>
      <point x="-32" y="707"/>
      <point x="29" y="631"/>
    </contour>
  </outline>
</glyph>
<glyph name="cid40259" format="2">
  <advance height="1000" width="350"/>
  <unicode hex="0130"/>
  <outline>
    <contour>
      <point x="84" y="-11" type="line"/>
      <point x="267" y="-11" type="line"/>
      <point x="267" y="725" type="line"/>
      <point x="84" y="725" type="line"/>
    </contour>
    <contour>
      <point x="177" y="778" type="curve" smooth="yes"/>
      <point x="237" y="778"/>
      <point x="281" y="816"/>
      <point x="281" y="870" type="curve" smooth="yes"/>
      <point x="281" y="925"/>
      <point x="237" y="964"/>
      <point x="177" y="964" type="curve" smooth="yes"/>
      <point x="118" y="964"/>
      <point x="73" y="925"/>
      <point x="73" y="870" type="curve" smooth="yes"/>
      <point x="73" y="816"/>
      <point x="118" y="778"/>
    </contour>
  </outline>
</glyph>
<glyph name="cid40765" format="2">
  <advance height="1000" width="320"/>
  <unicode hex="0131"/>
  <outline>
    <contour>
      <point x="69" y="-11" type="line"/>
      <point x="252" y="-11" type="line"/>
      <point x="252" y="552" type="line"/>
      <point x="69" y="552" type="line"/>
    </contour>
  </outline>
</glyph>
<glyph name="cid40270" format="2">
  <advance height="1000" width="701"/>
  <unicode hex="0132"/>
  <outline>
    <contour>
      <point x="84" y="-11" type="line"/>
      <point x="267" y="-11" type="line"/>
      <point x="267" y="725" type="line"/>
      <point x="84" y="725" type="line"/>
    </contour>
    <contour>
      <point x="406" y="-220" type="curve" smooth="yes"/>
      <point x="568" y="-220"/>
      <point x="617" y="-110"/>
      <point x="617" y="15" type="curve" smooth="yes"/>
      <point x="617" y="725" type="line"/>
      <point x="434" y="725" type="line"/>
      <point x="434" y="9" type="line" smooth="yes"/>
      <point x="434" y="-53"/>
      <point x="418" y="-78"/>
      <point x="376" y="-78" type="curve" smooth="yes"/>
      <point x="362" y="-78"/>
      <point x="350" y="-74"/>
      <point x="334" y="-70" type="curve"/>
      <point x="302" y="-205" type="line"/>
      <point x="327" y="-213"/>
      <point x="356" y="-220"/>
    </contour>
  </outline>
</glyph>
<glyph name="cid40767" format="2">
  <advance height="1000" width="642"/>
  <unicode hex="0133"/>
  <outline>
    <contour>
      <point x="69" y="-11" type="line"/>
      <point x="252" y="-11" type="line"/>
      <point x="252" y="552" type="line"/>
      <point x="69" y="552" type="line"/>
    </contour>
    <contour>
      <point x="160" y="627" type="curve" smooth="yes"/>
      <point x="220" y="627"/>
      <point x="262" y="664"/>
      <point x="262" y="720" type="curve" smooth="yes"/>
      <point x="262" y="777"/>
      <point x="220" y="813"/>
      <point x="160" y="813" type="curve" smooth="yes"/>
      <point x="101" y="813"/>
      <point x="59" y="777"/>
      <point x="59" y="720" type="curve" smooth="yes"/>
      <point x="59" y="664"/>
      <point x="101" y="627"/>
    </contour>
    <contour>
      <point x="362" y="-227" type="curve" smooth="yes"/>
      <point x="524" y="-227"/>
      <point x="573" y="-117"/>
      <point x="573" y="8" type="curve" smooth="yes"/>
      <point x="573" y="552" type="line"/>
      <point x="391" y="552" type="line"/>
      <point x="391" y="3" type="line" smooth="yes"/>
      <point x="391" y="-60"/>
      <point x="375" y="-84"/>
      <point x="332" y="-84" type="curve" smooth="yes"/>
      <point x="319" y="-84"/>
      <point x="306" y="-82"/>
      <point x="290" y="-78" type="curve"/>
      <point x="259" y="-211" type="line"/>
      <point x="283" y="-220"/>
      <point x="312" y="-227"/>
    </contour>
    <contour>
      <point x="481" y="627" type="curve" smooth="yes"/>
      <point x="541" y="627"/>
      <point x="583" y="664"/>
      <point x="583" y="720" type="curve" smooth="yes"/>
      <point x="583" y="777"/>
      <point x="541" y="813"/>
      <point x="481" y="813" type="curve" smooth="yes"/>
      <point x="421" y="813"/>
      <point x="380" y="777"/>
      <point x="380" y="720" type="curve" smooth="yes"/>
      <point x="380" y="664"/>
      <point x="421" y="627"/>
    </contour>
  </outline>
</glyph>
<glyph name="cid40271" format="2">
  <advance height="1000" width="582"/>
  <unicode hex="0134"/>
  <outline>
    <contour>
      <point x="247" y="-25" type="curve" smooth="yes"/>
      <point x="423" y="-25"/>
      <point x="503" y="97"/>
      <point x="503" y="247" type="curve" smooth="yes"/>
      <point x="503" y="725" type="line"/>
      <point x="320" y="725" type="line"/>
      <point x="320" y="261" type="line" smooth="yes"/>
      <point x="320" y="162"/>
      <point x="289" y="134"/>
      <point x="228" y="134" type="curve" smooth="yes"/>
      <point x="190" y="134"/>
      <point x="154" y="156"/>
      <point x="133" y="195" type="curve"/>
      <point x="18" y="116" type="line"/>
      <point x="67" y="18"/>
      <point x="140" y="-25"/>
    </contour>
    <contour>
      <point x="166" y="781" type="line"/>
      <point x="305" y="781" type="line"/>
      <point x="407" y="857" type="line"/>
      <point x="411" y="857" type="line"/>
      <point x="513" y="781" type="line"/>
      <point x="652" y="781" type="line"/>
      <point x="504" y="959" type="line"/>
      <point x="314" y="959" type="line"/>
    </contour>
  </outline>
</glyph>
<glyph name="cid40276" format="2">
  <advance height="1000" width="703"/>
  <unicode hex="0136"/>
  <outline>
    <contour>
      <point x="84" y="-11" type="line"/>
      <point x="267" y="-11" type="line"/>
      <point x="267" y="178" type="line"/>
      <point x="344" y="283" type="line"/>
      <point x="513" y="-11" type="line"/>
      <point x="713" y="-11" type="line"/>
      <point x="450" y="427" type="line"/>
      <point x="671" y="725" type="line"/>
      <point x="470" y="725" type="line"/>
      <point x="271" y="440" type="line"/>
      <point x="267" y="440" type="line"/>
      <point x="267" y="725" type="line"/>
      <point x="84" y="725" type="line"/>
    </contour>
    <contour>
      <point x="257" y="-284" type="line"/>
      <point x="402" y="-280"/>
      <point x="488" y="-244"/>
      <point x="488" y="-165" type="curve" smooth="yes"/>
      <point x="488" y="-108"/>
      <point x="449" y="-78"/>
      <point x="323" y="-69" type="curve"/>
      <point x="289" y="-133" type="line"/>
      <point x="339" y="-138"/>
      <point x="358" y="-151"/>
      <point x="358" y="-171" type="curve" smooth="yes"/>
      <point x="358" y="-196"/>
      <point x="331" y="-209"/>
      <point x="244" y="-213" type="curve"/>
    </contour>
  </outline>
</glyph>
<glyph name="cid40782" format="2">
  <advance height="1000" width="633"/>
  <unicode hex="0137"/>
  <outline>
    <contour>
      <point x="69" y="-11" type="line"/>
      <point x="250" y="-11" type="line"/>
      <point x="250" y="128" type="line"/>
      <point x="311" y="197" type="line"/>
      <point x="429" y="-11" type="line"/>
      <point x="627" y="-11" type="line"/>
      <point x="417" y="317" type="line"/>
      <point x="615" y="552" type="line"/>
      <point x="415" y="552" type="line"/>
      <point x="254" y="347" type="line"/>
      <point x="250" y="347" type="line"/>
      <point x="250" y="778" type="line"/>
      <point x="69" y="778" type="line"/>
    </contour>
    <contour>
      <point x="216" y="-284" type="line"/>
      <point x="362" y="-280"/>
      <point x="447" y="-244"/>
      <point x="447" y="-165" type="curve" smooth="yes"/>
      <point x="447" y="-108"/>
      <point x="408" y="-78"/>
      <point x="283" y="-69" type="curve"/>
      <point x="249" y="-133" type="line"/>
      <point x="298" y="-138"/>
      <point x="318" y="-151"/>
      <point x="318" y="-171" type="curve" smooth="yes"/>
      <point x="318" y="-196"/>
      <point x="290" y="-209"/>
      <point x="203" y="-213" type="curve"/>
    </contour>
  </outline>
</glyph>
<glyph name="cid40787" format="2">
  <advance height="1000" width="633"/>
  <unicode hex="0138"/>
  <outline>
    <contour>
      <point x="69" y="-11" type="line"/>
      <point x="252" y="-11" type="line"/>
      <point x="252" y="119" type="line"/>
      <point x="311" y="191" type="line"/>
      <point x="429" y="-11" type="line"/>
      <point x="627" y="-11" type="line"/>
      <point x="419" y="319" type="line"/>
      <point x="615" y="552" type="line"/>
      <point x="417" y="552" type="line"/>
      <point x="255" y="340" type="line"/>
      <point x="252" y="340" type="line"/>
      <point x="252" y="552" type="line"/>
      <point x="69" y="552" type="line"/>
    </contour>
  </outline>
</glyph>
<glyph name="cid40280" format="2">
  <advance height="1000" width="593"/>
  <unicode hex="0139"/>
  <outline>
    <contour>
      <point x="84" y="-11" type="line"/>
      <point x="550" y="-11" type="line"/>
      <point x="550" y="143" type="line"/>
      <point x="267" y="143" type="line"/>
      <point x="267" y="725" type="line"/>
      <point x="84" y="725" type="line"/>
    </contour>
    <contour>
      <point x="79" y="781" type="line"/>
      <point x="229" y="781" type="line"/>
      <point x="431" y="939" type="line"/>
      <point x="420" y="959" type="line"/>
      <point x="217" y="959" type="line"/>
    </contour>
  </outline>
</glyph>
<glyph name="cid40284" format="2">
  <advance height="1000" width="593"/>
  <unicode hex="013B"/>
  <outline>
    <contour>
      <point x="84" y="-11" type="line"/>
      <point x="550" y="-11" type="line"/>
      <point x="550" y="143" type="line"/>
      <point x="267" y="143" type="line"/>
      <point x="267" y="725" type="line"/>
      <point x="84" y="725" type="line"/>
    </contour>
    <contour>
      <point x="209" y="-284" type="line"/>
      <point x="355" y="-280"/>
      <point x="441" y="-244"/>
      <point x="441" y="-165" type="curve" smooth="yes"/>
      <point x="441" y="-108"/>
      <point x="401" y="-78"/>
      <point x="276" y="-69" type="curve"/>
      <point x="242" y="-133" type="line"/>
      <point x="292" y="-138"/>
      <point x="311" y="-151"/>
      <point x="311" y="-171" type="curve" smooth="yes"/>
      <point x="311" y="-196"/>
      <point x="284" y="-209"/>
      <point x="197" y="-213" type="curve"/>
    </contour>
  </outline>
</glyph>
<glyph name="cid40793" format="2">
  <advance height="1000" width="331"/>
  <unicode hex="013C"/>
  <outline>
    <contour>
      <point x="234" y="-25" type="curve" smooth="yes"/>
      <point x="275" y="-25"/>
      <point x="305" y="-18"/>
      <point x="324" y="-9" type="curve"/>
      <point x="303" y="125" type="line"/>
      <point x="294" y="122"/>
      <point x="289" y="122"/>
      <point x="283" y="122" type="curve" smooth="yes"/>
      <point x="269" y="122"/>
      <point x="252" y="134"/>
      <point x="252" y="171" type="curve" smooth="yes"/>
      <point x="252" y="778" type="line"/>
      <point x="69" y="778" type="line"/>
      <point x="69" y="178" type="line" smooth="yes"/>
      <point x="69" y="57"/>
      <point x="110" y="-25"/>
    </contour>
    <contour>
      <point x="69" y="-284" type="line"/>
      <point x="215" y="-280"/>
      <point x="301" y="-244"/>
      <point x="301" y="-165" type="curve" smooth="yes"/>
      <point x="301" y="-108"/>
      <point x="261" y="-78"/>
      <point x="136" y="-69" type="curve"/>
      <point x="102" y="-133" type="line"/>
      <point x="151" y="-138"/>
      <point x="171" y="-151"/>
      <point x="171" y="-171" type="curve" smooth="yes"/>
      <point x="171" y="-196"/>
      <point x="144" y="-209"/>
      <point x="57" y="-213" type="curve"/>
    </contour>
  </outline>
</glyph>
<glyph name="cid40282" format="2">
  <advance height="1000" width="593"/>
  <unicode hex="013D"/>
  <outline>
    <contour>
      <point x="84" y="-11" type="line"/>
      <point x="550" y="-11" type="line"/>
      <point x="550" y="143" type="line"/>
      <point x="267" y="143" type="line"/>
      <point x="267" y="725" type="line"/>
      <point x="84" y="725" type="line"/>
    </contour>
    <contour>
      <point x="403" y="564" type="line"/>
      <point x="481" y="564" type="line"/>
      <point x="511" y="736" type="line"/>
      <point x="513" y="817" type="line"/>
      <point x="398" y="817" type="line"/>
    </contour>
  </outline>
</glyph>
<glyph name="cid40298" format="2">
  <advance height="1000" width="593"/>
  <unicode hex="013F"/>
  <outline>
    <contour>
      <point x="84" y="-11" type="line"/>
      <point x="550" y="-11" type="line"/>
      <point x="550" y="143" type="line"/>
      <point x="267" y="143" type="line"/>
      <point x="267" y="725" type="line"/>
      <point x="84" y="725" type="line"/>
    </contour>
    <contour>
      <point x="472" y="249" type="curve" smooth="yes"/>
      <point x="534" y="249"/>
      <point x="580" y="299"/>
      <point x="580" y="361" type="curve" smooth="yes"/>
      <point x="580" y="424"/>
      <point x="534" y="474"/>
      <point x="472" y="474" type="curve" smooth="yes"/>
      <point x="410" y="474"/>
      <point x="365" y="424"/>
      <point x="365" y="361" type="curve" smooth="yes"/>
      <point x="365" y="299"/>
      <point x="410" y="249"/>
    </contour>
  </outline>
</glyph>
<glyph name="cid40818" format="2">
  <advance height="1000" width="536"/>
  <unicode hex="0140"/>
  <outline>
    <contour>
      <point x="234" y="-25" type="curve" smooth="yes"/>
      <point x="275" y="-25"/>
      <point x="305" y="-18"/>
      <point x="324" y="-9" type="curve"/>
      <point x="303" y="125" type="line"/>
      <point x="294" y="122"/>
      <point x="289" y="122"/>
      <point x="283" y="122" type="curve" smooth="yes"/>
      <point x="269" y="122"/>
      <point x="252" y="134"/>
      <point x="252" y="171" type="curve" smooth="yes"/>
      <point x="252" y="778" type="line"/>
      <point x="69" y="778" type="line"/>
      <point x="69" y="178" type="line" smooth="yes"/>
      <point x="69" y="57"/>
      <point x="110" y="-25"/>
    </contour>
    <contour>
      <point x="427" y="249" type="curve" smooth="yes"/>
      <point x="489" y="249"/>
      <point x="534" y="299"/>
      <point x="534" y="361" type="curve" smooth="yes"/>
      <point x="534" y="424"/>
      <point x="489" y="474"/>
      <point x="427" y="474" type="curve" smooth="yes"/>
      <point x="365" y="474"/>
      <point x="320" y="424"/>
      <point x="320" y="361" type="curve" smooth="yes"/>
      <point x="320" y="299"/>
      <point x="365" y="249"/>
    </contour>
  </outline>
</glyph>
<glyph name="cid40290" format="2">
  <advance height="1000" width="625"/>
  <unicode hex="0141"/>
  <outline>
    <contour>
      <point x="34" y="191" type="line"/>
      <point x="137" y="239" type="line"/>
      <point x="279" y="303" type="line"/>
      <point x="536" y="420" type="line"/>
      <point x="483" y="540" type="line"/>
      <point x="278" y="447" type="line"/>
      <point x="134" y="382" type="line"/>
      <point x="-19" y="312" type="line"/>
    </contour>
    <contour>
      <point x="116" y="-11" type="line"/>
      <point x="583" y="-11" type="line"/>
      <point x="583" y="143" type="line"/>
      <point x="299" y="143" type="line"/>
      <point x="299" y="725" type="line"/>
      <point x="116" y="725" type="line"/>
    </contour>
  </outline>
</glyph>
<glyph name="cid40805" format="2">
  <advance height="1000" width="420"/>
  <unicode hex="0142"/>
  <outline>
    <contour>
      <point x="43" y="283" type="line"/>
      <point x="121" y="317" type="line"/>
      <point x="276" y="389" type="line"/>
      <point x="437" y="458" type="line"/>
      <point x="376" y="573" type="line"/>
      <point x="275" y="529" type="line"/>
      <point x="120" y="457" type="line"/>
      <point x="-18" y="398" type="line"/>
    </contour>
    <contour>
      <point x="277" y="-25" type="curve" smooth="yes"/>
      <point x="318" y="-25"/>
      <point x="348" y="-18"/>
      <point x="367" y="-9" type="curve"/>
      <point x="346" y="125" type="line"/>
      <point x="337" y="122"/>
      <point x="332" y="122"/>
      <point x="325" y="122" type="curve" smooth="yes"/>
      <point x="312" y="122"/>
      <point x="295" y="134"/>
      <point x="295" y="171" type="curve" smooth="yes"/>
      <point x="295" y="778" type="line"/>
      <point x="112" y="778" type="line"/>
      <point x="112" y="178" type="line" smooth="yes"/>
      <point x="112" y="57"/>
      <point x="153" y="-25"/>
    </contour>
  </outline>
</glyph>
<glyph name="cid40305" format="2">
  <advance height="1000" width="756"/>
  <unicode hex="0143"/>
  <outline>
    <contour>
      <point x="84" y="-11" type="line"/>
      <point x="258" y="-11" type="line"/>
      <point x="258" y="222" type="line" smooth="yes"/>
      <point x="258" y="311"/>
      <point x="244" y="414"/>
      <point x="235" y="496" type="curve"/>
      <point x="240" y="496" type="line"/>
      <point x="262" y="440"/>
      <point x="285" y="381"/>
      <point x="311" y="331" type="curve" smooth="yes"/>
      <point x="484" y="-11" type="line"/>
      <point x="672" y="-11" type="line"/>
      <point x="672" y="725" type="line"/>
      <point x="498" y="725" type="line"/>
      <point x="498" y="492" type="line" smooth="yes"/>
      <point x="498" y="404"/>
      <point x="513" y="296"/>
      <point x="521" y="217" type="curve"/>
      <point x="516" y="217" type="line"/>
      <point x="494" y="274"/>
      <point x="471" y="333"/>
      <point x="446" y="382" type="curve" smooth="yes"/>
      <point x="272" y="725" type="line"/>
      <point x="84" y="725" type="line"/>
    </contour>
    <contour>
      <point x="283" y="781" type="line"/>
      <point x="433" y="781" type="line"/>
      <point x="634" y="939" type="line"/>
      <point x="624" y="959" type="line"/>
      <point x="420" y="959" type="line"/>
    </contour>
  </outline>
</glyph>
<glyph name="cid40310" format="2">
  <advance height="1000" width="756"/>
  <unicode hex="0145"/>
  <outline>
    <contour>
      <point x="84" y="-11" type="line"/>
      <point x="258" y="-11" type="line"/>
      <point x="258" y="222" type="line" smooth="yes"/>
      <point x="258" y="311"/>
      <point x="244" y="414"/>
      <point x="235" y="496" type="curve"/>
      <point x="240" y="496" type="line"/>
      <point x="262" y="440"/>
      <point x="285" y="381"/>
      <point x="311" y="331" type="curve" smooth="yes"/>
      <point x="484" y="-11" type="line"/>
      <point x="672" y="-11" type="line"/>
      <point x="672" y="725" type="line"/>
      <point x="498" y="725" type="line"/>
      <point x="498" y="492" type="line" smooth="yes"/>
      <point x="498" y="404"/>
      <point x="513" y="296"/>
      <point x="521" y="217" type="curve"/>
      <point x="516" y="217" type="line"/>
      <point x="494" y="274"/>
      <point x="471" y="333"/>
      <point x="446" y="382" type="curve" smooth="yes"/>
      <point x="272" y="725" type="line"/>
      <point x="84" y="725" type="line"/>
    </contour>
    <contour>
      <point x="273" y="-284" type="line"/>
      <point x="419" y="-280"/>
      <point x="505" y="-244"/>
      <point x="505" y="-165" type="curve" smooth="yes"/>
      <point x="505" y="-108"/>
      <point x="466" y="-78"/>
      <point x="340" y="-69" type="curve"/>
      <point x="306" y="-133" type="line"/>
      <point x="356" y="-138"/>
      <point x="375" y="-151"/>
      <point x="375" y="-171" type="curve" smooth="yes"/>
      <point x="375" y="-196"/>
      <point x="348" y="-209"/>
      <point x="261" y="-213" type="curve"/>
    </contour>
  </outline>
</glyph>
<glyph name="cid40834" format="2">
  <advance height="1000" width="653"/>
  <unicode hex="0146"/>
  <outline>
    <contour>
      <point x="69" y="-11" type="line"/>
      <point x="252" y="-11" type="line"/>
      <point x="252" y="363" type="line"/>
      <point x="284" y="394"/>
      <point x="306" y="410"/>
      <point x="345" y="410" type="curve" smooth="yes"/>
      <point x="386" y="410"/>
      <point x="407" y="389"/>
      <point x="407" y="313" type="curve" smooth="yes"/>
      <point x="407" y="-11" type="line"/>
      <point x="590" y="-11" type="line"/>
      <point x="590" y="337" type="line" smooth="yes"/>
      <point x="590" y="477"/>
      <point x="538" y="565"/>
      <point x="414" y="565" type="curve" smooth="yes"/>
      <point x="338" y="565"/>
      <point x="281" y="527"/>
      <point x="235" y="483" type="curve"/>
      <point x="231" y="483" type="line"/>
      <point x="218" y="552" type="line"/>
      <point x="69" y="552" type="line"/>
    </contour>
    <contour>
      <point x="207" y="-284" type="line"/>
      <point x="353" y="-280"/>
      <point x="438" y="-244"/>
      <point x="438" y="-165" type="curve" smooth="yes"/>
      <point x="438" y="-108"/>
      <point x="399" y="-78"/>
      <point x="273" y="-69" type="curve"/>
      <point x="240" y="-133" type="line"/>
      <point x="289" y="-138"/>
      <point x="308" y="-151"/>
      <point x="308" y="-171" type="curve" smooth="yes"/>
      <point x="308" y="-196"/>
      <point x="281" y="-209"/>
      <point x="194" y="-213" type="curve"/>
    </contour>
  </outline>
</glyph>
<glyph name="cid40306" format="2">
  <advance height="1000" width="756"/>
  <unicode hex="0147"/>
  <outline>
    <contour>
      <point x="84" y="-11" type="line"/>
      <point x="258" y="-11" type="line"/>
      <point x="258" y="222" type="line" smooth="yes"/>
      <point x="258" y="311"/>
      <point x="244" y="414"/>
      <point x="235" y="496" type="curve"/>
      <point x="240" y="496" type="line"/>
      <point x="262" y="440"/>
      <point x="285" y="381"/>
      <point x="311" y="331" type="curve" smooth="yes"/>
      <point x="484" y="-11" type="line"/>
      <point x="672" y="-11" type="line"/>
      <point x="672" y="725" type="line"/>
      <point x="498" y="725" type="line"/>
      <point x="498" y="492" type="line" smooth="yes"/>
      <point x="498" y="404"/>
      <point x="513" y="296"/>
      <point x="521" y="217" type="curve"/>
      <point x="516" y="217" type="line"/>
      <point x="494" y="274"/>
      <point x="471" y="333"/>
      <point x="446" y="382" type="curve" smooth="yes"/>
      <point x="272" y="725" type="line"/>
      <point x="84" y="725" type="line"/>
    </contour>
    <contour>
      <point x="288" y="781" type="line"/>
      <point x="478" y="781" type="line"/>
      <point x="626" y="959" type="line"/>
      <point x="487" y="959" type="line"/>
      <point x="385" y="888" type="line"/>
      <point x="381" y="888" type="line"/>
      <point x="279" y="959" type="line"/>
      <point x="140" y="959" type="line"/>
    </contour>
  </outline>
</glyph>
<glyph name="cid40842" format="2">
  <advance height="1000" width="982"/>
  <unicode hex="0149"/>
  <outline>
    <contour>
      <point x="123" y="389" type="line"/>
      <point x="263" y="434"/>
      <point x="312" y="531"/>
      <point x="312" y="639" type="curve" smooth="yes"/>
      <point x="312" y="733"/>
      <point x="252" y="791"/>
      <point x="163" y="791" type="curve" smooth="yes"/>
      <point x="103" y="791"/>
      <point x="53" y="749"/>
      <point x="53" y="687" type="curve" smooth="yes"/>
      <point x="53" y="631"/>
      <point x="101" y="598"/>
      <point x="148" y="598" type="curve" smooth="yes"/>
      <point x="174" y="598"/>
      <point x="205" y="612"/>
      <point x="220" y="627" type="curve"/>
      <point x="192" y="627" type="line"/>
      <point x="193" y="621"/>
      <point x="194" y="615"/>
      <point x="194" y="607" type="curve" smooth="yes"/>
      <point x="194" y="565"/>
      <point x="155" y="501"/>
      <point x="80" y="477" type="curve"/>
    </contour>
    <contour>
      <point x="398" y="-11" type="line"/>
      <point x="581" y="-11" type="line"/>
      <point x="581" y="363" type="line"/>
      <point x="612" y="394"/>
      <point x="635" y="410"/>
      <point x="673" y="410" type="curve" smooth="yes"/>
      <point x="715" y="410"/>
      <point x="736" y="389"/>
      <point x="736" y="313" type="curve" smooth="yes"/>
      <point x="736" y="-11" type="line"/>
      <point x="919" y="-11" type="line"/>
      <point x="919" y="337" type="line" smooth="yes"/>
      <point x="919" y="477"/>
      <point x="867" y="565"/>
      <point x="742" y="565" type="curve" smooth="yes"/>
      <point x="667" y="565"/>
      <point x="610" y="527"/>
      <point x="564" y="483" type="curve"/>
      <point x="559" y="483" type="line"/>
      <point x="547" y="552" type="line"/>
      <point x="398" y="552" type="line"/>
    </contour>
  </outline>
</glyph>
<glyph name="cid40314" format="2">
  <advance height="1000" width="760"/>
  <unicode hex="014A"/>
  <outline>
    <contour>
      <point x="467" y="-25" type="curve" smooth="yes"/>
      <point x="636" y="-25"/>
      <point x="710" y="104"/>
      <point x="710" y="363" type="curve" smooth="yes"/>
      <point x="710" y="636"/>
      <point x="601" y="738"/>
      <point x="458" y="738" type="curve" smooth="yes"/>
      <point x="383" y="738"/>
      <point x="316" y="709"/>
      <point x="260" y="648" type="curve"/>
      <point x="260" y="725" type="line"/>
      <point x="84" y="725" type="line"/>
      <point x="84" y="-11" type="line"/>
      <point x="267" y="-11" type="line"/>
      <point x="267" y="492" type="line"/>
      <point x="302" y="552"/>
      <point x="359" y="580"/>
      <point x="401" y="580" type="curve" smooth="yes"/>
      <point x="478" y="580"/>
      <point x="522" y="519"/>
      <point x="522" y="363" type="curve" smooth="yes"/>
      <point x="522" y="181"/>
      <point x="488" y="146"/>
      <point x="445" y="146" type="curve" smooth="yes"/>
      <point x="427" y="146"/>
      <point x="414" y="148"/>
      <point x="401" y="153" type="curve"/>
      <point x="363" y="-3" type="line"/>
      <point x="385" y="-16"/>
      <point x="434" y="-25"/>
    </contour>
  </outline>
</glyph>
<glyph name="cid40844" format="2">
  <advance height="1000" width="653"/>
  <unicode hex="014B"/>
  <outline>
    <contour>
      <point x="377" y="-227" type="curve" smooth="yes"/>
      <point x="540" y="-227"/>
      <point x="590" y="-117"/>
      <point x="590" y="8" type="curve" smooth="yes"/>
      <point x="590" y="337" type="line" smooth="yes"/>
      <point x="590" y="477"/>
      <point x="538" y="565"/>
      <point x="414" y="565" type="curve" smooth="yes"/>
      <point x="338" y="565"/>
      <point x="281" y="527"/>
      <point x="235" y="483" type="curve"/>
      <point x="231" y="483" type="line"/>
      <point x="218" y="552" type="line"/>
      <point x="69" y="552" type="line"/>
      <point x="69" y="-11" type="line"/>
      <point x="252" y="-11" type="line"/>
      <point x="252" y="363" type="line"/>
      <point x="284" y="394"/>
      <point x="306" y="410"/>
      <point x="345" y="410" type="curve" smooth="yes"/>
      <point x="386" y="410"/>
      <point x="407" y="389"/>
      <point x="407" y="313" type="curve" smooth="yes"/>
      <point x="407" y="3" type="line" smooth="yes"/>
      <point x="407" y="-60"/>
      <point x="391" y="-84"/>
      <point x="349" y="-84" type="curve" smooth="yes"/>
      <point x="334" y="-84"/>
      <point x="322" y="-82"/>
      <point x="306" y="-78" type="curve"/>
      <point x="275" y="-211" type="line"/>
      <point x="298" y="-220"/>
      <point x="328" y="-227"/>
    </contour>
  </outline>
</glyph>
<glyph name="cid40329" format="2">
  <advance height="1000" width="779"/>
  <unicode hex="014E"/>
  <outline>
    <contour>
      <point x="389" y="-25" type="curve" smooth="yes"/>
      <point x="591" y="-25"/>
      <point x="728" y="119"/>
      <point x="728" y="360" type="curve" smooth="yes"/>
      <point x="728" y="600"/>
      <point x="591" y="738"/>
      <point x="389" y="738" type="curve" smooth="yes"/>
      <point x="188" y="738"/>
      <point x="51" y="601"/>
      <point x="51" y="360" type="curve" smooth="yes"/>
      <point x="51" y="119"/>
      <point x="188" y="-25"/>
    </contour>
    <contour>
      <point x="389" y="134" type="curve" smooth="yes"/>
      <point x="296" y="134"/>
      <point x="238" y="221"/>
      <point x="238" y="360" type="curve" smooth="yes"/>
      <point x="238" y="499"/>
      <point x="296" y="580"/>
      <point x="389" y="580" type="curve" smooth="yes"/>
      <point x="483" y="580"/>
      <point x="540" y="499"/>
      <point x="540" y="360" type="curve" smooth="yes"/>
      <point x="540" y="221"/>
      <point x="483" y="134"/>
    </contour>
    <contour>
      <point x="389" y="777" type="curve" smooth="yes"/>
      <point x="503" y="777"/>
      <point x="566" y="829"/>
      <point x="577" y="934" type="curve"/>
      <point x="479" y="951" type="line"/>
      <point x="469" y="905"/>
      <point x="436" y="882"/>
      <point x="389" y="882" type="curve" smooth="yes"/>
      <point x="341" y="882"/>
      <point x="308" y="905"/>
      <point x="298" y="951" type="curve"/>
      <point x="200" y="934" type="line"/>
      <point x="211" y="829"/>
      <point x="275" y="777"/>
    </contour>
  </outline>
</glyph>
<glyph name="cid40862" format="2">
  <advance height="1000" width="631"/>
  <unicode hex="014F"/>
  <outline>
    <contour>
      <point x="315" y="-25" type="curve" smooth="yes"/>
      <point x="459" y="-25"/>
      <point x="592" y="84"/>
      <point x="592" y="270" type="curve" smooth="yes"/>
      <point x="592" y="458"/>
      <point x="459" y="565"/>
      <point x="315" y="565" type="curve" smooth="yes"/>
      <point x="172" y="565"/>
      <point x="38" y="458"/>
      <point x="38" y="270" type="curve" smooth="yes"/>
      <point x="38" y="84"/>
      <point x="172" y="-25"/>
    </contour>
    <contour>
      <point x="315" y="122" type="curve" smooth="yes"/>
      <point x="252" y="122"/>
      <point x="225" y="180"/>
      <point x="225" y="270" type="curve" smooth="yes"/>
      <point x="225" y="361"/>
      <point x="252" y="418"/>
      <point x="315" y="418" type="curve" smooth="yes"/>
      <point x="379" y="418"/>
      <point x="406" y="361"/>
      <point x="406" y="270" type="curve" smooth="yes"/>
      <point x="406" y="180"/>
      <point x="379" y="122"/>
    </contour>
    <contour>
      <point x="315" y="631" type="curve" smooth="yes"/>
      <point x="447" y="631"/>
      <point x="507" y="707"/>
      <point x="510" y="811" type="curve"/>
      <point x="407" y="827" type="line"/>
      <point x="400" y="781"/>
      <point x="372" y="744"/>
      <point x="315" y="744" type="curve" smooth="yes"/>
      <point x="259" y="744"/>
      <point x="231" y="781"/>
      <point x="224" y="827" type="curve"/>
      <point x="121" y="811" type="line"/>
      <point x="123" y="707"/>
      <point x="184" y="631"/>
    </contour>
  </outline>
</glyph>
<glyph name="cid40864" format="2">
  <advance height="1000" width="631"/>
  <unicode hex="0151"/>
  <outline>
    <contour>
      <point x="315" y="-25" type="curve" smooth="yes"/>
      <point x="459" y="-25"/>
      <point x="592" y="84"/>
      <point x="592" y="270" type="curve" smooth="yes"/>
      <point x="592" y="458"/>
      <point x="459" y="565"/>
      <point x="315" y="565" type="curve" smooth="yes"/>
      <point x="172" y="565"/>
      <point x="38" y="458"/>
      <point x="38" y="270" type="curve" smooth="yes"/>
      <point x="38" y="84"/>
      <point x="172" y="-25"/>
    </contour>
    <contour>
      <point x="315" y="122" type="curve" smooth="yes"/>
      <point x="252" y="122"/>
      <point x="225" y="180"/>
      <point x="225" y="270" type="curve" smooth="yes"/>
      <point x="225" y="361"/>
      <point x="252" y="418"/>
      <point x="315" y="418" type="curve" smooth="yes"/>
      <point x="379" y="418"/>
      <point x="406" y="361"/>
      <point x="406" y="270" type="curve" smooth="yes"/>
      <point x="406" y="180"/>
      <point x="379" y="122"/>
    </contour>
    <contour>
      <point x="150" y="633" type="line"/>
      <point x="247" y="633" type="line"/>
      <point x="382" y="825" type="line"/>
      <point x="371" y="844" type="line"/>
      <point x="232" y="844" type="line"/>
    </contour>
    <contour>
      <point x="351" y="633" type="line"/>
      <point x="449" y="633" type="line"/>
      <point x="582" y="825" type="line"/>
      <point x="572" y="844" type="line"/>
      <point x="433" y="844" type="line"/>
    </contour>
  </outline>
</glyph>
<glyph name="cid40354" format="2">
  <advance height="1000" width="990"/>
  <unicode hex="0152"/>
  <outline>
    <contour>
      <point x="421" y="-11" type="curve" smooth="yes"/>
      <point x="930" y="-11" type="line"/>
      <point x="930" y="143" type="line"/>
      <point x="646" y="143" type="line"/>
      <point x="646" y="290" type="line"/>
      <point x="877" y="290" type="line"/>
      <point x="877" y="442" type="line"/>
      <point x="646" y="442" type="line"/>
      <point x="646" y="571" type="line"/>
      <point x="919" y="571" type="line"/>
      <point x="919" y="725" type="line"/>
      <point x="433" y="725" type="line" smooth="yes"/>
      <point x="216" y="725"/>
      <point x="51" y="617"/>
      <point x="51" y="360" type="curve" smooth="yes"/>
      <point x="51" y="103"/>
      <point x="216" y="-11"/>
    </contour>
    <contour>
      <point x="443" y="136" type="line" smooth="yes"/>
      <point x="325" y="136"/>
      <point x="238" y="184"/>
      <point x="238" y="360" type="curve" smooth="yes"/>
      <point x="238" y="536"/>
      <point x="325" y="578"/>
      <point x="443" y="578" type="curve" smooth="yes"/>
      <point x="463" y="578" type="line"/>
      <point x="463" y="136" type="line"/>
    </contour>
  </outline>
</glyph>
<glyph name="cid40890" format="2">
  <advance height="1000" width="925"/>
  <unicode hex="0153"/>
  <outline>
    <contour>
      <point x="302" y="-25" type="curve" smooth="yes"/>
      <point x="384" y="-25"/>
      <point x="440" y="7"/>
      <point x="486" y="65" type="curve"/>
      <point x="532" y="5"/>
      <point x="601" y="-25"/>
      <point x="679" y="-25" type="curve" smooth="yes"/>
      <point x="729" y="-25"/>
      <point x="808" y="-2"/>
      <point x="863" y="40" type="curve"/>
      <point x="806" y="149" type="line"/>
      <point x="765" y="127"/>
      <point x="725" y="114"/>
      <point x="686" y="114" type="curve" smooth="yes"/>
      <point x="625" y="114"/>
      <point x="576" y="144"/>
      <point x="562" y="215" type="curve"/>
      <point x="877" y="215" type="line"/>
      <point x="880" y="230"/>
      <point x="885" y="257"/>
      <point x="885" y="290" type="curve" smooth="yes"/>
      <point x="885" y="442"/>
      <point x="806" y="565"/>
      <point x="653" y="565" type="curve" smooth="yes"/>
      <point x="590" y="565"/>
      <point x="528" y="534"/>
      <point x="484" y="476" type="curve"/>
      <point x="444" y="530"/>
      <point x="386" y="565"/>
      <point x="306" y="565" type="curve" smooth="yes"/>
      <point x="162" y="565"/>
      <point x="37" y="458"/>
      <point x="37" y="270" type="curve" smooth="yes"/>
      <point x="37" y="84"/>
      <point x="157" y="-25"/>
    </contour>
    <contour>
      <point x="306" y="122" type="curve" smooth="yes"/>
      <point x="252" y="122"/>
      <point x="223" y="180"/>
      <point x="223" y="270" type="curve" smooth="yes"/>
      <point x="223" y="361"/>
      <point x="252" y="418"/>
      <point x="306" y="418" type="curve" smooth="yes"/>
      <point x="362" y="418"/>
      <point x="392" y="361"/>
      <point x="392" y="270" type="curve" smooth="yes"/>
      <point x="392" y="180"/>
      <point x="362" y="122"/>
    </contour>
    <contour>
      <point x="562" y="337" type="line"/>
      <point x="570" y="399"/>
      <point x="605" y="426"/>
      <point x="651" y="426" type="curve" smooth="yes"/>
      <point x="706" y="426"/>
      <point x="728" y="388"/>
      <point x="728" y="337" type="curve"/>
    </contour>
  </outline>
</glyph>
<glyph name="cid40914" format="2">
  <advance height="1000" width="463"/>
  <unicode hex="0155"/>
  <outline>
    <contour>
      <point x="69" y="-11" type="line"/>
      <point x="252" y="-11" type="line"/>
      <point x="252" y="308" type="line"/>
      <point x="280" y="380"/>
      <point x="330" y="406"/>
      <point x="372" y="406" type="curve" smooth="yes"/>
      <point x="396" y="406"/>
      <point x="409" y="404"/>
      <point x="429" y="399" type="curve"/>
      <point x="463" y="554" type="line"/>
      <point x="447" y="562"/>
      <point x="428" y="565"/>
      <point x="394" y="565" type="curve" smooth="yes"/>
      <point x="339" y="565"/>
      <point x="276" y="530"/>
      <point x="235" y="455" type="curve"/>
      <point x="231" y="455" type="line"/>
      <point x="218" y="552" type="line"/>
      <point x="69" y="552" type="line"/>
    </contour>
    <contour>
      <point x="189" y="633" type="line"/>
      <point x="328" y="633" type="line"/>
      <point x="519" y="825" type="line"/>
      <point x="507" y="844" type="line"/>
      <point x="316" y="844" type="line"/>
    </contour>
  </outline>
</glyph>
<glyph name="cid40921" format="2">
  <advance height="1000" width="463"/>
  <unicode hex="0157"/>
  <outline>
    <contour>
      <point x="69" y="-11" type="line"/>
      <point x="252" y="-11" type="line"/>
      <point x="252" y="308" type="line"/>
      <point x="280" y="380"/>
      <point x="330" y="406"/>
      <point x="372" y="406" type="curve" smooth="yes"/>
      <point x="396" y="406"/>
      <point x="409" y="404"/>
      <point x="429" y="399" type="curve"/>
      <point x="463" y="554" type="line"/>
      <point x="447" y="562"/>
      <point x="428" y="565"/>
      <point x="394" y="565" type="curve" smooth="yes"/>
      <point x="339" y="565"/>
      <point x="276" y="530"/>
      <point x="235" y="455" type="curve"/>
      <point x="231" y="455" type="line"/>
      <point x="218" y="552" type="line"/>
      <point x="69" y="552" type="line"/>
    </contour>
    <contour>
      <point x="36" y="-284" type="line"/>
      <point x="182" y="-280"/>
      <point x="268" y="-244"/>
      <point x="268" y="-165" type="curve" smooth="yes"/>
      <point x="268" y="-108"/>
      <point x="228" y="-78"/>
      <point x="103" y="-69" type="curve"/>
      <point x="69" y="-133" type="line"/>
      <point x="119" y="-138"/>
      <point x="138" y="-151"/>
      <point x="138" y="-171" type="curve" smooth="yes"/>
      <point x="138" y="-196"/>
      <point x="111" y="-209"/>
      <point x="24" y="-213" type="curve"/>
    </contour>
  </outline>
</glyph>
<glyph name="cid40377" format="2">
  <advance height="1000" width="704"/>
  <unicode hex="0158"/>
  <outline>
    <contour>
      <point x="84" y="-11" type="line"/>
      <point x="267" y="-11" type="line"/>
      <point x="267" y="243" type="line"/>
      <point x="356" y="243" type="line" smooth="yes"/>
      <point x="514" y="243"/>
      <point x="646" y="317"/>
      <point x="646" y="491" type="curve" smooth="yes"/>
      <point x="646" y="670"/>
      <point x="514" y="725"/>
      <point x="356" y="725" type="curve" smooth="yes"/>
      <point x="84" y="725" type="line"/>
    </contour>
    <contour>
      <point x="267" y="388" type="line"/>
      <point x="267" y="579" type="line"/>
      <point x="342" y="579" type="line" smooth="yes"/>
      <point x="424" y="579"/>
      <point x="468" y="557"/>
      <point x="468" y="491" type="curve" smooth="yes"/>
      <point x="468" y="423"/>
      <point x="424" y="388"/>
      <point x="342" y="388" type="curve" smooth="yes"/>
    </contour>
    <contour>
      <point x="480" y="-11" type="line"/>
      <point x="685" y="-11" type="line"/>
      <point x="447" y="410" type="line"/>
      <point x="323" y="291" type="line"/>
    </contour>
    <contour>
      <point x="260" y="781" type="line"/>
      <point x="450" y="781" type="line"/>
      <point x="598" y="959" type="line"/>
      <point x="459" y="959" type="line"/>
      <point x="357" y="888" type="line"/>
      <point x="353" y="888" type="line"/>
      <point x="251" y="959" type="line"/>
      <point x="112" y="959" type="line"/>
    </contour>
  </outline>
</glyph>
<glyph name="cid40389" format="2">
  <advance height="1000" width="634"/>
  <unicode hex="015C"/>
  <outline>
    <contour>
      <point x="313" y="-25" type="curve" smooth="yes"/>
      <point x="494" y="-25"/>
      <point x="597" y="84"/>
      <point x="597" y="208" type="curve" smooth="yes"/>
      <point x="597" y="310"/>
      <point x="544" y="372"/>
      <point x="452" y="408" type="curve" smooth="yes"/>
      <point x="360" y="444" type="line" smooth="yes"/>
      <point x="295" y="470"/>
      <point x="251" y="485"/>
      <point x="251" y="523" type="curve" smooth="yes"/>
      <point x="251" y="561"/>
      <point x="283" y="580"/>
      <point x="334" y="580" type="curve" smooth="yes"/>
      <point x="380" y="580"/>
      <point x="431" y="561"/>
      <point x="480" y="527" type="curve"/>
      <point x="575" y="646" type="line"/>
      <point x="511" y="705"/>
      <point x="423" y="738"/>
      <point x="334" y="738" type="curve" smooth="yes"/>
      <point x="176" y="738"/>
      <point x="66" y="638"/>
      <point x="66" y="513" type="curve" smooth="yes"/>
      <point x="66" y="407"/>
      <point x="136" y="342"/>
      <point x="214" y="309" type="curve" smooth="yes"/>
      <point x="307" y="270" type="line" smooth="yes"/>
      <point x="371" y="246"/>
      <point x="409" y="233"/>
      <point x="409" y="192" type="curve" smooth="yes"/>
      <point x="409" y="155"/>
      <point x="381" y="134"/>
      <point x="318" y="134" type="curve" smooth="yes"/>
      <point x="257" y="134"/>
      <point x="185" y="157"/>
      <point x="133" y="201" type="curve"/>
      <point x="37" y="82" type="line"/>
      <point x="115" y="8"/>
      <point x="215" y="-25"/>
    </contour>
    <contour>
      <point x="94" y="781" type="line"/>
      <point x="233" y="781" type="line"/>
      <point x="334" y="857" type="line"/>
      <point x="339" y="857" type="line"/>
      <point x="441" y="781" type="line"/>
      <point x="580" y="781" type="line"/>
      <point x="432" y="959" type="line"/>
      <point x="242" y="959" type="line"/>
    </contour>
  </outline>
</glyph>
<glyph name="cid40393" format="2">
  <advance height="1000" width="634"/>
  <unicode hex="015E"/>
  <outline>
    <contour>
      <point x="313" y="-25" type="curve" smooth="yes"/>
      <point x="494" y="-25"/>
      <point x="597" y="84"/>
      <point x="597" y="208" type="curve" smooth="yes"/>
      <point x="597" y="310"/>
      <point x="544" y="372"/>
      <point x="452" y="408" type="curve" smooth="yes"/>
      <point x="360" y="444" type="line" smooth="yes"/>
      <point x="295" y="470"/>
      <point x="251" y="485"/>
      <point x="251" y="523" type="curve" smooth="yes"/>
      <point x="251" y="561"/>
      <point x="283" y="580"/>
      <point x="334" y="580" type="curve" smooth="yes"/>
      <point x="380" y="580"/>
      <point x="431" y="561"/>
      <point x="480" y="527" type="curve"/>
      <point x="575" y="646" type="line"/>
      <point x="511" y="705"/>
      <point x="423" y="738"/>
      <point x="334" y="738" type="curve" smooth="yes"/>
      <point x="176" y="738"/>
      <point x="66" y="638"/>
      <point x="66" y="513" type="curve" smooth="yes"/>
      <point x="66" y="407"/>
      <point x="136" y="342"/>
      <point x="214" y="309" type="curve" smooth="yes"/>
      <point x="307" y="270" type="line" smooth="yes"/>
      <point x="371" y="246"/>
      <point x="409" y="233"/>
      <point x="409" y="192" type="curve" smooth="yes"/>
      <point x="409" y="155"/>
      <point x="381" y="134"/>
      <point x="318" y="134" type="curve" smooth="yes"/>
      <point x="257" y="134"/>
      <point x="185" y="157"/>
      <point x="133" y="201" type="curve"/>
      <point x="37" y="82" type="line"/>
      <point x="115" y="8"/>
      <point x="215" y="-25"/>
    </contour>
    <contour>
      <point x="198" y="-284" type="line"/>
      <point x="344" y="-280"/>
      <point x="429" y="-244"/>
      <point x="429" y="-165" type="curve" smooth="yes"/>
      <point x="429" y="-117"/>
      <point x="400" y="-92"/>
      <point x="342" y="-79" type="curve"/>
      <point x="374" y="-6" type="line"/>
      <point x="269" y="-6" type="line"/>
      <point x="214" y="-118" type="line"/>
      <point x="283" y="-127"/>
      <point x="299" y="-143"/>
      <point x="299" y="-165" type="curve" smooth="yes"/>
      <point x="299" y="-196"/>
      <point x="272" y="-209"/>
      <point x="185" y="-213" type="curve"/>
    </contour>
  </outline>
</glyph>
<glyph name="cid40937" format="2">
  <advance height="1000" width="506"/>
  <unicode hex="015F"/>
  <outline>
    <contour>
      <point x="240" y="-25" type="curve" smooth="yes"/>
      <point x="394" y="-25"/>
      <point x="477" y="56"/>
      <point x="477" y="161" type="curve" smooth="yes"/>
      <point x="477" y="252"/>
      <point x="411" y="304"/>
      <point x="325" y="331" type="curve" smooth="yes"/>
      <point x="253" y="354"/>
      <point x="224" y="366"/>
      <point x="224" y="395" type="curve" smooth="yes"/>
      <point x="224" y="417"/>
      <point x="241" y="431"/>
      <point x="279" y="431" type="curve" smooth="yes"/>
      <point x="316" y="431"/>
      <point x="358" y="421"/>
      <point x="400" y="390" type="curve"/>
      <point x="477" y="493" type="line"/>
      <point x="428" y="535"/>
      <point x="357" y="565"/>
      <point x="273" y="565" type="curve" smooth="yes"/>
      <point x="141" y="565"/>
      <point x="53" y="494"/>
      <point x="53" y="386" type="curve" smooth="yes"/>
      <point x="53" y="300"/>
      <point x="120" y="247"/>
      <point x="200" y="217" type="curve" smooth="yes"/>
      <point x="260" y="195"/>
      <point x="306" y="182"/>
      <point x="306" y="149" type="curve" smooth="yes"/>
      <point x="306" y="125"/>
      <point x="288" y="110"/>
      <point x="244" y="110" type="curve" smooth="yes"/>
      <point x="202" y="110"/>
      <point x="150" y="122"/>
      <point x="98" y="163" type="curve"/>
      <point x="21" y="60" type="line"/>
      <point x="79" y="5"/>
      <point x="166" y="-25"/>
    </contour>
    <contour>
      <point x="128" y="-284" type="line"/>
      <point x="273" y="-280"/>
      <point x="359" y="-244"/>
      <point x="359" y="-165" type="curve" smooth="yes"/>
      <point x="359" y="-117"/>
      <point x="330" y="-92"/>
      <point x="272" y="-79" type="curve"/>
      <point x="304" y="-6" type="line"/>
      <point x="199" y="-6" type="line"/>
      <point x="144" y="-118" type="line"/>
      <point x="212" y="-127"/>
      <point x="229" y="-143"/>
      <point x="229" y="-165" type="curve" smooth="yes"/>
      <point x="229" y="-196"/>
      <point x="202" y="-209"/>
      <point x="115" y="-213" type="curve"/>
    </contour>
  </outline>
</glyph>
<glyph name="cid40935" format="2">
  <advance height="1000" width="506"/>
  <unicode hex="0161"/>
  <outline>
    <contour>
      <point x="240" y="-25" type="curve" smooth="yes"/>
      <point x="394" y="-25"/>
      <point x="477" y="56"/>
      <point x="477" y="161" type="curve" smooth="yes"/>
      <point x="477" y="252"/>
      <point x="411" y="304"/>
      <point x="325" y="331" type="curve" smooth="yes"/>
      <point x="253" y="354"/>
      <point x="224" y="366"/>
      <point x="224" y="395" type="curve" smooth="yes"/>
      <point x="224" y="417"/>
      <point x="241" y="431"/>
      <point x="279" y="431" type="curve" smooth="yes"/>
      <point x="316" y="431"/>
      <point x="358" y="421"/>
      <point x="400" y="390" type="curve"/>
      <point x="477" y="493" type="line"/>
      <point x="428" y="535"/>
      <point x="357" y="565"/>
      <point x="273" y="565" type="curve" smooth="yes"/>
      <point x="141" y="565"/>
      <point x="53" y="494"/>
      <point x="53" y="386" type="curve" smooth="yes"/>
      <point x="53" y="300"/>
      <point x="120" y="247"/>
      <point x="200" y="217" type="curve" smooth="yes"/>
      <point x="260" y="195"/>
      <point x="306" y="182"/>
      <point x="306" y="149" type="curve" smooth="yes"/>
      <point x="306" y="125"/>
      <point x="288" y="110"/>
      <point x="244" y="110" type="curve" smooth="yes"/>
      <point x="202" y="110"/>
      <point x="150" y="122"/>
      <point x="98" y="163" type="curve"/>
      <point x="21" y="60" type="line"/>
      <point x="79" y="5"/>
      <point x="166" y="-25"/>
    </contour>
    <contour>
      <point x="183" y="633" type="line"/>
      <point x="353" y="633" type="line"/>
      <point x="501" y="844" type="line"/>
      <point x="362" y="844" type="line"/>
      <point x="270" y="752" type="line"/>
      <point x="266" y="752" type="line"/>
      <point x="174" y="844" type="line"/>
      <point x="35" y="844" type="line"/>
    </contour>
  </outline>
</glyph>
<glyph name="cid40405" format="2">
  <advance height="1000" width="634"/>
  <unicode hex="0162"/>
  <outline>
    <contour>
      <point x="225" y="-11" type="line"/>
      <point x="408" y="-11" type="line"/>
      <point x="408" y="571" type="line"/>
      <point x="606" y="571" type="line"/>
      <point x="606" y="725" type="line"/>
      <point x="27" y="725" type="line"/>
      <point x="27" y="571" type="line"/>
      <point x="225" y="571" type="line"/>
    </contour>
    <contour>
      <point x="194" y="-284" type="line"/>
      <point x="340" y="-280"/>
      <point x="426" y="-244"/>
      <point x="426" y="-165" type="curve" smooth="yes"/>
      <point x="426" y="-117"/>
      <point x="397" y="-92"/>
      <point x="339" y="-79" type="curve"/>
      <point x="371" y="-6" type="line"/>
      <point x="266" y="-6" type="line"/>
      <point x="210" y="-118" type="line"/>
      <point x="279" y="-127"/>
      <point x="296" y="-143"/>
      <point x="296" y="-165" type="curve" smooth="yes"/>
      <point x="296" y="-196"/>
      <point x="269" y="-209"/>
      <point x="182" y="-213" type="curve"/>
    </contour>
  </outline>
</glyph>
